<svg width="60" height="60" viewBox="0 0 60 60" fill="none" xmlns="http://www.w3.org/2000/svg">
<g filter="url(#filter0_b_2971_261)">
<circle cx="30" cy="30" r="30" fill="white" fill-opacity="0.1"/>
</g>
<path opacity="0.6" d="M29.8751 10.75H23.625C20.1732 10.75 17.375 13.5482 17.375 17C17.375 20.4518 20.1732 23.25 23.625 23.25H29.8751V10.75Z" fill="white"/>
<path opacity="0.4" d="M29.8751 23.2498H23.625C20.1732 23.2498 17.375 26.048 17.375 29.4997C17.375 32.9516 20.1732 35.7498 23.625 35.7498H29.8751V23.2498Z" fill="white"/>
<path d="M42.3738 29.4997C42.3738 32.9516 39.5756 35.7498 36.1237 35.7498C32.672 35.7498 29.8738 32.9516 29.8738 29.4997C29.8738 26.048 32.672 23.2498 36.1237 23.2498C39.5756 23.2498 42.3738 26.048 42.3738 29.4997Z" fill="white"/>
<path opacity="0.2" d="M23.625 35.7502H29.8751V42.0002C29.8751 45.4521 27.0768 48.2503 23.625 48.2503C20.1732 48.2503 17.375 45.4521 17.375 42.0002C17.375 38.5485 20.1732 35.7502 23.625 35.7502Z" fill="white"/>
<path opacity="0.8" d="M29.8738 10.75H36.1237C39.5756 10.75 42.3738 13.5482 42.3738 17C42.3738 20.4518 39.5756 23.25 36.1237 23.25H29.8738V10.75Z" fill="white"/>
<defs>
<filter id="filter0_b_2971_261" x="-10" y="-10" width="80" height="80" filterUnits="userSpaceOnUse" color-interpolation-filters="sRGB">
<feFlood flood-opacity="0" result="BackgroundImageFix"/>
<feGaussianBlur in="BackgroundImageFix" stdDeviation="5"/>
<feComposite in2="SourceAlpha" operator="in" result="effect1_backgroundBlur_2971_261"/>
<feBlend mode="normal" in="SourceGraphic" in2="effect1_backgroundBlur_2971_261" result="shape"/>
</filter>
</defs>
</svg>
