<svg width="60" height="60" viewBox="0 0 60 60" fill="none" xmlns="http://www.w3.org/2000/svg">
<g filter="url(#filter0_b_2971_253)">
<circle cx="30" cy="30" r="30" fill="white" fill-opacity="0.1"/>
</g>
<g clip-path="url(#clip0_2971_253)">
<path fill-rule="evenodd" clip-rule="evenodd" d="M30.5 10C41.2699 10 50 18.9504 50 29.9932C50 38.8248 44.4191 46.3167 36.6757 48.9629C35.687 49.1598 35.336 48.5354 35.336 48.0031C35.336 47.344 35.3594 45.1913 35.3594 42.5159C35.3594 40.6517 34.7354 39.435 34.0354 38.8149C38.378 38.3196 42.941 36.6288 42.941 28.9497C42.941 26.7657 42.1844 24.9834 40.9325 23.5833C41.1353 23.0783 41.8041 21.0447 40.7414 18.2913C40.7414 18.2913 39.1073 17.7556 35.3847 20.3413C33.8267 19.8986 32.1575 19.6759 30.5 19.6681C28.8425 19.6759 27.1753 19.8986 25.6192 20.3413C21.8927 17.7556 20.2547 18.2913 20.2547 18.2913C19.1959 21.0447 19.8647 23.0783 20.0656 23.5833C18.8195 24.9834 18.0571 26.7657 18.0571 28.9497C18.0571 36.6093 22.6103 38.326 26.9413 38.8311C26.3836 39.3303 25.8785 40.2109 25.703 41.5037C24.5915 42.0146 21.7679 42.8988 20.0285 39.8432C20.0285 39.8432 18.997 37.9222 17.0392 37.7818C17.0392 37.7818 15.1379 37.7565 16.9065 38.9967C16.9065 38.9967 18.1838 39.611 19.0711 41.9217C19.0711 41.9217 20.2157 45.4901 25.6406 44.2811C25.6504 45.9523 25.6679 47.5273 25.6679 48.0031C25.6679 48.5315 25.3091 49.15 24.336 48.9648C16.5867 46.3225 11 38.8267 11 29.9932C11 18.9504 19.7321 10 30.5 10Z" fill="white"/>
</g>
<defs>
<filter id="filter0_b_2971_253" x="-10" y="-10" width="80" height="80" filterUnits="userSpaceOnUse" color-interpolation-filters="sRGB">
<feFlood flood-opacity="0" result="BackgroundImageFix"/>
<feGaussianBlur in="BackgroundImageFix" stdDeviation="5"/>
<feComposite in2="SourceAlpha" operator="in" result="effect1_backgroundBlur_2971_253"/>
<feBlend mode="normal" in="SourceGraphic" in2="effect1_backgroundBlur_2971_253" result="shape"/>
</filter>
<clipPath id="clip0_2971_253">
<rect width="39" height="39" fill="white" transform="translate(11 10)"/>
</clipPath>
</defs>
</svg>
