<svg width="60" height="60" viewBox="0 0 60 60" fill="none" xmlns="http://www.w3.org/2000/svg">
<g filter="url(#filter0_b_2970_71)">
<circle cx="30" cy="30" r="30" fill="white" fill-opacity="0.1"/>
</g>
<g clip-path="url(#clip0_2970_71)">
<path d="M13.9115 27.3726C12.6908 27.9618 9.45994 30.6139 8.83767 31.3997C8.19143 32.1855 8.00003 30.9577 8.67012 28.9196C9.19651 27.2744 10.5369 25.0397 12.7865 23.1245C14.1027 22.0194 16.9987 20.4234 18.7696 19.4902C19.1287 19.2937 23.7716 17.2801 27.912 16.2734C28.2711 16.1751 27.4813 16.8872 27.3615 17.2801C26.7393 19.1463 14.3181 27.1515 14.3181 27.1515L13.9115 27.3726ZM31.4061 49.8901C31.6215 51.2161 31.4301 51.3144 30.0899 51.4863C28.7496 51.6582 27.7684 51.1425 27.4095 50.7988C27.0504 50.4548 26.9787 49.6937 27.3377 49.0062C27.5532 48.5641 27.7685 48.4168 27.8883 47.8766C28.0079 47.361 28.1036 47.2381 28.1993 47.0417C28.2949 46.8697 28.319 46.6978 28.3429 45.4946C28.3668 44.2915 28.3429 42.0323 28.4626 41.0747C28.5823 40.0925 32.7227 41.5166 32.7227 41.5166C32.7227 41.5166 31.7414 44.0213 31.4782 44.6352C31.2149 45.2492 31.2388 46.4278 31.2388 46.6733C31.2388 46.9189 31.1432 47.4099 31.0713 47.4345C30.9995 47.459 31.3106 48.0975 31.1669 48.4659C31.0712 48.8097 31.3823 49.6937 31.4061 49.8901ZM32.9858 12.3444C32.8421 11.4113 32.9858 9.56946 33.1772 9.27494C33.7756 8.43997 36.9346 8.34183 37.6048 9.32401C37.892 9.76597 37.868 10.7973 37.8202 11.4604C37.7724 12.1233 37.6048 13.5476 37.5809 14.0143C37.557 14.3581 34.0867 14.8982 33.3209 13.9651C33.1054 13.7196 32.9858 12.3444 32.9858 12.3444ZM40.022 47.5082C41.4819 48.5887 42.6067 48.7851 43.3486 49.178C44.0905 49.571 43.8991 50.3322 42.6545 50.5532C41.6493 50.7496 40.0698 50.3567 39.0168 50.3567C37.9638 50.3567 35.6183 50.4795 34.996 50.0376C34.2781 49.522 34.5892 48.5641 34.5892 48.5641C34.7807 48.024 35.2592 46.8206 35.1157 45.8385C34.9721 44.8563 34.7806 44.3161 34.4216 43.4075C34.0626 42.4989 33.7995 40.2644 34.1346 40.1416C34.4697 40.0187 34.3738 40.1416 34.8046 40.2397C35.2354 40.3379 35.7141 40.4853 36.6475 40.4853C37.5809 40.4853 38.6099 40.3378 38.969 40.2643C39.3279 40.1907 39.6151 40.1169 39.4954 40.8782C39.3758 41.6394 39.0168 43.0636 38.9928 44.1687C38.969 45.2737 38.969 46.5506 39.0408 46.7716C39.1125 46.9926 39.6391 47.2381 40.022 47.5082Z" fill="#010101"/>
<path d="M34.9003 14.8001C32.2678 17.133 27.1701 17.7714 19.6074 20.7672C17.6688 21.5284 12.4994 23.8121 11.2549 26.194C15.4431 23.7139 16.9988 27.1271 17.3337 30.6386C17.6448 33.929 19.2484 35.6481 23.3648 35.5497C27.6009 35.4515 28.8933 37.9807 30.0659 40.952C32.3395 29.5826 35.9773 27.3727 38.3226 25.4328C43.3007 21.2828 37.1739 13.9651 34.9003 14.8001Z" fill="#8AC640"/>
<path d="M34.9004 14.8C28.5822 17.0592 22.3357 17.624 14.9884 22.265C13.2413 23.37 9.55567 25.8746 8.83765 30.6631C11.518 27.6181 17.7166 23.7875 25.3033 21.3565C29.1325 20.1286 31.9327 19.3184 35.3311 17.9678C35.0919 16.3961 35.0919 15.7822 34.9004 14.8Z" fill="#8AC640"/>
<path d="M42.9657 28.2564C42.9657 28.2564 42.5109 29.8526 41.6015 30.3683C41.6015 30.3683 40.9314 30.6139 39.5912 29.8527C39.2083 29.6317 38.9212 28.8705 38.945 28.6248C38.969 28.0354 39.3279 27.7654 39.3279 27.7654C39.3279 27.7654 39.711 27.1023 40.1656 27.1269C40.6204 27.1514 41.3863 27.225 41.6256 27.0041C41.8408 26.7585 43.0136 27.446 42.9657 28.2564ZM33.2011 12.8108C33.2011 12.8108 33.1055 14.0633 32.9379 14.849C32.914 14.9964 32.1961 15.07 31.6694 15.2911C32.6746 18.2377 38.7296 18.2131 39.5195 16.7644C39.1365 16.4943 38.3707 16.0768 38.0117 15.9295C37.6526 15.7821 37.6766 15.8067 37.6526 15.1191C37.6288 14.4315 37.5809 13.1547 37.5329 12.8108C37.4851 12.467 33.7755 12.467 33.2011 12.8108Z" fill="#010101"/>
<path d="M33.4405 12.8109C33.4405 12.8109 33.4405 13.523 33.3687 14.2106C33.3449 14.5298 33.3209 14.7262 33.2731 14.9718C33.2491 15.1192 34.0868 15.7084 34.3261 17.0099C35.4749 19.6373 38.1315 18.3359 39.2323 17.0836C38.8494 16.8134 38.2271 16.4451 37.5092 16.1504C37.1502 16.003 37.3177 15.6839 37.2939 14.9964C37.2699 14.3088 37.1741 13.3019 37.1263 12.9336C37.0782 12.5653 34.015 12.4671 33.4405 12.8109Z" fill="#F0EFEF"/>
<path d="M33.2011 12.8108C33.2011 12.8108 33.1771 13.2529 33.1055 13.7685C33.4165 14.0877 33.8234 14.5297 34.1346 14.7999C34.35 14.9964 34.8764 14.9718 35.3552 14.9718C35.7859 14.9718 36.1689 15.0209 36.3364 14.9228C36.7195 14.7262 37.2698 14.2352 37.581 13.8668C37.5571 13.4248 37.5331 13.0074 37.5093 12.8108C37.4851 12.467 33.7754 12.467 33.2011 12.8108Z" fill="#010101"/>
<path d="M35.3791 14.6771C35.0918 14.6771 34.7567 14.6526 34.4935 14.6034C34.3738 14.5789 34.2542 14.5053 34.1584 14.4561C33.9909 14.3333 33.8233 14.1861 33.632 14.0386C33.249 13.744 33.2251 13.5721 33.2251 13.4985C33.3927 11.9514 33.1772 10.65 33.1772 10.65C33.1772 10.65 33.0096 9.98695 33.9191 9.81504C34.8285 9.64313 35.379 9.61865 35.379 9.61865C35.379 9.61865 35.9534 9.61865 36.8389 9.81504C37.7483 9.98695 37.5808 10.65 37.5808 10.65C37.5808 10.65 37.3654 11.9514 37.5329 13.4985C37.5329 13.5721 37.5091 13.744 37.126 14.0386C36.7909 14.2842 36.5277 14.5542 36.2646 14.6034C36.0012 14.6526 35.6661 14.6771 35.3791 14.6771Z" fill="#010101"/>
<path d="M35.3791 8.98022C33.7995 8.98022 33.4883 9.42218 33.0336 9.91333C32.9379 10.0361 33.0096 10.7728 33.1773 12.3443H33.3926C33.3926 12.3443 33.2489 11.9023 33.2729 11.3866C33.2969 10.871 33.3926 10.8956 33.3207 10.7728C33.2251 10.6253 33.0336 10.3798 33.4644 10.1343C33.8952 9.88874 34.5653 10.3307 35.3791 10.3553C36.1927 10.3307 36.8868 9.88874 37.3175 10.1343C37.7483 10.3798 37.5569 10.6253 37.4612 10.7728C37.3655 10.9201 37.4851 10.8709 37.509 11.3866C37.5329 11.9023 37.3893 12.3443 37.3893 12.3443H37.6047C37.7483 10.7728 37.844 10.0852 37.7722 9.9624C37.3654 9.42218 36.9586 9.0047 35.3791 8.98022ZM42.9656 28.3301C42.9656 28.3301 42.5109 29.828 41.6255 30.3437C41.4339 30.2455 41.4579 30.0982 41.2904 29.8771C41.2424 29.8036 41.0749 29.7543 41.0032 29.6807C40.9314 29.6071 40.9554 29.4842 40.8356 29.3861C40.7399 29.2878 40.6681 29.3615 40.5723 29.2878C40.4767 29.1897 40.4526 29.0668 40.3809 28.9933C40.333 28.9441 40.1416 28.9196 40.0938 28.8705C39.974 28.7476 38.9211 28.5266 38.969 28.2811C39.0646 27.9126 39.2561 27.6426 39.2561 27.6426C39.2561 27.6426 39.7108 26.9551 40.1654 26.9795C40.6202 27.0041 41.051 27.1024 41.2904 26.8814C41.5537 26.6357 43.0375 27.5443 42.9656 28.3301Z" fill="#010101"/>
<path d="M39.8544 17.4767C39.8544 17.4767 41.3621 17.1083 42.3913 18.1151C43.4204 19.1465 43.3485 20.4233 43.0375 21.2091C43.3007 21.5283 43.7794 22.4123 43.4204 23.4682C45 24.8433 44.3059 26.9552 42.8939 28.3548C42.8939 28.3548 42.5588 27.0779 41.2186 27.0042C41.2665 26.5132 39.9741 26.1202 40.5724 24.8433C39.663 24.6223 39.6869 23.9838 39.5434 23.1982C39.4236 22.4123 39.8544 17.4767 39.8544 17.4767Z" fill="#010101"/>
<path d="M39.304 18.1641C39.304 18.1641 41.051 17.2556 42.0802 18.287C43.1093 19.3183 42.822 20.4478 42.511 21.2336C42.7742 21.5527 43.3964 22.4615 43.0135 23.5418C42.9417 23.7874 42.4152 23.7874 42.0322 24.4258C42.9894 23.8609 43.5878 24.0083 43.8032 24.7204C44.1383 25.8254 43.3963 27.1514 42.7502 27.8881C42.7502 27.8635 42.7262 27.8389 42.7262 27.8144C42.6306 28.1829 42.5108 28.8949 41.7929 29.6806C41.4339 30.0735 41.1467 30.0245 40.7398 29.9262C40.2612 29.8034 40.0937 29.5823 39.4236 29.2141C39.0407 28.9931 39.256 28.7229 39.256 28.502C39.256 28.4529 39.3039 28.3791 39.3758 28.281C39.4236 28.1581 39.5672 27.9619 39.7825 27.7408C39.7825 27.7408 40.0937 27.2988 40.5485 27.3233C41.0032 27.3479 41.4818 27.2497 41.6015 27.1269C41.6015 26.2675 40.6443 26.2429 40.9793 24.7695C41.0032 24.6959 41.123 24.573 41.5058 24.524C40.9313 24.4011 40.6681 24.3765 40.2612 23.9838C39.9741 23.7137 39.7587 23.3699 39.6868 22.9279C39.5433 22.1667 39.304 18.1641 39.304 18.1641Z" fill="#F0EFEF"/>
<path d="M34.2541 16.6171C34.1106 16.4206 33.3687 15.4384 31.9566 15.0455C31.5497 14.9227 31.2865 15.2665 30.8797 15.5121C30.76 15.4384 30.2335 15.1928 29.9463 15.3646C29.6592 15.5364 29.4678 15.7084 29.1805 15.8312C29.0368 15.7575 28.654 15.7575 28.3428 15.8802C28.0317 15.9785 27.553 16.1995 27.0983 16.8379C26.8111 17.8939 32.172 17.108 32.172 17.108L34.2541 16.6171Z" fill="#010101"/>
<path d="M34.3021 16.6171C33.5361 16.347 33.6558 15.4384 31.9566 15.2911C31.6215 15.2665 31.4061 15.5366 31.1668 15.7085C31.2865 15.8313 31.4061 16.0277 31.4779 16.2241C31.2625 15.9787 30.8796 15.6593 30.4966 15.5856C30.1376 15.5121 29.8983 15.7821 29.5153 15.9787C29.587 16.0522 29.6589 16.175 29.7546 16.3225C29.4195 16.1015 29.1802 16.0278 28.7255 16.1996C28.4144 16.2978 27.8161 16.5679 27.3614 17.231C27.0742 18.2869 32.1958 17.1081 32.1958 17.1081L34.3021 16.6171Z" fill="#8AC640"/>
<path d="M38.8014 17.01C38.8014 17.01 38.8014 16.7398 38.7774 16.4943C38.7774 16.4453 38.586 16.3224 38.586 16.2734L38.5382 16.2242C38.5382 16.2242 38.9211 16.0032 39.2083 16.126C39.5193 16.2242 39.6869 16.6417 39.6869 16.6417C40.2373 16.4453 40.2852 16.6663 40.5485 16.9609C41.1229 16.838 41.1946 17.059 41.5537 17.5994C41.5537 17.5994 41.1229 17.5257 40.2853 17.6729C39.4715 17.7956 38.8014 16.9854 38.8014 17.01Z" fill="#010101"/>
<path d="M38.7056 16.8873C38.7056 16.8873 38.8492 16.7644 38.8013 16.7398C39.0645 16.5925 39.4235 16.4207 39.5911 16.8873C40.1415 16.6908 40.2133 16.9609 40.4765 17.2557C41.1466 16.9365 41.1944 17.3292 41.2424 17.5011C41.027 17.5011 40.716 17.5257 40.2851 17.5748C39.4715 17.6976 38.6816 16.8627 38.7056 16.8873Z" fill="#8AC640"/>
<path d="M30.5686 16.2734C30.5686 16.2734 31.9327 16.7645 33.0815 16.6908C34.2303 16.5927 36.1927 16.4944 37.2457 17.1329C37.2457 17.1329 38.3227 16.7399 39.3279 17.01C40.3332 17.2801 42.1759 19.0482 41.6256 20.9144C41.5776 21.0372 41.2665 21.2336 40.9075 21.3565C40.9075 21.3565 41.0991 22.1913 40.7639 22.8788C40.4288 23.5419 39.687 24.8188 39.663 26.5868C39.6391 26.8814 39.5913 27.4953 39.5434 27.7899C37.6766 27.7164 34.8047 27.0042 31.9806 27.0533C32.0045 26.7342 32.0285 26.5377 32.0524 26.2185H32.1241C31.9805 25.4081 31.9327 24.9906 31.789 24.3768C30.8796 23.7875 29.9222 23.0999 29.1087 21.7984C28.3188 20.4969 30.5686 16.2734 30.5686 16.2734ZM39.8066 29.5336C39.8066 29.5336 41.2905 34.985 39.5434 37.2687C39.5434 37.2687 39.8066 38.3245 39.2083 39.4541C39.1125 39.9452 38.9928 40.3872 38.9211 40.8783C38.61 42.9164 38.0834 43.7758 37.9398 47.0417L36.5037 47.0172C36.5037 47.0172 36.3362 44.6599 35.8336 43.4075C35.5466 42.6955 34.4215 41.7377 34.4696 40.7801C34.5174 40.0434 34.661 39.4295 35.8817 38.4472C35.9773 37.0231 34.5892 35.6724 34.8047 30.3684L39.8066 29.5336Z" fill="#010101"/>
<path d="M39.3758 29.3125C39.7587 31.8171 40.6442 35.5251 39.0407 37.3421C39.1353 37.8029 39.1434 38.2779 39.0646 38.7418C39.0167 39.0364 38.921 39.3556 38.8014 39.6993C38.562 40.2887 38.4663 41.1482 38.3945 41.6638C38.0833 43.7019 38.0833 43.8003 37.9398 47.0662L36.5037 47.0416C36.5037 47.0416 36.3361 44.6842 35.8336 43.432C35.5466 42.7199 34.9481 42.106 34.9003 41.1483C34.8525 40.4117 35.355 38.9384 36.5518 38.9875C36.48 36.0162 35.1397 36.6055 34.7807 30.4175L39.3758 29.3125ZM30.5685 16.2734C30.5685 16.2734 31.095 16.4454 31.6694 16.4944C32.2438 16.5435 32.8661 16.4944 33.4164 16.4698C34.5652 16.3717 36.1927 16.2488 37.2697 16.8873C37.2697 16.8873 37.868 16.6908 38.5142 16.7399C38.8014 16.7645 39.0886 17.01 39.4236 17.1083C40.4766 17.3783 41.4818 19.1709 41.027 20.7916C40.9792 20.9145 40.6441 20.7916 40.2612 20.9145C40.3328 21.2583 40.3809 22.0441 39.9978 22.879C39.5911 23.7139 39.0646 24.7944 39.1602 26.8571C36.6473 26.7342 35.5225 26.5624 33.0334 26.4396C32.818 25.531 32.6743 24.6224 32.6505 24.1559C32.9856 23.984 33.1769 23.8368 33.4403 23.542C32.7224 23.6649 32.4351 23.6157 32.0042 23.3701C31.5735 23.1245 30.8076 22.3387 30.4247 21.8231C30.3769 21.7739 30.1137 22.5842 29.5154 22.6089C29.2999 22.2897 30.2094 21.381 30.0418 21.0373C29.4436 19.7849 30.5685 16.2734 30.5685 16.2734Z" fill="#F0EFEF"/>
<path d="M39.5671 27.2742C39.5671 27.2742 39.615 28.1583 39.615 28.3793C39.615 28.6248 39.8065 29.3614 39.8303 29.7053C39.5671 30.1718 38.4184 31.2278 36.3362 31.6207C34.278 32.0626 31.5497 28.7477 31.5497 28.7477C31.6215 28.4285 31.8608 27.4952 32.0284 27.0042C32.0523 26.9551 32.1002 26.8323 32.1002 26.7832C32.3156 26.464 39.5671 27.2742 39.5671 27.2742Z" fill="#010101"/>
<path d="M39.0408 27.348C39.0408 27.9619 39.1364 28.404 39.2083 28.7968C39.328 29.509 39.5194 29.9755 39.5194 30.4421C39.5194 31.8662 37.7005 31.6206 36.1687 31.6698C34.1105 32.1119 32.3634 28.7968 32.3634 28.7968C32.507 28.232 32.6027 27.5937 32.8181 27.0534C32.842 26.7587 32.8899 26.3904 32.9138 26.2185C35.8336 26.2185 37.8918 26.3904 39.0885 26.513C39.1364 26.7832 39.0886 27.2497 39.0408 27.348Z" fill="#F0EFEF"/>
<path d="M36.7431 30.5157C36.7431 30.5157 35.4747 27.6182 31.6693 28.4777C30.76 31.1051 29.5393 34.1256 30.3291 37.3914C29.5393 38.4964 28.6299 39.1104 28.6299 41.1484C28.6299 43.1866 28.7256 43.5304 28.7256 43.5304L31.5257 43.6778C31.5257 43.6778 32.4352 42.4747 32.7941 41.1732C32.8899 40.8047 32.9856 40.1418 32.9138 39.3806C33.0095 39.2333 33.4164 38.8896 33.4643 38.2265C33.4643 38.2265 34.8285 37.4899 35.6183 35.6974C36.3603 34.0764 36.1688 32.6767 36.7431 30.5157Z" fill="#010101"/>
<path d="M36.743 30.5157C36.6714 30.2456 35.714 27.5936 32.1719 28.3793C30.0899 34.0763 30.8557 36.4337 31.1667 37.4649C29.7546 39.3065 29.1085 39.6994 29.3958 43.432H31.2626C32.1241 42.0323 32.3156 41.5166 32.3634 39.675C32.3634 39.6013 32.1002 39.8223 31.9087 40.0678C32.0524 39.3067 32.4592 39.1593 32.7703 38.6928C32.9139 38.4963 33.0335 38.2016 33.0335 37.8087C34.7088 36.6547 35.3311 35.2058 35.69 33.7079C35.9773 32.6767 36.3123 30.9822 36.743 30.5157Z" fill="#F0EFEF"/>
<path d="M30.8317 26.5623C30.8317 26.5623 31.478 26.5867 32.0524 26.7832C32.6029 26.9796 32.6029 27.1023 32.8183 27.348C33.0336 27.5937 33.5601 27.9619 33.4645 28.3302C33.4166 28.5267 33.297 28.5758 33.1294 28.7477C33.0576 28.8214 32.531 29.4106 32.4114 29.4843C32.3396 29.5334 32.2438 29.6071 32.172 29.6562L31.8131 29.9018C31.5737 30.0246 31.4062 30.0983 31.143 30.0737C31.143 30.0737 30.5447 30.0491 30.1616 29.6317C30.1616 29.6317 30.1138 29.4352 30.2096 29.3371C30.2096 29.3371 29.7069 28.895 29.5633 28.6004C29.4196 28.3059 29.4196 27.8884 29.5155 27.6674C29.5633 27.4462 30.4966 26.8323 30.8317 26.5623ZM31.4301 50.455L31.3584 51.069C31.3584 51.069 31.143 51.339 29.5395 51.3145C27.912 51.2899 27.4813 50.7743 27.3377 50.5042L27.2421 49.8657C27.2421 49.8657 27.5532 49.3991 27.625 49.3991C28.1515 49.4482 29.9465 50.1849 31.191 50.3813C31.3104 50.3813 31.3343 50.4304 31.4301 50.455ZM34.9003 49.2026C34.9003 49.4727 34.8764 49.4727 34.8764 49.7428C35.1635 49.9638 35.8817 50.0867 37.2457 50.0619C39.2321 50.0129 41.0749 50.6759 43.3245 50.2829L43.3485 49.841L43.1331 49.8165L35.1635 49.1534L34.9003 49.2026Z" fill="#010101"/>
<path d="M36.6474 50.062H37.2457C38.5382 50.0129 39.7588 50.3076 41.075 50.3812C41.769 50.3566 42.6307 50.1847 42.5589 49.6691L35.762 49.0797C35.3551 49.5463 35.6661 49.9392 36.6474 50.062ZM28.8454 39.7241C29.0607 39.8714 30.5207 40.7554 32.89 40.6326C32.8421 41.0991 32.866 42.0078 31.813 43.6038C31.2865 44.3896 30.8317 45.7648 30.736 47.5083C30.76 47.9012 30.9754 48.2449 30.6882 48.7606C30.7838 49.0797 31.1668 49.7182 31.3583 50.1111C31.5497 50.5041 31.6455 50.946 30.377 50.9706C29.0846 50.9951 27.0024 50.8478 27.2897 49.8166C27.4334 49.2763 27.8402 48.7115 27.8881 48.4904C27.9359 48.2695 27.9359 47.6065 28.3427 47.1644C28.7018 45.9367 28.5821 44.758 28.5104 43.653C28.3907 42.4988 28.3667 40.6572 28.8454 39.7241ZM31.0711 19.7111C32.7704 17.3782 31.3343 15.5121 28.6061 16.0768C27.5052 16.2978 26.4044 17.0837 26.3324 18.5078C25.9735 18.5569 25.1598 18.606 24.7529 20.1285C24.4419 21.3071 24.2744 21.5281 23.7238 22.1174C23.3648 22.5349 23.7477 23.3943 24.0109 24.0083C24.8965 26.1201 27.6248 26.3165 29.4676 27.9127C30.0899 27.7407 30.736 27.0287 30.9275 26.5622C29.3719 24.6713 29.7069 23.9347 29.0846 22.9525C29.7548 22.7068 31.2865 21.7492 31.0711 19.7111Z" fill="#010101"/>
<path d="M30.736 19.5637C30.8316 19.4163 30.9992 19.0971 31.0711 18.9743C31.095 18.9497 31.3582 19.4163 31.3822 19.3918C32.0283 18.3112 32.1959 16.7397 31.4539 16.5923C31.2863 16.5678 30.9753 16.4942 30.712 16.3958C30.2334 16.2239 29.8027 16.2239 29.0367 16.3714C27.9837 16.5678 26.9307 17.3535 26.9307 18.4832C26.9307 18.5568 27.6725 18.7778 27.8879 19.6864C27.5289 19.1707 26.9066 18.6059 26.1647 19.097C25.3749 19.6126 25.7818 20.7913 24.7288 22.0191C24.3697 22.4366 24.4177 22.9277 24.8005 23.9099C25.4227 25.457 28.3665 26.2918 29.97 27.7652C30.3529 27.5932 30.6161 27.2003 30.8076 26.9057C29.7307 25.7516 29.2998 24.6711 28.9888 23.8853C28.6059 22.9768 28.175 22.4612 27.3374 21.7734C27.7682 21.9453 28.1033 22.1172 28.2946 22.2645C28.51 22.4118 28.8211 22.4364 29.1084 22.3382C30.1377 21.9701 30.6882 20.4967 30.736 19.5637Z" fill="#F0EFEF"/>
<path d="M41.1468 19.9567C41.075 20.8898 40.405 20.4232 40.046 20.2513C39.328 19.9321 38.6099 19.7111 37.7723 19.7111C36.9347 19.7111 35.8577 19.7847 34.9244 20.0303C33.632 20.3986 33.249 20.3741 32.6747 20.0794C32.1003 19.7602 31.0953 18.9744 31.0953 18.9744C31.0953 18.9744 31.0713 19.2199 31.3106 19.5392C31.6217 19.9321 32.3158 20.4232 33.2491 20.7423C33.7038 20.8898 34.0629 20.7914 34.4698 20.6933C36.5998 20.153 38.8494 20.0548 40.7401 21.2335C40.8358 21.2825 41.1709 21.1352 41.3145 20.9142C41.5058 20.5951 41.1468 19.9567 41.1468 19.9567Z" fill="#010101"/>
<path d="M30.2574 29.3123C30.4488 29.4351 30.6882 29.5088 30.9514 29.7297C30.9514 29.7297 30.736 29.7297 30.6404 29.6316C30.5206 29.5579 30.2813 29.337 30.2574 29.3123Z" fill="#0A1825"/>
<path d="M37.1739 9.83982C37.1021 9.61884 36.5755 9.22583 35.355 9.22583C34.0387 9.22583 33.6558 9.64332 33.6319 9.8643C33.6319 9.93796 33.5362 10.7239 33.5122 11.043C33.5122 11.043 33.5122 11.4359 33.5361 12.0251C33.56 12.418 33.6558 12.639 33.7036 13.1548C33.7514 13.6949 33.8951 14.0387 34.1583 14.4808C34.2781 14.5543 34.3737 14.6281 34.4934 14.6527C34.9721 14.7508 35.8098 14.7754 36.2645 14.6527C36.5277 14.579 36.8628 14.1125 36.9346 13.695C37.0302 13.1794 37.126 12.8109 37.1499 12.4918C37.1978 12.1727 37.2217 11.4605 37.2456 11.264C37.3175 10.7239 37.1978 9.88889 37.1739 9.83982Z" fill="#F0EFEF"/>
<path d="M34.661 40.1907C34.661 40.1907 35.9295 40.7555 39.0647 40.2643C39.0647 40.2643 38.1792 44.8317 38.5861 47.1153C38.5861 47.1153 38.9929 47.7047 42.0085 48.8342C42.0085 48.8342 43.3487 49.178 43.3009 49.8657C43.3009 49.8657 43.3487 50.013 41.7213 49.9638C40.094 49.9146 38.5622 49.62 37.4852 49.62C36.4082 49.62 35.2594 49.6691 35.068 49.3499C34.8527 49.0553 35.1159 48.294 35.427 47.8519C35.7622 47.3855 35.6663 47.0415 35.6425 46.2068C35.5705 44.0214 33.943 41.7622 34.661 40.1907Z" fill="#010101"/>
<path d="M34.3977 40.6081C34.2302 40.8537 34.4216 41.7867 34.6609 42.6953C34.9003 43.6038 35.4269 44.1441 35.5465 45.6419C35.6661 47.1152 35.6901 47.3118 35.2832 48.1711C34.8763 49.0304 34.7567 49.8163 36.1686 49.8409C37.5806 49.8655 38.3466 49.8163 39.7825 50.0374C41.2186 50.2584 41.7211 50.3321 42.5109 50.2093C43.3008 50.0866 43.4682 49.8163 43.1332 49.5709C42.7981 49.3253 41.41 49.0552 40.8117 48.564C40.2372 48.122 38.6099 47.3853 38.586 47.1889C38.5143 46.5258 38.4903 44.1194 38.6099 43.3336C38.7296 42.5477 38.8971 41.4182 38.945 41.1236C38.9929 40.829 39.2322 40.5342 38.8253 40.6325C38.4185 40.7306 36.8868 40.9517 35.738 40.878C34.5892 40.8045 34.4696 40.5343 34.3977 40.6081Z" fill="#8AC640"/>
<path opacity="0.3" d="M35.2115 48.1958C35.6183 48.3922 36.2167 48.5396 36.6714 48.5396C36.6714 48.5396 36.5037 49.35 36.767 49.841C37.0302 50.3322 34.8524 50.0375 34.8524 50.0375L34.7568 48.2941L35.2115 48.1958ZM41.5536 50.3076C41.9366 50.1847 42.1999 49.7428 41.8887 49.3254C41.5536 48.9079 41.2665 48.8343 41.6972 48.8098C42.1281 48.7852 43.7076 49.7674 43.7076 49.7674L42.8938 50.5286L41.5536 50.3076ZM34.3259 41.5657C34.8764 41.7622 35.714 41.8113 36.432 41.7867C37.15 41.7622 38.2269 41.6638 38.9211 41.4184C39.6151 41.1728 39.3279 41.6884 39.3279 41.6884L38.945 42.0568C38.945 42.0568 38.0355 42.4251 36.5518 42.4007C34.8047 42.3761 34.2781 42.1797 34.2781 42.1797L34.3259 41.5657ZM34.3737 42.7935C34.9243 42.9901 35.7618 43.0391 36.4799 43.0145C37.1978 42.9901 38.1551 42.9901 38.8492 42.7199C39.1364 42.6218 38.9689 43.0391 38.9689 43.0391L38.8492 43.2601C38.8492 43.2601 37.9158 43.6039 36.4559 43.5792C34.7088 43.5547 34.3977 43.4073 34.3977 43.4073L34.3737 42.7935Z" fill="#010101"/>
<path d="M32.7942 25.5801C32.7942 25.752 34.661 26.7096 35.69 26.9061C36.7192 27.1025 38.8732 26.9061 39.2081 26.8324L39.1602 27.1762C39.1602 27.1762 36.5995 27.5691 34.637 27.0289C32.6745 26.4887 32.89 26.3659 32.89 26.3659L32.7942 25.5801Z" fill="#010101"/>
<path d="M28.7975 46.526C29.0846 46.6734 30.1138 46.9435 30.7839 46.7962C30.8795 46.7716 30.7839 45.1018 31.0472 44.3406C31.4301 43.2846 32.0524 42.4252 32.3394 40.5591C31.3343 40.4608 30.1856 40.1906 29.5872 39.9941C28.8215 42.4007 29.0848 44.4633 28.7975 46.526ZM30.4011 48.0731C30.5686 48.1222 30.6883 48.3186 30.7362 48.196C30.8318 47.9749 30.5686 47.5575 30.5447 47.2628V47.2383C30.3293 47.0419 28.8694 47.0173 28.9652 47.1154C28.7976 47.4346 28.5344 47.3856 28.4388 48.024C28.3909 48.3432 28.7739 48.0731 29.1327 48.0485C28.4866 48.4905 27.7447 49.0554 27.625 49.5464C27.4814 50.234 27.7207 50.4305 28.4388 50.7989C29.061 50.9462 29.8029 50.9708 30.3772 50.9462C31.0235 50.8234 31.1432 50.5042 30.9517 50.0622C30.6643 49.3991 30.4729 48.5397 30.4011 48.0731Z" fill="#F0EFEF"/>
<path d="M30.6642 16.175C31.454 16.6416 32.555 16.5189 32.9617 16.4943C33.0575 16.4943 34.0149 16.3224 34.0627 16.3468C34.1583 16.3714 34.1583 16.4451 34.1583 16.4451C34.1583 16.4451 33.7994 16.6415 32.9857 16.6905C32.2199 16.7396 31.3104 16.6905 30.8079 16.4451C30.2095 16.175 30.6642 16.175 30.6642 16.175ZM38.8014 16.6416C38.945 16.7397 39.8784 17.1082 40.2852 17.5501C40.6442 17.9431 40.4528 17.9185 40.3809 17.8203C40.2852 17.6974 39.5433 17.1818 39.2561 17.0591C38.9689 16.9364 38.6099 16.7153 38.6099 16.6662C38.6099 16.6171 38.8014 16.6416 38.8014 16.6416Z" fill="#010101"/>
<path d="M30.5445 26.8323C31.2386 26.7832 31.9566 26.9551 32.4113 27.4461C32.6507 27.6917 33.0336 27.9618 32.9858 28.2073C32.9858 28.281 32.8421 28.4775 32.7226 28.6248C32.6508 28.7229 32.4354 28.9439 32.3635 29.0177C32.2678 29.0914 31.9327 29.3615 31.861 29.4106C31.7892 29.4598 31.6934 29.5826 31.6216 29.6071C31.3824 29.73 31.1191 29.6317 30.8797 29.509C30.6405 29.3861 30.9277 29.3615 30.6644 29.1651C30.0182 28.6986 29.6592 28.3792 29.9225 27.4707C29.9463 27.2988 30.2095 27.1023 30.5445 26.8323Z" fill="#F0EFEF"/>
<path opacity="0.4" d="M24.4418 21.2089C22.2878 22.093 16.8071 24.8924 15.2516 25.7518C16.5439 26.5867 17.1422 28.6002 17.3338 30.6383C17.3576 30.8349 17.3816 31.0068 17.4056 31.2032C17.4294 31.3751 17.4534 31.4978 17.4772 31.5716C17.4772 31.5962 17.4772 31.6452 17.5012 31.6697C18.9133 27.7163 23.963 23.5418 24.1545 23.2226C24.2501 23.0752 24.0348 22.4368 24.3699 21.823C24.8007 21.037 25.6385 20.6932 24.4418 21.2089ZM29.5634 39.7486C30.6642 37.4894 30.6882 35.3285 30.6642 32.7992C30.6642 31.7432 31.4061 30.2453 31.0233 30.6628C29.5872 32.3079 25.9735 35.4021 23.3648 35.5739C27.0265 35.4512 28.4624 37.342 29.5634 39.7486Z" fill="#010101"/>
<path d="M13.1455 27.8391C14.5097 26.8323 21.5699 22.9772 23.2691 22.4369C24.9682 21.872 24.4417 21.209 24.4417 21.209C24.4417 21.209 17.5491 24.2539 13.4327 26.8814" fill="#010101"/>
<path opacity="0.4" d="M33.2489 20.7424C32.6984 20.5214 32.2677 21.1845 32.4113 21.8229C32.555 22.4614 33.8473 23.1734 33.7754 25.5063C33.7276 27.4217 33.3207 28.2074 33.3207 28.2074L32.4113 27.0288C32.4113 27.0288 32.2677 24.3767 31.9565 23.9838C31.6455 23.5909 30.6642 22.8788 30.2813 22.5105C29.8983 22.142 30.712 21.651 30.6642 20.9634C30.6164 20.3004 31.0711 18.9744 31.0711 18.9744L33.2489 20.7424ZM36.5756 31.2031C36.5278 33.0447 36.9347 35.7705 37.1021 37.072C37.2697 38.3734 37.485 38.4716 37.1021 39.061C36.7192 39.6258 36.2167 40.559 36.2167 40.559L34.5652 40.4115C34.5652 40.4115 35.8816 38.6926 35.9532 38.3734C36.025 38.0543 35.2831 35.6233 35.2831 35.6233L36.5756 31.2031ZM33.3926 14.0141C33.7277 14.7752 34.1345 15.119 34.7806 15.3401C35.1635 15.4875 36.6713 15.684 37.2697 14.9963C37.5329 14.6771 37.3653 13.8176 37.3653 13.8176L36.0012 14.9471L34.1583 14.6034L33.943 14.0386L33.3926 14.0141Z" fill="#010101"/>
<path d="M33.3208 15.7822C34.1106 16.1261 35.6423 16.4944 36.073 16.5926C36.5038 16.6909 37.1978 16.2488 37.533 16.0278C38.1314 15.6349 38.8971 15.9541 39.2562 16.3716C39.4954 16.6417 39.5913 16.8136 39.5913 16.8872C39.5913 16.9854 39.3041 16.8872 39.3041 16.8872C39.1366 16.8136 38.945 16.7891 38.8016 16.6907C38.6101 16.5926 38.4185 16.4453 38.1315 16.4698C36.9348 16.6172 36.6954 17.0346 35.6664 16.789C34.6373 16.5434 34.374 16.3224 33.2732 16.396" fill="#8AC640"/>
<path d="M29.6112 38.7172C29.5634 38.6682 29.659 38.6191 29.6112 38.6191C29.3002 38.6191 28.8693 38.3735 28.6298 38.0297C27.6008 36.5073 26.0929 35.5006 23.3647 35.5742C19.2721 35.6723 17.6446 33.9536 17.3336 30.6631C17.1661 28.8706 16.6874 27.1271 15.7062 26.1448L15.1317 26.5132C16.2325 27.4954 16.5916 29.0915 16.831 31.277C17.2139 34.5674 19.7986 36.09 22.8142 36.139C25.9494 36.1881 27.0742 36.8511 28.2468 38.4719C28.6297 38.9875 29.0606 39.1594 29.3956 39.2331L29.6112 38.7172Z" fill="#010101"/>
<path opacity="0.4" d="M40.7161 22.928C40.7879 23.2963 40.9793 24.0084 41.3622 24.3521C41.5299 24.524 41.5537 24.5731 41.4102 24.5731C41.2665 24.5731 40.2134 24.524 40.2134 24.524L39.9263 24.0084L40.7161 22.928Z" fill="#010101"/>
</g>
<defs>
<filter id="filter0_b_2970_71" x="-10" y="-10" width="80" height="80" filterUnits="userSpaceOnUse" color-interpolation-filters="sRGB">
<feFlood flood-opacity="0" result="BackgroundImageFix"/>
<feGaussianBlur in="BackgroundImageFix" stdDeviation="5"/>
<feComposite in2="SourceAlpha" operator="in" result="effect1_backgroundBlur_2970_71"/>
<feBlend mode="normal" in="SourceGraphic" in2="effect1_backgroundBlur_2970_71" result="shape"/>
</filter>
<clipPath id="clip0_2970_71">
<rect width="37" height="44" fill="white" transform="translate(8 8)"/>
</clipPath>
</defs>
</svg>
