<svg width="60" height="60" viewBox="0 0 60 60" fill="none" xmlns="http://www.w3.org/2000/svg">
<g filter="url(#filter0_b_2970_244)">
<circle cx="30" cy="30" r="30" fill="white" fill-opacity="0.1"/>
</g>
<g clip-path="url(#clip0_2970_244)">
<path d="M45.3753 29.73C45.3753 27.6094 43.9398 25.752 41.8833 25.2131L46.3653 12H24.1578L28.6533 25.2604C26.6598 25.8409 25.2884 27.6622 25.2828 29.7367C25.2828 31.3016 26.0624 32.6899 27.2527 33.5449C26.7791 34.2187 26.2323 34.8409 25.6293 35.4079C24.5223 36.4642 23.2207 37.3013 21.8032 37.8818C20.5488 37.0369 20.0111 35.5429 20.4971 34.2143C25.5944 32.6258 24.4694 25.1141 19.1381 25.0916C16.5596 25.0961 14.4682 27.183 14.4682 29.7615C14.4682 31.0339 14.9823 32.1994 15.8216 33.0364C15.7451 33.177 15.6742 33.33 15.5977 33.4819C14.9013 34.923 14.1093 36.5464 13.8056 38.3689C13.2026 42.0195 14.1926 44.949 16.5832 46.6072C17.8713 47.5162 19.4182 48.0079 21.0011 48.0022C23.7371 48.0022 26.5214 46.6253 29.2102 45.2888C31.1317 44.3449 33.1117 43.3549 35.0568 42.8756C35.778 42.7001 36.5283 42.5955 37.3192 42.4763C38.9246 42.2479 40.5828 42.0082 42.0712 41.1409C43.7936 40.1565 44.9951 38.4578 45.3461 36.5059C45.6037 35.0175 45.3461 33.5179 44.679 32.1994C45.1301 31.4782 45.3764 30.6413 45.3764 29.7323L45.3753 29.73ZM43.3425 29.73C43.3425 31.1779 42.1635 32.3546 40.7178 32.3546C38.2327 32.349 37.1437 29.2147 39.0933 27.6667L39.0989 27.6566C39.1878 27.5925 39.2823 27.5272 39.3689 27.4676C39.3689 27.4676 39.3869 27.4676 39.3869 27.4575C39.4274 27.4339 39.4679 27.4046 39.5096 27.381C39.5219 27.381 39.5276 27.3754 39.5377 27.3754C39.5793 27.3517 39.6322 27.3349 39.6851 27.3112C39.7379 27.2876 39.7897 27.2708 39.8324 27.2471C39.8426 27.2471 39.8493 27.2415 39.8606 27.2415C39.9022 27.2291 39.9494 27.2066 39.9899 27.201C39.9956 27.201 40.0203 27.1886 40.0316 27.1886C40.0844 27.1763 40.1249 27.165 40.1767 27.1582H40.1823L40.3409 27.1234C40.3511 27.1234 40.3691 27.1234 40.3815 27.111C40.422 27.111 40.4636 27.0986 40.5108 27.0986H40.557C40.6098 27.0986 40.6616 27.093 40.7268 27.093H40.8618C40.9035 27.093 40.9383 27.093 40.9788 27.0986H40.9968C41.0789 27.111 41.1667 27.1222 41.2488 27.147C42.4672 27.4046 43.3413 28.4824 43.3413 29.73H43.3425ZM27.0648 14.0869H43.4595L39.6975 25.1839C39.5388 25.2142 39.3869 25.266 39.2283 25.3189L35.2683 17.2448L31.2948 25.2671C31.1429 25.2188 30.972 25.185 30.8032 25.1558L27.0648 14.0869ZM34.518 28.8221C34.3245 27.8603 33.8328 26.9816 33.1106 26.3201L35.2672 21.9675L37.4463 26.4135C36.7949 27.0581 36.3269 27.885 36.1402 28.8221H34.518ZM29.2968 27.1751C29.3429 27.1628 29.3913 27.1526 29.4442 27.147H29.4723C29.5139 27.1346 29.5545 27.1346 29.595 27.1234H29.6366C29.6771 27.1234 29.7131 27.111 29.7536 27.111H30.1574C30.1991 27.111 30.234 27.1234 30.2643 27.1234C30.2868 27.1234 30.2924 27.1234 30.3172 27.1358C30.3577 27.1481 30.3881 27.1481 30.4286 27.1538C30.441 27.1538 30.4522 27.1538 30.4747 27.1639L30.6153 27.1942H30.6277C30.6682 27.2066 30.7166 27.2179 30.7571 27.2404C30.7627 27.2404 30.7751 27.246 30.7976 27.246C30.8279 27.2584 30.8685 27.2696 30.9045 27.2865C30.909 27.2865 30.9213 27.2989 30.9326 27.2989C30.9731 27.3225 31.0147 27.3349 31.0552 27.3517H31.0676C31.1137 27.3697 31.1609 27.3934 31.2026 27.4282H31.2149C31.2554 27.4462 31.2959 27.4744 31.3376 27.4991C31.3477 27.4991 31.3477 27.5115 31.3601 27.5115C31.4017 27.5295 31.431 27.5644 31.4715 27.5824L31.4838 27.5948C31.6064 27.6881 31.7235 27.7928 31.8427 27.8996L31.8472 27.9052C32.3163 28.3969 32.5751 29.0471 32.5683 29.7199C32.457 33.1073 27.4293 33.1073 27.3179 29.7199C27.3123 28.5195 28.1325 27.4699 29.298 27.1774L29.2968 27.1751ZM19.0368 27.0986C20.4847 27.0986 21.6615 28.2821 21.6615 29.73C21.6615 31.1779 20.4836 32.3546 19.0368 32.3546C17.5912 32.3546 16.4122 31.1768 16.4122 29.73C16.4122 28.2833 17.5912 27.0986 19.0368 27.0986ZM43.2828 36.1414C43.0432 37.488 42.2118 38.6602 41.0227 39.3409C39.8853 39.9967 38.4847 40.2082 37.0211 40.4119C36.1942 40.5187 35.3684 40.6639 34.5596 40.8517C32.3917 41.3861 30.3059 42.4223 28.2832 43.4246C25.7002 44.7083 23.2623 45.9142 21.0011 45.9142C19.8412 45.9199 18.7106 45.5632 17.7667 44.8837C15.4751 43.3009 15.5876 40.3309 15.8621 38.7019C16.1084 37.1775 16.8059 35.7544 17.4731 34.3898C17.5214 34.3076 17.5496 34.2311 17.5912 34.1501C17.8196 34.2311 18.0592 34.2953 18.3112 34.338C17.9118 36.5464 19.0368 38.8324 21.2283 39.9574L21.6209 40.161L22.0484 40.0091C23.8709 39.3577 25.5641 38.3092 27.0524 36.9041C27.8793 36.1357 28.6049 35.2695 29.2203 34.3256C29.4622 34.3661 29.7018 34.3785 29.9414 34.3785C32.0621 34.3729 33.9138 32.943 34.4538 30.8865H36.2055C36.7376 32.943 38.595 34.3785 40.7178 34.3785C41.5852 34.3785 42.3873 34.1389 43.0725 33.7339C43.3425 34.5135 43.4291 35.3269 43.2828 36.1414Z" fill="white"/>
</g>
<defs>
<filter id="filter0_b_2970_244" x="-10" y="-10" width="80" height="80" filterUnits="userSpaceOnUse" color-interpolation-filters="sRGB">
<feFlood flood-opacity="0" result="BackgroundImageFix"/>
<feGaussianBlur in="BackgroundImageFix" stdDeviation="5"/>
<feComposite in2="SourceAlpha" operator="in" result="effect1_backgroundBlur_2970_244"/>
<feBlend mode="normal" in="SourceGraphic" in2="effect1_backgroundBlur_2970_244" result="shape"/>
</filter>
<clipPath id="clip0_2970_244">
<rect width="36" height="36" fill="white" transform="translate(12 12)"/>
</clipPath>
</defs>
</svg>
