<svg width="60" height="60" viewBox="0 0 60 60" fill="none" xmlns="http://www.w3.org/2000/svg">
<g filter="url(#filter0_b_3037_357)">
<circle cx="30" cy="30" r="30" fill="white" fill-opacity="0.1"/>
</g>
<path d="M45.3499 46.7137C45.5238 46.6305 45.6706 46.5045 45.7905 46.3355C45.7976 46.3255 45.8068 46.3172 45.8174 46.3109C45.828 46.3046 45.8398 46.3006 45.852 46.299C45.9622 46.285 46.0315 46.224 46.0602 46.116C46.0639 46.1022 46.0729 46.0904 46.0852 46.0828C46.0975 46.0753 46.1123 46.0727 46.1266 46.0755C46.2173 46.0944 46.2553 46.0488 46.2407 45.9387C46.237 45.9101 46.2483 45.8901 46.2748 45.8788L46.431 45.8099C46.441 45.8059 46.45 45.7997 46.4576 45.7919C46.4651 45.7841 46.4709 45.7748 46.4748 45.7646C46.5339 45.6131 46.7436 45.4471 46.7428 45.2908C47.2978 44.6964 47.6722 44.2745 47.8661 44.0251C50.8583 40.1695 52.6901 35.3762 52.6812 30.4558C52.6772 28.5616 52.5873 27.0424 52.2666 25.4041C51.8463 23.2557 51.0584 21.0254 49.9886 19.1118C49.5211 18.275 49.0122 17.4631 48.4621 16.6759C48.0369 16.0677 47.6158 15.5762 47.0757 14.9348C46.4527 14.1946 45.7756 13.5041 45.0446 12.8633C45.0581 12.7845 45.0044 12.7526 44.8835 12.7677C42.1827 10.3545 38.6713 8.59392 35.2086 7.7833C34.646 7.65156 33.942 7.5255 33.0966 7.40511C31.285 7.14678 29.3269 7.22938 27.5023 7.32332C26.9679 7.35166 26.4301 7.46828 25.8932 7.53468C25.5839 7.57355 25.1984 7.68207 24.9781 7.73147C23.217 8.12828 21.5259 8.727 19.9046 9.52764C19.7394 9.60944 19.0462 9.88801 18.9693 10.0038C18.9542 10.0265 18.9347 10.044 18.911 10.0565C17.8436 10.6258 16.9026 11.2809 15.9268 12.0397C14.7874 12.9256 13.7524 13.9833 12.7839 15.0482L12.3385 15.4879C12.3201 15.5063 12.3074 15.5282 12.3004 15.5535L12.2559 15.7187C9.65232 18.9094 8.0173 22.8159 7.4731 26.8934C7.40103 27.4319 7.34839 28.3332 7.24068 29.1455C7.19938 29.4637 7.23178 29.816 7.22449 30.0841C7.21585 30.4183 7.22504 30.7511 7.25203 31.0826C7.2353 31.2478 7.25282 31.3976 7.30465 31.5321C7.36944 32.0601 7.42424 32.5908 7.46905 33.1242C7.4982 33.4691 7.61643 33.8174 7.66178 34.1802C7.73062 34.7373 7.85533 35.2726 7.993 35.7949C8.3234 37.055 8.75909 38.2781 9.30004 39.4642C9.80942 40.581 10.4808 41.7957 11.4841 43.2477C11.4939 43.3994 11.5667 43.5171 11.7028 43.6008V43.6842C11.7028 43.7058 11.713 43.715 11.7336 43.7117C11.8561 43.695 11.9198 43.7544 11.9247 43.8899C11.9263 43.9233 11.9436 43.9412 11.9765 43.9433C12.0812 43.9514 12.1379 44.007 12.1466 44.1101C12.1479 44.1246 12.1523 44.1385 12.1596 44.1508C12.1669 44.1631 12.1768 44.1736 12.1887 44.1814L12.2648 44.2316C12.288 44.2473 12.3064 44.2673 12.3199 44.2915C12.4268 44.4913 12.5401 44.6565 12.66 44.7872C13.1956 45.3708 13.7908 45.9797 14.4456 46.6141C15.5713 47.7049 16.7795 48.5722 18.1384 49.4088C20.8586 51.0843 23.9715 52.146 27.1315 52.5323C28.8215 52.7388 30.6145 52.6886 32.3159 52.6578C32.3434 52.6572 32.3594 52.6705 32.3637 52.6975L32.3775 52.7946C32.3834 52.8319 32.3675 52.8511 32.3297 52.8521C30.8121 52.8899 29.2947 52.8861 27.7777 52.8408C27.5175 52.8332 27.2275 52.7992 26.9079 52.7388C26.3961 52.6408 25.8341 52.5857 25.3725 52.4901C23.9888 52.2035 22.6386 51.8048 21.3218 51.294C20.5428 50.992 19.5742 50.5101 18.9337 50.1773C17.6952 49.5327 16.4529 48.6808 15.2069 47.6215C15.093 47.4115 14.911 47.252 14.6611 47.1429C13.9112 46.5639 13.3646 45.9055 12.7734 45.3208C12.7005 45.2485 12.6457 45.1794 12.609 45.1135C12.6003 44.9764 12.5334 44.8962 12.4081 44.873C12.4125 44.7402 12.3568 44.6689 12.2413 44.6592C12.2084 44.6565 12.1873 44.6392 12.1781 44.6074L12.1425 44.481C12.1333 44.4492 12.112 44.4322 12.0785 44.43C11.9652 44.423 11.9131 44.3552 11.9222 44.2267C11.9244 44.1992 11.912 44.1822 11.885 44.1757C11.7954 44.1552 11.7333 44.0958 11.6988 43.9976C11.6988 43.8156 11.6359 43.7152 11.5101 43.6963C9.5827 41.1592 8.3299 38.2867 7.59864 35.1916C7.57002 35.0723 7.52359 34.8156 7.45935 34.4215C7.40185 34.0716 7.29415 33.7396 7.26742 33.3946C7.20183 32.5281 7.01152 31.6592 7.00342 30.8137C6.9937 29.8063 6.99532 28.8791 7.13947 27.8368C7.23017 27.1817 7.25851 26.4942 7.37999 25.8827C8.01812 22.6605 9.17454 19.5872 11.0792 16.8986C11.2793 16.6152 11.4631 16.3091 11.6664 16.0459C12.6325 14.7923 13.3589 13.9031 14.4878 12.9151C15.6318 11.9136 16.8476 11.0099 18.1352 10.2039C18.2189 10.1515 18.3079 10.1134 18.4024 10.0897C18.4294 10.0828 18.4541 10.0685 18.4737 10.0484C18.5898 9.93067 18.7299 9.85833 18.894 9.83134C18.9183 9.82756 18.9339 9.81379 18.941 9.79004C18.9523 9.75332 18.9679 9.72984 18.9879 9.71958C20.3781 8.99182 21.8201 8.3904 23.314 7.91531C23.565 7.83594 23.9796 7.75982 24.306 7.64726C24.617 7.54117 24.932 7.52092 25.2462 7.43265C25.7037 7.30551 26.1475 7.2966 26.6051 7.21238C26.9279 7.153 27.1995 7.11574 27.4198 7.10063C29.3406 6.96539 30.6623 6.9662 32.7152 7.10468C32.9443 7.12006 33.1573 7.20024 33.3824 7.22777C34.0449 7.30875 34.7008 7.42671 35.3503 7.58166C38.8914 8.42819 41.9949 9.97332 44.6608 12.2171C45.584 12.9945 46.5714 13.9841 47.6231 15.1859C47.8831 15.4839 48.1543 15.8799 48.3722 16.1406C48.7447 16.5871 49.0837 17.0579 49.3893 17.553C50.5101 19.3686 51.5005 21.4846 52.0868 23.6493C52.1678 23.9497 52.3128 24.3044 52.35 24.6543C52.3694 24.8405 52.4553 24.9976 52.4804 25.1523C52.6019 25.92 52.7493 26.6375 52.8189 27.4473C52.8432 27.7281 52.8791 28.0698 52.9266 28.4725C53.0861 29.8177 52.9606 31.17 52.7881 32.8043C52.7144 33.5072 52.5905 34.2806 52.4269 34.9697C52.3557 35.2693 52.2982 35.6556 52.1783 35.9763C52.0965 36.1925 52.0771 36.4339 51.988 36.6606C51.8463 37.0177 51.7532 37.3595 51.6066 37.7636C50.5598 40.646 49.0627 43.1578 47.1153 45.299C46.8724 45.5662 46.302 46.1428 45.4042 47.0287C44.8454 47.5794 44.2089 48.0232 43.5878 48.5099C43.4917 48.5849 43.391 48.6368 43.2857 48.6654C43.2638 48.6705 43.2408 48.6676 43.2209 48.6569C43.2011 48.6463 43.1858 48.6289 43.1779 48.6078C43.1701 48.5867 43.1702 48.5634 43.1783 48.5424C43.1863 48.5214 43.2018 48.5041 43.2217 48.4937C43.3038 48.4543 43.3896 48.3976 43.4793 48.3236C44.1169 47.7972 44.7404 47.2606 45.3499 46.7137Z" fill="white"/>
<path d="M36.6079 10.697C36.541 10.8347 36.466 10.9116 36.3828 10.9278C35.2685 10.4921 34.2141 10.2362 33.1452 10.1107C32.5888 10.0459 32.0284 9.90825 31.4923 9.88801C30.1869 9.83888 29.1517 9.83915 28.3867 9.88882C27.2745 9.96062 26.0131 10.1911 24.6024 10.5804C23.7327 10.8201 23.0289 11.0676 22.4912 11.323C22.2191 11.4526 22.0075 11.5322 21.8563 11.5619C21.8282 11.5673 21.811 11.5838 21.8045 11.6113C21.7991 11.6318 21.7875 11.6515 21.7697 11.6704C21.7513 11.6904 21.7289 11.7028 21.7024 11.7077L21.3696 11.7627C21.3388 11.7681 21.3205 11.786 21.3145 11.8162L21.2983 11.898C21.2935 11.9239 21.2781 11.939 21.2522 11.9433L20.9679 11.9871C20.9382 11.9919 20.914 12.0065 20.8951 12.0308C20.8254 12.122 20.7382 12.1882 20.6335 12.2292C20.0253 12.4673 19.3977 12.9086 18.8592 13.2803C15.885 15.3297 13.5962 17.9743 11.9927 21.2141C11.9409 21.3194 11.9053 21.4749 11.8299 21.5818C11.7484 21.6968 11.6977 21.7796 11.6777 21.8304C11.3646 22.6235 11.0693 23.423 10.7918 24.2291C10.6768 24.5611 10.5496 25.0008 10.4946 25.3345C10.3496 26.2026 10.1172 27.0392 10.0532 27.921C10.0041 28.6008 9.98086 29.2823 9.98356 29.9658C9.98356 29.9934 9.99544 30.0139 10.0192 30.0274C10.6792 30.4015 11.4364 30.7918 12.1725 30.8404C12.7998 30.8815 13.3996 30.7611 13.9719 30.4793C14.4894 30.2242 15.0004 29.9213 15.5503 29.8735C15.9233 29.8406 16.2972 29.8344 16.6719 29.8549C17.3319 29.8913 17.8145 30.1472 18.4049 30.4566C19.6204 31.0947 20.8295 30.8882 22.0248 30.2185C22.8435 29.7601 24.3279 29.6848 25.1758 30.08C25.9086 30.4218 26.5508 30.7935 27.4149 30.8315C27.4343 30.9805 27.6222 30.9425 27.602 31.0599C27.1603 31.0966 26.767 31.0583 26.4221 30.9449C25.7369 30.719 25.0251 30.1869 24.2428 30.0873C23.3537 29.9745 22.532 30.1616 21.7777 30.6485C21.6376 30.7392 21.4967 30.7595 21.3477 30.8315C20.7412 31.1247 19.8755 31.1247 19.2284 31.0219C18.3052 30.8745 17.5958 30.174 16.6427 30.0792C15.801 29.9955 15.0209 30.1707 14.3023 30.6048C13.448 31.1223 12.2624 31.1862 11.3602 30.9619C10.9472 30.8593 10.5132 30.6283 10.0581 30.2687C10.0246 30.2423 10.0062 30.2506 10.003 30.2938C9.97383 30.6636 9.98166 31.0332 10.0265 31.4025C10.0303 31.4305 10.0454 31.4489 10.0718 31.4575C10.2176 31.505 10.3825 31.5822 10.5666 31.6891C11.8208 32.4147 13.0638 32.4139 14.2958 31.6867C14.6028 31.5053 14.9866 31.328 15.3389 31.2826C15.8717 31.214 16.4051 31.2089 16.9391 31.2672C17.71 31.3506 18.4243 31.9118 19.0948 32.0965C19.7378 32.2741 20.38 32.2622 21.0214 32.0608C21.5866 31.8835 22.1859 31.417 22.7835 31.2923C23.5618 31.1304 24.7603 31.1749 25.5491 31.6519C25.69 31.7369 25.8333 31.7685 25.9823 31.8454C27.2052 32.482 28.4126 32.2609 29.5633 31.5895C29.7488 31.481 30.1213 31.3304 30.3189 31.294C31.1522 31.1425 32.111 31.1587 32.8771 31.5563C33.9113 32.0932 34.8733 32.4204 36.0395 32.0738C36.7497 31.8633 37.3052 31.3604 38.0632 31.268C39.0334 31.1498 39.8383 31.2194 40.6959 31.6875C41.7705 32.273 42.9699 32.4374 44.081 31.8778C44.6049 31.6138 45.0568 31.3377 45.6034 31.2656C46.1514 31.1927 46.6994 31.2008 47.2473 31.2899C47.4377 31.3207 48.062 31.4988 48.1657 31.6608C48.1802 31.6832 48.2028 31.6993 48.2288 31.7061C48.4686 31.7645 48.6678 31.9086 48.8726 31.9774C49.2678 32.1092 49.5273 32.1874 49.6509 32.2123C49.8496 32.2517 49.9594 32.1637 49.9805 31.9483C50.0064 31.6827 50.0204 31.4187 50.0226 31.1563C50.0228 31.135 50.0147 31.1145 50.0001 31.099C49.9854 31.0836 49.9653 31.0745 49.944 31.0737C49.2039 31.0389 48.7577 30.8874 47.9624 30.4558C47.2741 30.0825 46.2675 29.9075 45.4398 30.1796C45.0446 30.3092 44.6659 30.4763 44.3037 30.6809C43.5635 31.0972 42.7197 31.1409 41.8969 31.0316C41.1178 30.9287 40.4384 30.3845 39.7581 30.1983C38.754 29.9229 37.7962 30.0649 36.8849 30.6242C36.097 31.1077 34.9251 31.2024 34.1008 30.9984C33.5557 30.8631 32.9646 30.4404 32.4066 30.2347C31.7685 29.9999 30.8267 29.9877 30.1756 30.2355C29.7555 30.3959 29.3522 30.5926 28.9657 30.8259C28.7794 30.7789 28.8547 30.6753 28.9001 30.5765C29.2737 30.3443 29.6559 30.1524 30.0468 30.0007C30.5578 29.8031 31.5045 29.8047 31.924 29.8557C32.703 29.9505 33.2764 30.4178 33.993 30.6615C34.8585 30.9563 35.705 30.9007 36.5326 30.4947C36.9967 30.2663 37.5311 29.9505 38.0438 29.8857C38.9508 29.7715 39.7654 29.8031 40.5882 30.242C41.7033 30.8356 42.7723 31.1029 43.9603 30.54C44.5992 30.238 45.1515 29.9132 45.8051 29.8517C46.3989 29.7966 46.9026 29.8163 47.3162 29.9108C48.1179 30.093 49.0581 30.9385 49.9667 30.8324C49.9926 30.8297 50.0061 30.8154 50.0072 30.7895C50.1157 28.2806 49.795 26.0172 49.0095 23.625C48.9812 23.5367 48.9245 23.4663 48.8969 23.3699C48.8003 23.0336 48.6718 22.7029 48.5115 22.3779C48.5822 22.3196 48.6702 22.2785 48.7755 22.2548C49.2225 23.3275 49.5532 24.3474 49.7675 25.3143C49.8031 25.4752 49.8355 25.6077 49.8647 25.7119C49.9764 26.112 50.0072 26.5314 50.0809 26.9404C50.1408 27.2713 50.1794 27.5488 50.1967 27.7729C50.3417 29.6015 50.3595 31.5507 50.0437 33.3623C49.5464 36.2136 48.4402 39.0196 46.7736 41.4305C45.7954 42.8455 44.6624 44.1218 43.3748 45.2593C42.7909 45.7751 42.1018 46.2562 41.4434 46.7356C41.4196 46.7529 41.3951 46.7539 41.3697 46.7388C41.1187 46.5906 41.5268 46.2991 41.6126 46.1873C41.6353 46.1571 41.6283 46.1382 41.5916 46.1307L41.1567 46.0408C41.1313 46.0354 41.1097 46.023 41.0919 46.0035C40.8781 45.7711 39.9112 45.469 39.8869 45.2107C39.8859 45.2008 39.8875 45.1908 39.8915 45.1816C39.8955 45.1725 39.9019 45.1645 39.9099 45.1585C39.918 45.1525 39.9274 45.1487 39.9375 45.1473C39.9475 45.1459 39.9577 45.1471 39.9671 45.1508C40.3979 45.3176 40.8182 45.509 41.228 45.7249C41.4199 45.827 41.811 45.9452 42.0167 45.8586C42.4665 45.6696 42.8627 45.3789 43.2056 44.9864C43.2336 44.9545 43.2274 44.9321 43.1869 44.9192C43.0298 44.8665 42.8622 44.9305 42.7221 44.9289C42.2702 44.923 41.9201 44.883 41.6718 44.809C41.0919 44.6365 40.3558 44.1417 39.6893 43.9944C39.374 43.9247 39.0528 43.8899 38.7256 43.8899C38.5402 43.8899 38.4001 43.7854 38.4956 43.5935C38.5075 43.5692 38.527 43.5587 38.554 43.5619C38.8854 43.5965 39.2153 43.6405 39.5436 43.6939C40.4214 43.8356 41.1259 44.4098 41.9698 44.5871C42.7844 44.758 43.5643 44.6665 44.1822 44.0575C44.5633 43.6823 44.9442 43.2812 45.3248 42.8541C45.3318 42.8464 45.3365 42.8369 45.3382 42.8266C45.3399 42.8164 45.3386 42.8059 45.3345 42.7963C45.3304 42.7868 45.3237 42.7786 45.3151 42.7727C45.3065 42.7669 45.2964 42.7637 45.286 42.7634C44.9782 42.7537 44.6648 42.9554 44.3968 43.0849C43.3478 43.593 42.2926 43.6572 41.2312 43.2777C41.1378 43.2442 40.9067 43.1306 40.538 42.9367C39.7768 42.5372 38.9575 42.4104 38.0802 42.5561C37.8624 42.5926 37.6891 42.7165 37.4583 42.7399C37.4358 42.7423 37.4132 42.7375 37.3937 42.7262C37.3742 42.7149 37.3588 42.6976 37.3498 42.6769C37.3408 42.6562 37.3386 42.6332 37.3435 42.6112C37.3484 42.5892 37.3603 42.5693 37.3773 42.5545C37.482 42.4627 37.6051 42.4017 37.7466 42.3715C38.6706 42.1747 39.7986 42.1917 40.6352 42.6873C41.3435 43.1079 42.1012 43.2928 42.9083 43.242C43.4485 43.2088 44.0024 42.9602 44.5053 42.7294C44.5474 42.7105 44.582 42.683 44.609 42.6468C44.6252 42.6252 44.646 42.6096 44.6713 42.5999C44.951 42.4897 45.2352 42.3936 45.5241 42.3116C45.963 42.1868 46.3104 41.6613 46.5307 41.2685C46.5787 41.1832 46.5539 41.1373 46.4562 41.1308C46.2796 41.1184 46.0885 41.1211 45.8828 41.1389C45.567 41.1665 45.2673 41.3333 44.9305 41.3932C44.9035 41.3981 44.8797 41.4097 44.8592 41.428C44.7393 41.5339 44.6003 41.6032 44.4421 41.6362C44.4133 41.6419 44.3871 41.657 44.3676 41.6791C44.2599 41.8022 43.6858 42.0103 43.4906 42.0435C42.3731 42.2322 41.4912 42.0751 40.5121 41.5528C40.2319 41.4029 39.9768 41.3171 39.6877 41.2078C39.3678 41.0855 38.9751 41.1227 38.6382 41.1227C37.9344 41.1227 37.2963 41.4191 36.6833 41.7698C36.5964 41.8195 36.5105 41.8127 36.4258 41.7495C36.4036 41.7328 36.4007 41.7134 36.4168 41.6912C36.6614 41.3592 37.7077 40.9681 38.1134 40.9187C39.0488 40.8053 39.8529 40.8709 40.6919 41.3365C41.4734 41.7698 42.2297 41.9641 43.1165 41.8483C43.4185 41.8087 43.7068 41.6661 44.0202 41.586C44.0478 41.5789 44.0702 41.5638 44.0874 41.5406C44.1722 41.4251 44.2902 41.3646 44.4413 41.3592C44.4685 41.3581 44.4944 41.3475 44.5142 41.3292C44.7013 41.1551 44.9499 41.1276 45.1515 41.0385C45.601 40.8409 46.3031 40.8798 46.7955 40.8579C46.8108 40.8572 46.8258 40.8526 46.839 40.8445C46.8521 40.8365 46.8631 40.8252 46.8708 40.8118L47.3502 39.9639C47.3578 39.9506 47.3599 39.9347 47.356 39.9198C47.3521 39.9048 47.3424 39.8919 47.3291 39.8837C46.8967 39.623 45.9994 39.7226 45.5346 39.8327C44.8317 39.9979 44.1676 40.5421 43.4339 40.6628C42.9043 40.7502 42.3744 40.7543 41.8442 40.6749C41.2822 40.5915 40.8077 40.3073 40.244 40.04C39.3775 39.6278 38.4965 39.6278 37.5895 39.9598C36.855 40.2279 36.263 40.7284 35.4402 40.6765C35.4198 40.6758 35.4003 40.6675 35.3856 40.6534C35.3708 40.6392 35.3618 40.6201 35.3602 40.5997C35.3586 40.5793 35.3645 40.559 35.3769 40.5427C35.3892 40.5265 35.4072 40.5153 35.4272 40.5113C35.6508 40.4611 35.8694 40.4417 36.0743 40.3575C36.6655 40.1137 37.3967 39.6327 38.013 39.5436C38.4822 39.4767 38.951 39.4686 39.4196 39.5193C40.0942 39.5922 40.8441 40.0109 41.4596 40.3C42.0192 40.5632 42.9853 40.5202 43.5044 40.3915C44.1765 40.2247 44.8122 39.6311 45.6617 39.5323C46.2815 39.4594 46.9005 39.4799 47.5186 39.5938C47.5308 39.5959 47.5432 39.5942 47.5542 39.589C47.5652 39.5838 47.5743 39.5753 47.5802 39.5647C47.7462 39.2674 47.9657 38.9484 47.9398 38.7208C47.9385 38.7084 47.9344 38.6964 47.9278 38.6856C47.9213 38.6748 47.9123 38.6655 47.9017 38.6585C47.8428 38.6207 47.781 38.5942 47.7162 38.5791C47.2862 38.4779 46.8271 38.3451 46.41 38.3451C45.4682 38.3443 44.7863 38.7346 43.9627 39.1103C43.408 39.363 42.6322 39.4213 41.9933 39.3039C41.7236 39.2545 41.4523 39.2342 41.2029 39.1144C40.6886 38.869 40.1323 38.5726 39.6213 38.4503C38.5386 38.1912 37.6745 38.4698 36.7149 38.9662C35.9301 39.3719 35.0717 39.4448 34.2125 39.2602C34.0254 39.2197 33.9194 39.1403 33.8408 38.9759C33.8341 38.9622 33.8322 38.9466 33.8354 38.9316C33.8387 38.9167 33.8468 38.9033 33.8586 38.8936C33.8704 38.8838 33.8851 38.8784 33.9004 38.878C33.9157 38.8777 33.9306 38.8825 33.9428 38.8917C34.3162 39.1638 35.2394 39.0925 35.6848 39.0447C36.3674 38.9719 36.9716 38.5159 37.6097 38.2884C37.8178 38.2139 37.9766 38.1426 38.2017 38.1191C38.7864 38.0576 39.2598 38.0684 39.6221 38.1515C40.4805 38.3491 41.2085 39.0067 42.1439 39.0577C42.7294 39.0893 43.2987 39.0998 43.8534 38.8731C44.2688 38.703 44.6559 38.4714 45.0746 38.3232C45.2552 38.2592 45.4026 38.175 45.588 38.1459C46.4545 38.0125 47.2884 38.1226 48.0896 38.4763C48.1187 38.4892 48.1417 38.4819 48.1584 38.4544C48.3042 38.2087 48.4008 37.9447 48.4483 37.6624C48.4537 37.6316 48.4432 37.6079 48.4167 37.5911C47.4525 36.9751 46.3976 36.8248 45.252 37.1401C45.1397 37.1708 45.0563 37.2129 45.0017 37.2664C44.9827 37.2849 44.9588 37.2978 44.9329 37.3036C44.8125 37.3306 44.6829 37.3835 44.5442 37.4624C43.3732 38.1324 42.1809 38.1882 40.9672 37.63C40.9656 37.6295 40.8144 37.5496 40.5137 37.3903C39.7671 36.994 38.9829 36.8731 38.1612 37.0275C37.2825 37.1927 36.5788 37.8033 35.6823 37.958C34.8685 38.0981 33.9566 37.9191 33.2407 37.5458C32.818 37.3255 32.4989 37.1384 32.056 37.051C31.5506 36.9522 31.0464 36.9497 30.5432 37.0437C29.8355 37.1765 29.2354 37.6519 28.5244 37.8608C27.423 38.1831 26.4277 37.9361 25.4325 37.4041C24.7328 37.0299 23.9999 36.8963 23.2338 37.0032C22.9466 37.0431 22.5992 37.1549 22.1916 37.3385C21.7446 37.5401 21.2894 37.7992 20.84 37.9037C19.8801 38.1278 18.9804 38.0006 18.1409 37.5223C17.2884 37.0364 16.4114 36.875 15.5098 37.038C15.066 37.1182 14.589 37.3474 14.1784 37.5636C13.4026 37.9734 12.5736 38.0983 11.6915 37.9385C11.6575 37.9326 11.641 37.9466 11.6421 37.9806C11.6453 38.1351 11.7012 38.2673 11.8097 38.3775C11.8272 38.3949 11.8398 38.417 11.8461 38.4414C11.9055 38.6676 12.0127 38.869 12.1676 39.0456C12.1871 39.0677 12.2114 39.0788 12.2405 39.0788C12.7604 39.0796 13.2544 39.069 13.7427 38.852C14.3679 38.5742 14.8668 38.273 15.4717 38.1572C16.3107 37.9974 17.067 38.0821 17.7408 38.4115C18.1549 38.6134 18.5004 38.7718 18.7774 38.8868C19.4301 39.1573 20.3152 39.0933 21.0011 39.0002C21.0271 38.9966 21.0506 38.9829 21.0667 38.9621C21.1029 38.9173 21.1388 38.8885 21.1744 38.8755C21.6393 38.7062 22.1478 38.4155 22.5204 38.2851C23.1866 38.053 23.8512 38.0103 24.5141 38.1572C25.1523 38.2989 25.7807 38.7127 26.452 38.9419C27.0724 39.1533 27.8757 39.0852 28.5163 39.0043C28.5438 39.0005 28.5678 38.9891 28.5883 38.9702C28.6434 38.9168 28.6807 38.8812 28.7568 38.8561C29.3722 38.6528 29.9658 38.2042 30.6121 38.1337C31.3093 38.0584 32.4779 38.0422 33.0148 38.5969C33.0255 38.6079 33.0327 38.6218 33.0355 38.6368C33.0384 38.6518 33.0367 38.6674 33.0307 38.6815C33.0247 38.6956 33.0147 38.7076 33.002 38.716C32.9892 38.7245 32.9742 38.729 32.9589 38.7289C32.7532 38.7305 32.5791 38.5864 32.418 38.5338C31.8341 38.3451 31.213 38.2592 30.6121 38.4252C30.3926 38.486 30.1569 38.5095 29.9545 38.605C29.42 38.8585 28.8629 39.1759 28.3122 39.282C27.5493 39.4289 26.8046 39.3665 26.0779 39.095C26.0574 39.0874 25.8115 38.9673 25.3402 38.7346C24.553 38.3459 23.731 38.2546 22.8743 38.4609C22.2053 38.6212 21.5858 39.1047 20.8878 39.2594C19.8847 39.4823 18.9515 39.3595 18.0882 38.8909C16.7472 38.1637 15.5543 38.1718 14.2481 38.8998C13.6731 39.2205 13.0665 39.3757 12.4284 39.3654C12.4109 39.3652 12.3935 39.3696 12.3783 39.3782C12.363 39.3868 12.3503 39.3994 12.3414 39.4146C12.3326 39.4297 12.328 39.447 12.328 39.4645C12.3281 39.4821 12.3328 39.4993 12.3418 39.5144L12.8746 40.4125C12.8934 40.4441 12.9225 40.4684 12.9569 40.4812C12.9914 40.494 13.0292 40.4946 13.0641 40.483C13.6089 40.2983 14.1304 40.0797 14.6287 39.827C15.5154 39.3776 16.7852 39.346 17.6825 39.7914C18.2186 40.0578 18.9118 40.4247 19.5095 40.4684C20.3517 40.5316 20.9526 40.4457 21.7065 40.0384C22.1746 39.7857 22.6305 39.5736 23.165 39.512C23.7097 39.4494 24.2018 39.4672 24.6413 39.5655C25.3596 39.7266 26.0747 40.3599 26.8213 40.4465C27.5437 40.5308 28.4142 40.5186 29.0742 40.1291C29.3663 39.9569 29.67 39.8106 29.9853 39.6902C30.6161 39.4497 31.319 39.4731 31.9831 39.5387C32.2625 39.5671 32.5184 39.7088 32.8099 39.7663C32.8342 39.7712 32.8482 39.7855 32.852 39.8092L32.8836 40.0076C32.8879 40.0362 32.8763 40.0465 32.8488 40.0384C32.4333 39.9226 31.9993 39.7631 31.5895 39.7347C31.3358 39.7174 31.082 39.7212 30.8283 39.7461C30.5821 39.7695 30.3294 39.8829 30.0727 39.9404C29.9383 39.9704 29.3512 40.2303 29.2832 40.3283C29.2675 40.3513 29.2441 40.3674 29.2176 40.3737C28.9779 40.4303 28.7762 40.5785 28.5584 40.6231C27.9985 40.7392 27.4368 40.7629 26.8731 40.6943C26.5924 40.6603 26.3022 40.5761 26.0026 40.4417C25.6333 40.2757 25.2373 40.0416 24.9012 39.9242C23.9726 39.5997 23.0565 39.6629 22.1527 40.1137C21.9276 40.2255 21.7016 40.3361 21.4749 40.4457C20.4942 40.9203 18.9944 40.8037 18.0615 40.2489C17.1259 39.6923 16.1425 39.5763 15.1113 39.9007C14.4141 40.1202 13.8699 40.5494 13.1346 40.7081C13.1274 40.7097 13.1208 40.713 13.1152 40.7177C13.1096 40.7224 13.1052 40.7284 13.1024 40.7351C13.0996 40.7419 13.0985 40.7492 13.0992 40.7565C13.0999 40.7638 13.1023 40.7708 13.1062 40.777L13.6585 41.6127C13.6658 41.6237 13.6752 41.6331 13.6862 41.6405C13.6972 41.6478 13.7096 41.6529 13.7226 41.6555C13.7356 41.658 13.749 41.658 13.7621 41.6554C13.7751 41.6528 13.7875 41.6476 13.7986 41.6402C14.1711 41.3859 14.5777 41.2256 14.9996 41.0401C15.526 40.8085 16.4038 40.866 16.9682 40.9268C17.5432 40.9891 18.0558 41.3203 18.5693 41.5641C19.2652 41.894 19.9929 41.9752 20.7525 41.8079C20.9501 41.7649 21.4506 41.603 21.5866 41.4621C21.6057 41.4429 21.6294 41.429 21.6555 41.4216C21.8952 41.3535 22.0628 41.2175 22.3066 41.1389C22.4864 41.0806 22.5989 40.9689 22.7844 40.947C23.6841 40.8377 24.5514 40.815 25.3879 41.2191C25.6077 41.3249 25.8282 41.4305 26.0496 41.5358C27.0186 41.9963 28.0009 42.0011 28.9965 41.5503C29.0332 41.5341 29.061 41.5163 29.0799 41.4969C29.0988 41.478 29.1204 41.4626 29.1447 41.4507C29.6006 41.2353 30.0995 40.9584 30.6056 40.9171C31.3288 40.8571 32.1434 40.8304 32.8091 41.1746C32.8326 41.1873 32.8507 41.2081 32.86 41.2331C32.8693 41.2582 32.8692 41.2857 32.8597 41.3107C32.8502 41.3357 32.8319 41.3563 32.8083 41.3688C32.7847 41.3813 32.7574 41.3848 32.7314 41.3786C32.3937 41.2904 32.0762 41.1495 31.728 41.13C30.8064 41.0774 30.0428 41.181 29.2661 41.7123C29.1447 41.7949 29.0111 41.8054 28.8904 41.8686C28.0652 42.3026 26.5233 42.1577 25.7281 41.6985C25.1847 41.3851 24.5781 41.1187 23.9384 41.126C23.6039 41.1292 23.2492 41.0976 22.9374 41.177C22.5654 41.272 22.2161 41.4199 21.8895 41.6208C20.9558 42.1941 19.6301 42.2719 18.6033 41.8848C18.1401 41.7107 17.4209 41.2167 16.8079 41.1284C16.5482 41.0912 16.1922 41.0944 15.7398 41.1381C15.0822 41.2013 14.4943 41.5009 13.946 41.8419C13.9239 41.8559 13.9196 41.874 13.933 41.8961C14.0715 42.1326 14.295 42.7035 14.6441 42.5513C15.3397 42.2484 16.1341 42.2063 16.9018 42.3002C17.4404 42.3666 17.8777 42.6088 18.3538 42.8606C19.2584 43.3376 20.2788 43.4056 21.2206 43.0315C21.598 42.8817 22.2183 42.4508 22.7795 42.3472C23.7513 42.169 24.7555 42.2168 25.5871 42.7108C26.5565 43.2866 27.8514 43.4801 28.8677 42.9861C29.5261 42.6671 30.033 42.3545 30.7109 42.2865C31.3344 42.2233 32.2293 42.2322 32.7913 42.5488C32.8113 42.5599 32.8271 42.5773 32.8363 42.5982C32.8455 42.6191 32.8476 42.6424 32.8423 42.6647C32.837 42.687 32.8246 42.7071 32.8069 42.7218C32.7892 42.7365 32.7673 42.7452 32.7443 42.7464C32.706 42.748 32.6466 42.7354 32.5662 42.7084C31.7798 42.4444 30.6542 42.3788 29.8476 42.8039C29.2856 43.1011 28.6418 43.4299 28.0036 43.4769C27.6252 43.505 27.2465 43.499 26.8675 43.4591C26.6812 43.4396 25.9354 43.2647 25.8179 43.1262C25.8003 43.1054 25.7788 43.0883 25.7548 43.076C25.1766 42.7707 24.5967 42.5343 23.9343 42.5019C23.551 42.4824 23.2263 42.5024 22.9601 42.5618C22.4839 42.6679 21.9689 43.0226 21.4652 43.2105C21.2133 43.3044 20.9752 43.4226 20.7137 43.4575C19.8957 43.566 18.9531 43.5328 18.2105 43.0922C17.8828 42.8973 17.516 42.7348 17.11 42.6047C16.4062 42.3796 15.3486 42.5148 14.6927 42.8193C14.6646 42.8323 14.66 42.8509 14.6789 42.8752C14.9143 43.1813 15.1796 43.4596 15.4749 43.7101C15.4849 43.7184 15.4969 43.7238 15.5096 43.7256C15.5223 43.7275 15.5353 43.7258 15.547 43.7206C16.2013 43.4364 17.1553 43.6826 17.7797 43.9563C18.8341 44.4187 19.6115 44.852 20.81 44.5345C21.5073 44.3499 22.1446 43.8275 22.867 43.7117C23.2217 43.655 23.5545 43.5749 23.9116 43.6162C24.4016 43.6729 24.8316 43.7328 25.294 43.9555C26.4115 44.494 27.3671 44.9022 28.6248 44.4616C29.0588 44.3094 29.7229 43.8494 30.3189 43.7376C30.7254 43.6607 31.1101 43.5749 31.5239 43.6299C31.9377 43.685 32.4504 43.7125 32.7945 43.9765C32.8118 43.9898 32.8241 44.0085 32.8293 44.0296C32.8345 44.0507 32.8323 44.073 32.8232 44.0927C32.814 44.1124 32.7984 44.1284 32.7789 44.1381C32.7594 44.1478 32.7372 44.1505 32.716 44.1458C32.4844 44.0956 32.2617 43.983 32.0325 43.962C31.8009 43.9404 31.4626 43.9282 31.0178 43.9255C30.4776 43.9223 30.246 43.979 29.7342 44.2365C29.2119 44.4997 28.6612 44.7961 28.0895 44.8641C27.5299 44.9305 26.929 44.9256 26.3897 44.7289C25.6665 44.4649 25.0292 44.0065 24.2817 43.9328C23.6031 43.8656 22.9852 43.8826 22.4175 44.1207C21.9203 44.3296 21.3753 44.6738 20.9372 44.7945C20.5404 44.9041 20.0917 44.9367 19.5912 44.8924C18.9021 44.8317 18.2429 44.5102 17.6242 44.1895C17.0581 43.8972 16.3941 43.8907 15.7746 43.9272C15.7357 43.9056 15.6952 43.8961 15.6531 43.8988C15.6212 43.901 15.6166 43.9134 15.6393 43.9361L15.6984 43.9935C16.1187 44.4583 16.6014 44.9005 17.2007 45.1345C18.1352 45.4998 19.2536 46.146 20.2901 46.0075C20.7555 45.946 21.1982 45.8124 21.6182 45.6067C21.7697 45.533 21.9308 45.3799 22.164 45.3427C22.1895 45.3384 22.2133 45.3272 22.2329 45.3103C22.4046 45.158 22.5746 45.1718 22.7487 45.1265C23.7318 44.873 24.6291 44.975 25.5232 45.4407C26.0566 45.7182 26.5994 45.9055 27.1517 46.0027C27.6619 46.0926 28.0814 45.9403 28.5786 45.8375C28.8126 45.7897 29.0062 45.6504 29.2459 45.5832C29.2724 45.5756 29.2926 45.5602 29.3066 45.537C29.4119 45.3629 29.6743 45.4018 29.85 45.2512C29.87 45.2333 29.8932 45.2212 29.9197 45.2147C30.9206 44.9629 31.6081 44.9046 32.5815 45.218C32.6868 45.252 32.7613 45.3564 32.7459 45.4569C32.74 45.493 32.7195 45.506 32.6844 45.4957C31.8891 45.2684 31.0877 45.2317 30.28 45.3856C30.063 45.4277 29.9326 45.5751 29.6873 45.6026C29.661 45.6058 29.6362 45.6177 29.6168 45.6366C29.3633 45.8877 28.645 46.1266 28.4871 46.1654C27.484 46.4181 26.5473 46.2996 25.677 45.8099C25.3215 45.6099 24.945 45.4034 24.5716 45.354C23.9635 45.2722 23.0022 45.2301 22.4369 45.5022C22.2863 45.5743 22.1365 45.5986 21.9948 45.6852C20.6661 46.4929 19.3299 46.5026 17.9862 45.7144C17.859 45.6399 17.736 45.6261 17.5991 45.5743L17.4557 45.5394C17.4537 45.5386 17.4514 45.5381 17.4492 45.5382C17.447 45.5382 17.4447 45.5386 17.4427 45.5395C17.4385 45.5412 17.4352 45.5446 17.4335 45.5487C17.4318 45.5529 17.4318 45.5576 17.4335 45.5618C17.4353 45.566 17.4386 45.5693 17.4428 45.571L17.5286 45.6253C17.6914 45.7185 17.7934 45.8715 17.919 45.963C18.3142 46.2513 19.8965 47.5049 20.5096 47.3689C20.9477 47.2717 21.5461 47.1122 21.8919 46.8158C21.9118 46.799 21.9371 46.7898 21.9632 46.7899C22.103 46.7882 22.2164 46.7364 22.3033 46.6344C22.3222 46.6122 22.346 46.5987 22.3746 46.5939C22.718 46.5356 23.0581 46.3858 23.3731 46.3606C24.0145 46.3094 24.6326 46.4168 25.2276 46.683C25.7361 46.9105 26.282 47.1996 26.797 47.2968C27.3272 47.3961 27.8587 47.3937 28.3915 47.2895C28.6734 47.2344 28.939 47.0814 29.2313 46.9891C29.254 46.9815 29.2734 46.9686 29.2896 46.9502L29.39 46.8312C29.4057 46.8123 29.426 46.8031 29.4508 46.8036C29.6122 46.8069 29.745 46.7504 29.8492 46.6344C29.868 46.6135 29.8939 46.6 29.9221 46.5963C30.259 46.5485 30.574 46.3914 30.8744 46.3623C31.2124 46.3299 31.5482 46.342 31.8819 46.3987C32.0924 46.4343 32.3337 46.5412 32.5751 46.5793C32.5873 46.5813 32.5984 46.5877 32.6063 46.5974C32.6142 46.6071 32.6184 46.6193 32.618 46.6319L32.6131 46.7899C32.6129 46.7968 32.6112 46.8036 32.6081 46.8098C32.6049 46.8161 32.6004 46.8215 32.5949 46.8258C32.5894 46.83 32.5831 46.833 32.5763 46.8345C32.5695 46.836 32.5624 46.836 32.5556 46.8344C32.0317 46.7105 31.5272 46.6093 30.9846 46.6619C30.6752 46.6919 30.1594 46.721 29.9666 46.9235C29.9477 46.9434 29.9248 46.9553 29.8978 46.9591C29.7661 46.9785 29.6449 47.0215 29.5342 47.0879C28.7525 47.5532 27.9059 47.7425 26.9946 47.6555C26.3071 47.5891 25.69 47.1543 25.0519 46.8959C24.3894 46.6271 23.7173 46.6052 23.0273 46.7064C22.806 46.7394 22.5689 46.816 22.3163 46.9364C22.0501 47.0633 21.785 47.1931 21.521 47.326C21.2894 47.4426 21.04 47.4895 20.793 47.581C20.7277 47.6005 20.6756 47.6307 20.6367 47.6717C20.6173 47.6923 20.6205 47.7087 20.6464 47.7211L20.8003 47.7965C21.1493 47.96 21.5826 48.241 21.9826 48.1973C22.0096 48.1946 22.0318 48.1832 22.049 48.1633C22.2264 47.9649 23.0119 47.7859 23.2662 47.7551C23.7775 47.6936 24.2771 47.7346 24.7652 47.8782C25.1587 47.994 25.6778 48.2823 26.1402 48.4856C27.1622 48.935 28.5081 48.8079 29.4516 48.2151C29.8136 47.9875 30.4347 47.7964 30.8566 47.7543C31.4494 47.6949 32.0125 47.7667 32.5459 47.9697C32.5729 47.9793 32.5954 47.9987 32.6088 48.024C32.6223 48.0493 32.6258 48.0787 32.6187 48.1065C32.6116 48.1343 32.5944 48.1584 32.5705 48.1742C32.5465 48.1899 32.5175 48.1961 32.4892 48.1916C32.0689 48.1349 31.6308 47.9908 31.2235 48.0126C31.0032 48.0245 30.7851 48.052 30.5691 48.0952C29.8427 48.2394 29.2313 48.7002 28.5065 48.914C27.4829 49.2152 26.4463 49.0006 25.5126 48.4831C25.4732 48.4615 25.389 48.427 25.26 48.3795C25.1288 48.3317 25.064 48.2467 24.9304 48.2167C24.6156 48.1465 24.2998 48.0842 23.9829 48.0296C23.5545 47.9551 22.6313 48.1203 22.2458 48.3236C22.2393 48.3271 22.2338 48.3322 22.2299 48.3385C22.226 48.3448 22.2238 48.352 22.2236 48.3593C22.2233 48.3667 22.225 48.374 22.2285 48.3806C22.232 48.3871 22.2371 48.3926 22.2434 48.3965C22.8734 48.7844 23.7699 49.0273 24.4923 49.2176C25.085 49.3731 25.6511 49.557 26.2698 49.663C26.5856 49.7173 26.899 49.8072 27.2068 49.8355C27.7825 49.889 28.6855 50.0396 29.1422 49.7586C29.6098 49.4714 30.0282 49.2894 30.3975 49.2128C30.9336 49.1018 32.06 49.1002 32.5443 49.3561C32.5684 49.3687 32.5872 49.3894 32.5975 49.4145C32.6078 49.4396 32.6089 49.4676 32.6007 49.4935C32.5924 49.5194 32.5752 49.5417 32.5522 49.5564C32.5291 49.5711 32.5017 49.5773 32.4746 49.574C32.3912 49.5634 32.2997 49.5529 32.2082 49.5229C31.6616 49.3424 31.1862 49.3359 30.6072 49.4833C30.178 49.5934 29.8549 49.5764 29.484 49.9368C29.464 49.9562 29.4675 49.97 29.4945 49.9781C29.636 50.0202 29.7798 50.0396 29.9261 50.0364C30.5853 50.0218 31.2426 49.9735 31.898 49.8914C32.1062 49.8655 32.3183 49.8671 32.5135 49.8736C32.5363 49.8747 32.5579 49.8838 32.5746 49.8993C32.5912 49.9148 32.6019 49.9357 32.6046 49.9584C32.6073 49.981 32.6019 50.0038 32.5894 50.0228C32.5769 50.0419 32.558 50.0558 32.5362 50.0623C31.4251 50.3692 29.7763 50.3093 28.4782 50.2404C28.0109 50.2153 27.4951 50.0833 26.9889 50.0404C26.3476 49.987 25.6738 49.8372 25.0591 49.68C20.3136 48.4669 16.2815 45.6682 13.4172 41.6847C12.2672 40.0856 11.3783 38.3512 10.7504 36.4816C10.7483 36.4762 10.7035 36.362 10.616 36.1391C10.5496 35.9698 10.5156 35.7536 10.4735 35.6086C10.3866 35.3079 10.3048 35.0059 10.2281 34.7025C10.0994 34.1931 10.0224 33.5962 9.91472 33.0358C9.80134 32.4495 9.79 31.8584 9.73251 31.2672C9.63209 30.2274 9.65395 29.2176 9.78434 28.181C9.83616 27.7736 9.81268 27.355 9.89852 26.9646C10.0224 26.4018 10.1147 25.7791 10.2403 25.2737C11.0091 22.1743 12.3876 19.4268 14.376 17.0314C15.0751 16.1897 15.9147 15.3329 16.8945 14.461C17.3772 14.031 17.9295 13.6399 18.4623 13.2447C18.992 12.8527 19.5467 12.5018 20.1265 12.1919C20.1681 12.1698 20.2018 12.1387 20.2278 12.0988C20.2445 12.0734 20.2677 12.0586 20.2974 12.0543C20.4594 12.03 20.5968 11.9598 20.7096 11.8437C20.7323 11.8205 20.7598 11.8073 20.7922 11.804C20.9493 11.7878 21.0756 11.7179 21.1712 11.5943C21.1802 11.5825 21.1919 11.573 21.2052 11.5665C21.2186 11.56 21.2333 11.5568 21.2481 11.557C21.3923 11.5586 21.5067 11.5057 21.5915 11.3983C21.6093 11.3751 21.6328 11.3611 21.6619 11.3562C21.9689 11.3044 22.2653 11.1124 22.4855 11.029C22.8734 10.8833 23.301 10.6784 23.71 10.5901C23.8954 10.5504 24.0307 10.4613 24.1959 10.4144C24.5452 10.3167 25.0715 10.182 25.775 10.0103C26.1718 9.9131 26.5986 9.8799 26.9112 9.81835C28.4077 9.5252 30.1318 9.58836 31.6527 9.65477C32.4155 9.68797 33.1865 9.84021 33.9542 9.96493C34.6042 10.0702 35.4888 10.3143 36.6079 10.697ZM23.003 32.6382C23.5958 32.5305 24.1068 32.5605 24.7044 32.6941C25.1879 32.8026 25.6535 33.0942 26.12 33.3015C26.9357 33.6621 27.7531 33.7067 28.5721 33.4351C29.2896 33.197 29.8524 32.7427 30.6088 32.6285C31.0871 32.5567 31.5649 32.5632 32.0422 32.648C32.669 32.7589 33.3646 33.1735 33.9121 33.3946C34.696 33.7121 35.7163 33.6651 36.4897 33.2812C37.0201 33.0172 37.57 32.7233 38.1328 32.631C38.9524 32.4957 39.6869 32.5799 40.4343 32.946C41.0644 33.2537 41.7973 33.5987 42.4905 33.6165C43.0195 33.63 43.4949 33.5355 43.9165 33.3331C44.4786 33.0634 45.0624 32.7411 45.6479 32.6391C46.393 32.5103 47.1583 32.5484 47.8482 32.8836C48.3859 33.1438 48.9682 33.379 49.595 33.589C49.6819 33.6181 49.7316 33.5873 49.744 33.4966L49.863 32.6131C49.8776 32.5057 49.8309 32.4466 49.7229 32.4358C49.0346 32.3694 48.526 32.1556 47.9341 31.8211C47.1825 31.3968 45.9346 31.3028 45.1637 31.6616C44.721 31.8678 44.2764 32.0703 43.8299 32.269C43.2906 32.5087 42.5512 32.4682 41.9762 32.4155C41.1721 32.3418 40.4894 31.7685 39.7792 31.583C39.0763 31.4 38.2891 31.3944 37.6024 31.6713C37.0193 31.9062 36.4265 32.3159 35.7957 32.4002C35.0944 32.4941 34.2619 32.4949 33.6035 32.1839C32.9929 31.8956 32.3669 31.5531 31.728 31.4875C31.3061 31.4438 30.659 31.4187 30.263 31.5952C30.012 31.7069 29.7593 31.7944 29.522 31.9199C29.1231 32.1294 28.8048 32.2684 28.5672 32.337C27.9121 32.5265 26.8164 32.4909 26.2212 32.2374C25.8546 32.0814 25.5666 31.9507 25.3571 31.8454C24.255 31.2899 23.0321 31.2996 21.9607 31.9272C20.9388 32.5257 19.6868 32.6447 18.5668 32.2001C17.9619 31.9604 17.327 31.5442 16.7212 31.4729C16.3789 31.433 15.9557 31.4438 15.4514 31.5053C15.2546 31.5296 15.0927 31.6276 14.9048 31.6972C14.4934 31.8495 14.1339 32.0949 13.7176 32.2552C13.1159 32.4876 12.46 32.4714 11.8243 32.4155C11.2112 32.3629 10.5747 32.0123 10.041 31.7167C10.0178 31.7037 10.0062 31.7107 10.0062 31.7377C10.007 32.1394 10.0127 32.7516 10.4063 32.9873C11.6393 33.7258 12.8676 33.7895 14.0909 33.1784C14.5266 32.9608 14.7455 32.8518 14.7477 32.8512C15.5024 32.5478 16.2796 32.4863 17.0792 32.6666C17.5432 32.7711 17.991 33.0205 18.4372 33.2391C19.2157 33.6208 20.0102 33.705 20.8205 33.4918C21.5882 33.2893 22.2158 32.7816 23.003 32.6382ZM23.2224 33.9777C23.7213 33.8716 24.2363 33.9591 24.7166 34.0797C25.3644 34.2417 25.9021 34.6474 26.5459 34.8296C27.1242 34.9932 27.704 35.0113 28.2854 34.8839C28.8142 34.7681 29.3803 34.4539 29.901 34.1947C30.1626 34.0652 30.7513 33.9502 31.0234 33.9421C31.7871 33.9186 32.4139 34.0587 33.12 34.4231C33.9744 34.8636 34.7486 35.0904 35.7147 34.9066C36.2751 34.7997 36.8679 34.4717 37.425 34.2133C37.6842 34.0935 37.9757 34.0506 38.2543 33.9874C38.8155 33.8619 39.3597 33.9591 39.8982 34.0984C40.5461 34.2668 41.1146 34.6984 41.7292 34.8572C42.2643 34.9954 42.8031 35.0056 43.3456 34.8879C44.0704 34.7308 44.664 34.2668 45.3815 34.0708C46.3411 33.8092 47.1923 33.9332 48.109 34.3672C48.4232 34.5162 49.0913 34.8839 49.4233 34.8677C49.4379 34.8671 49.4517 34.8614 49.4625 34.8516C49.4733 34.8419 49.4804 34.8286 49.4824 34.8142L49.6152 33.9267C49.6176 33.911 49.6143 33.895 49.606 33.8816C49.5977 33.8681 49.5849 33.858 49.5699 33.853C49.3421 33.7806 49.1145 33.7059 48.8872 33.6287C48.2005 33.3946 47.6198 32.9484 46.8756 32.8852C46.5177 32.855 46.1595 32.8556 45.801 32.8869C45.0309 32.9541 44.315 33.5096 43.6582 33.7032C42.7334 33.9753 41.8356 33.9043 40.9648 33.4902C40.3793 33.2116 39.942 32.9346 39.3467 32.8844C38.985 32.8537 38.6225 32.8531 38.2592 32.8828C37.8494 32.916 37.3505 33.1306 37.0444 33.3039C35.9236 33.9396 34.5696 34.0546 33.414 33.4869C32.971 33.2691 32.4098 32.9508 31.9231 32.8958C31.4977 32.8483 31.0728 32.848 30.6485 32.895C29.8597 32.9824 29.1438 33.5712 28.4199 33.7445C27.7051 33.9161 26.9967 33.8883 26.2949 33.6611C25.7985 33.5007 25.1514 33.0399 24.6016 32.9233C24.2021 32.8385 23.6832 32.8277 23.0451 32.8909C22.7965 32.9152 22.59 33.0286 22.36 33.1217C21.8061 33.346 21.2862 33.6611 20.7347 33.7801C19.852 33.9712 18.9887 33.8433 18.1449 33.3962C18.0245 33.332 17.8007 33.2291 17.4735 33.0877C16.7973 32.7945 15.6984 32.7573 15.0141 33.0367C14.3379 33.3128 13.7241 33.7218 12.975 33.8125C11.9822 33.9331 11.1286 33.7639 10.284 33.1954C10.2629 33.1814 10.2516 33.187 10.25 33.2124C10.223 33.6265 10.3021 34.0174 10.4872 34.385C10.5002 34.4104 10.5191 34.4301 10.5439 34.4441C11.188 34.8053 11.8782 34.9835 12.6146 34.9786C13.1499 34.9754 13.6326 34.726 14.1225 34.551C14.2772 34.4952 14.308 34.3939 14.491 34.351C14.6152 34.3213 14.7229 34.2611 14.8141 34.1704C14.8335 34.1515 14.8565 34.1402 14.8829 34.1364C15.2579 34.0805 15.6458 33.9493 15.9948 33.9404C16.8152 33.921 17.412 34.1008 18.1562 34.4879C19.0754 34.9649 20.0026 35.1074 21.0141 34.8159C21.2084 34.76 21.3842 34.6579 21.5801 34.5786C21.7777 34.5 21.9081 34.3324 22.164 34.3113C22.1888 34.3097 22.2094 34.2992 22.2256 34.2798L22.3098 34.1753C22.3222 34.1596 22.3384 34.1499 22.3584 34.1461C22.6483 34.0948 22.9363 34.0387 23.2224 33.9777ZM40.7963 35.8605C40.8514 35.9909 41.0968 36.0031 41.2215 36.0265C41.2479 36.0319 41.266 36.0473 41.2757 36.0727C41.2935 36.1213 41.323 36.1513 41.364 36.1626C42.0658 36.3548 42.7809 36.3783 43.5092 36.2331C43.7764 36.1796 44.0251 36.0379 44.2931 35.9391C44.3181 35.9295 44.3404 35.914 44.3579 35.8937C44.4705 35.7625 44.6527 35.7415 44.7652 35.688C45.6504 35.2702 46.5865 35.2038 47.5162 35.5099C47.8952 35.6346 48.1514 35.7391 48.2847 35.8233C48.4494 35.9275 48.5833 35.9928 48.6864 36.0193C48.7131 36.0262 48.7379 36.0383 48.7593 36.0549C48.8354 36.1137 48.9196 36.1599 49.0119 36.1934C49.0181 36.1956 49.0246 36.1965 49.0311 36.1961C49.0377 36.1956 49.044 36.1938 49.0499 36.1908C49.0557 36.1878 49.0609 36.1835 49.0651 36.1784C49.0693 36.1733 49.0724 36.1674 49.0743 36.161C49.1504 35.8943 49.2322 35.6289 49.3197 35.3649C49.3558 35.2548 49.3199 35.1808 49.212 35.143C48.8286 35.0102 48.4583 34.8493 48.1009 34.6604C47.3145 34.2441 46.5906 34.1842 45.7241 34.2838C44.941 34.3737 44.2559 34.9228 43.5878 35.1106C42.8805 35.3093 42.1717 35.2947 41.4612 35.0669C41.0838 34.9454 40.6781 34.696 40.2764 34.517C39.5889 34.2109 38.8681 34.1923 38.1425 34.2911C37.3522 34.398 36.6266 34.9657 35.9139 35.1447C35.2304 35.3158 34.5523 35.2861 33.8797 35.0556C33.508 34.9276 33.0771 34.6588 32.6601 34.4822C31.9717 34.1907 31.1951 34.2028 30.4719 34.3065C29.7998 34.4029 29.1762 34.9033 28.5883 35.0912C27.4465 35.4556 26.3864 35.1957 25.3523 34.5867C24.6 34.1429 23.4427 34.2101 22.6159 34.3527C22.5878 34.3575 22.5635 34.3702 22.543 34.3907C22.4539 34.4793 22.346 34.527 22.2191 34.5341C22.1936 34.5356 22.1688 34.5437 22.147 34.5575C21.1266 35.2224 19.971 35.4402 18.8114 35.0556C18.1279 34.8288 17.5537 34.3672 16.8192 34.2887C16.3587 34.2396 15.8979 34.2433 15.4369 34.3C14.7493 34.3842 14.1444 34.896 13.5386 35.0791C12.5145 35.3879 11.5303 35.2737 10.586 34.7365C10.4986 34.6868 10.4735 34.7087 10.5107 34.8021C10.65 35.1519 10.7261 35.5447 10.8436 35.9278C10.8509 35.9518 10.8666 35.9727 10.8881 35.9869C11.4793 36.3837 12.5628 36.3683 13.222 36.2565C13.4293 36.2209 14.1905 35.9893 14.2999 35.8038C14.3144 35.779 14.336 35.7644 14.3647 35.7601C14.6117 35.7221 14.7566 35.5714 14.9809 35.522C15.27 35.4589 15.5761 35.3495 15.8539 35.3301C16.708 35.2718 17.5043 35.4629 18.2429 35.9035C18.3692 35.9788 18.5053 35.9901 18.634 36.0614C18.7625 36.1321 18.8562 36.175 18.915 36.1901C19.8782 36.439 20.8087 36.351 21.7065 35.9261C21.8231 35.8703 21.8401 35.7844 21.9826 35.7472C22.1924 35.6929 22.3349 35.5682 22.5406 35.5245C22.7957 35.4694 23.054 35.3528 23.2978 35.3317C24.1465 35.2605 24.9417 35.434 25.6835 35.8524C25.8503 35.9464 26.0107 35.9933 26.1864 36.0444C26.2112 36.0514 26.228 36.0673 26.2366 36.0921C26.2536 36.1399 26.2698 36.1561 26.3232 36.1683C27.095 36.3521 27.8489 36.3934 28.5818 36.1958C28.7916 36.1391 29.0021 35.9998 29.2362 35.9367C29.2623 35.9299 29.2855 35.9142 29.3018 35.8921C29.3287 35.8559 29.3503 35.8335 29.3665 35.8249C30.7108 35.129 32.0246 35.1557 33.3079 35.9051C33.4407 35.982 33.5881 36.0031 33.7274 36.08C34.3332 36.4136 35.3422 36.361 35.9973 36.2241C36.2638 36.1683 36.5043 36.0338 36.7764 35.9407C36.8023 35.9321 36.8217 35.9156 36.8347 35.8913C36.8952 35.7801 36.995 35.7288 37.1343 35.7374C37.1472 35.7382 37.1601 35.7364 37.1723 35.7321C37.1845 35.7278 37.1958 35.7211 37.2056 35.7123C37.4259 35.5164 37.6793 35.5147 37.8947 35.4516C38.6894 35.2205 39.4547 35.264 40.1906 35.582C40.4567 35.697 40.6422 35.7742 40.7469 35.8136C40.7701 35.8222 40.7866 35.8379 40.7963 35.8605ZM46.2002 35.624C45.8423 35.6305 45.2851 35.6572 44.9888 35.8824C44.9666 35.8991 44.9418 35.9088 44.9143 35.9115C44.7712 35.9234 44.6521 35.9785 44.5571 36.0767C44.5377 36.0972 44.515 36.1129 44.4891 36.1237C43.7254 36.4517 43.1148 36.6857 42.2499 36.6153C41.9074 36.5869 41.5324 36.4565 41.1664 36.3788C41.1367 36.3726 41.1107 36.3555 41.0935 36.331L41.0401 36.2581C41.0276 36.2409 41.0091 36.2288 40.9882 36.2241L40.6595 36.1529C40.6352 36.1475 40.6222 36.1326 40.6206 36.1083C40.6101 35.9836 40.538 35.9472 40.4149 35.9366C40.1995 35.918 40.0748 35.7836 39.895 35.7439C39.218 35.5933 38.4997 35.5922 37.7401 35.7407C37.6289 35.7623 37.5503 35.8014 37.5044 35.8581C37.4866 35.8802 37.4637 35.8943 37.4356 35.9002L37.14 35.9609C37.106 35.9679 37.0841 35.9882 37.0744 36.0217L37.0623 36.0662C37.0552 36.0905 37.0398 36.1072 37.0161 36.1164C36.1261 36.4403 35.5689 36.706 34.6239 36.6104C34.3275 36.5804 34.023 36.4744 33.7226 36.3885C33.5509 36.3391 33.4075 36.2136 33.2189 36.161C33.0763 36.1213 33.0237 36.0047 32.882 35.9528C32.6196 35.8573 32.3831 35.7309 32.1118 35.688C31.4559 35.5838 30.8901 35.5822 30.4145 35.6832C29.8225 35.8087 29.1398 36.2913 28.6223 36.4582C27.8489 36.7068 26.7265 36.7359 25.988 36.2881C25.8325 36.1942 25.6268 36.199 25.5199 36.0371C25.5048 36.0144 25.484 35.9985 25.4576 35.9893C25.1255 35.8783 24.8008 35.7253 24.4663 35.6767C23.8903 35.593 23.3153 35.6065 22.7414 35.7172C22.5681 35.7504 22.4466 35.8516 22.2766 35.9123C22.1362 35.9636 22.0226 36.0155 21.9357 36.0678C21.1598 36.5337 20.319 36.7108 19.4131 36.5991C19.1912 36.5715 18.9604 36.4638 18.728 36.4088C18.5231 36.3594 18.3886 36.2306 18.1789 36.1747C18.0404 36.1375 18.0007 36.0209 17.8712 35.9658C17.0765 35.6278 16.2507 35.5363 15.3939 35.6913C15.219 35.7237 15.0894 35.705 14.9283 35.8322C14.9072 35.8489 14.8838 35.8602 14.8578 35.8662C14.7283 35.897 14.5822 35.962 14.4197 36.0613C13.686 36.5078 12.8795 36.6941 12 36.6201C11.6947 36.5942 11.3861 36.4331 11.042 36.4023C11.0112 36.399 11.0012 36.412 11.012 36.4412L11.4153 37.502C11.4279 37.5355 11.4491 37.565 11.4768 37.5876C11.5046 37.6102 11.5378 37.6251 11.5732 37.6308C12.6503 37.8025 13.5216 37.6867 14.4626 37.1295C14.6862 36.9975 14.9129 36.9408 15.1486 36.8542C16.139 36.4897 17.3367 36.744 18.217 37.268C19.1426 37.8187 20.3589 37.8324 21.3364 37.4615C21.3537 37.455 21.6031 37.3306 22.0847 37.0882C22.9803 36.6374 23.914 36.5672 24.8858 36.8776C25.6041 37.1068 26.1694 37.5636 26.9266 37.6713C27.8992 37.8097 28.7219 37.6081 29.5771 37.1133C29.8152 36.9756 30.0468 36.9189 30.3003 36.8323C31.2316 36.5148 32.4098 36.7481 33.2464 37.2413C34.3558 37.8932 35.7406 37.8632 36.8914 37.2218C38.227 36.4779 39.547 36.4981 40.8514 37.2826C41.8426 37.8786 43.2169 37.8008 44.2453 37.3611C44.2714 37.3499 44.2942 37.3324 44.3117 37.3101C44.403 37.1924 44.5266 37.1319 44.6826 37.1287C44.6959 37.1285 44.709 37.1255 44.7211 37.1199C44.7332 37.1143 44.7441 37.1063 44.7531 37.0963C44.9215 36.9052 45.1353 36.9351 45.3232 36.8533C45.6415 36.7157 45.8917 36.7092 46.3096 36.6971C47.1129 36.6744 47.8741 36.9279 48.5301 37.3894C48.5517 37.4046 48.5695 37.4008 48.5835 37.3781C48.7439 37.112 48.854 36.8269 48.9139 36.5229C48.9242 36.4706 48.9053 36.4322 48.8573 36.4079C48.6543 36.3075 48.4472 36.2109 48.2361 36.118C48.1276 36.0711 48.0426 35.9779 47.9138 35.9366C47.4854 35.7982 47.1583 35.6443 46.6886 35.6378C46.5282 35.5898 46.3654 35.5852 46.2002 35.624Z" fill="white"/>
<path d="M12.7839 15.0482C12.6478 15.2938 12.4718 15.5173 12.2559 15.7187L12.3004 15.5535C12.3074 15.5282 12.3201 15.5063 12.3385 15.4879L12.7839 15.0482Z" fill="white"/>
<path d="M30.753 24.8713L29.8703 24.9101C29.839 24.9118 29.8195 24.9277 29.812 24.9579L29.7893 25.0527C29.6864 24.6648 30.5449 24.7943 30.753 24.8713Z" fill="white"/>
<path d="M35.3357 24.8826C35.3033 25.3318 35.3068 25.7767 35.3463 26.2172C35.4345 27.1979 35.4402 27.8636 35.2807 28.7228C35.2072 28.1116 35.1859 27.4479 35.2167 26.7314C35.2507 25.9443 35.2904 25.328 35.3357 24.8826Z" fill="white"/>
<path d="M29.0127 26.9946C29.0262 26.7895 28.9741 26.6062 28.8564 26.4448C28.879 26.637 28.9311 26.8203 29.0127 26.9946Z" fill="white"/>
<path d="M7.30465 31.5321C7.31707 31.3879 7.29954 31.2381 7.25203 31.0826C7.2353 31.2478 7.25282 31.3976 7.30465 31.5321Z" fill="white"/>
<path d="M46.6886 35.6378L46.2002 35.624C46.3654 35.5852 46.5282 35.5898 46.6886 35.6378Z" fill="white"/>
<path d="M43.5295 49.6015C43.9457 50.0696 44.4194 50.4065 44.7377 50.8697C44.7523 50.8907 44.748 50.9064 44.7248 50.9167C44.4311 51.0484 44.1357 51.1744 43.8388 51.2948C41.4984 52.2472 39.1475 53.1712 36.7723 54.0336C35.5123 54.4909 34.2352 54.9844 32.9411 55.514C32.9274 55.5195 32.9126 55.5214 32.898 55.5197C32.8834 55.518 32.8694 55.5127 32.8575 55.5042C32.8455 55.4957 32.836 55.4844 32.8296 55.4712C32.8233 55.4581 32.8204 55.4435 32.8212 55.429C32.8779 54.3033 32.8285 53.1445 32.8884 52.048C32.9767 50.4138 33.0925 48.7083 33.0917 47.0449C33.0912 46.7399 33.102 46.4116 33.1241 46.0602C33.2407 44.217 33.2764 42.5528 33.3492 40.5186C33.3633 40.1326 33.3849 39.8092 33.414 39.5484C33.4178 39.5139 33.4154 39.4799 33.4067 39.4464L33.3873 39.3686C33.3858 39.3624 33.3863 39.3558 33.3888 39.3499C33.3913 39.344 33.3956 39.339 33.4012 39.3357C33.4067 39.3325 33.4132 39.3311 33.4196 39.3317C33.426 39.3324 33.432 39.3351 33.4367 39.3395C34.2732 40.0975 35.0596 40.9154 35.8694 41.7155C37.6024 43.4258 39.2755 45.2066 40.9802 46.9461C41.5365 47.5146 42.2629 48.3301 42.9432 48.9885C43.1391 49.1785 43.3346 49.3829 43.5295 49.6015Z" fill="white"/>
<path d="M11.6988 43.9976C11.6988 43.8156 11.6359 43.7152 11.5101 43.6963C11.5435 43.814 11.6064 43.9144 11.6988 43.9976Z" fill="white"/>
<path d="M15.7746 43.9272C15.7476 43.9363 15.7222 43.9584 15.6984 43.9935L15.6393 43.9361C15.6166 43.9134 15.6212 43.901 15.6531 43.8988C15.6952 43.8961 15.7357 43.9056 15.7746 43.9272Z" fill="white"/>
<path d="M12.5717 45.0933C12.5842 45.0382 12.5515 44.9991 12.4738 44.9758C12.4878 45.0698 12.5205 45.1089 12.5717 45.0933Z" fill="white"/>
<path d="M46.7428 45.2908C46.7436 45.4471 46.5339 45.6131 46.4748 45.7646C46.4709 45.7748 46.4651 45.7841 46.4576 45.7919C46.45 45.7997 46.441 45.8059 46.431 45.8099L46.2748 45.8788C46.2483 45.8901 46.237 45.9101 46.2407 45.9387C46.2553 46.0488 46.2173 46.0944 46.1266 46.0755C46.1123 46.0727 46.0975 46.0753 46.0852 46.0828C46.0729 46.0904 46.0639 46.1022 46.0602 46.116C46.0315 46.224 45.9622 46.285 45.852 46.299C45.8398 46.3006 45.828 46.3046 45.8174 46.3109C45.8068 46.3172 45.7976 46.3255 45.7905 46.3355C45.6706 46.5045 45.5238 46.6305 45.3499 46.7137L46.7428 45.2908Z" fill="white"/>
<path d="M17.5991 45.5743C17.55 45.5732 17.5265 45.5902 17.5286 45.6253L17.4428 45.571C17.4386 45.5693 17.4353 45.566 17.4335 45.5618C17.4318 45.5576 17.4318 45.5529 17.4335 45.5487C17.4352 45.5446 17.4385 45.5412 17.4427 45.5395C17.4469 45.5377 17.4516 45.5377 17.4557 45.5394L17.5991 45.5743Z" fill="white"/>
<path d="M20.793 47.581C20.7558 47.6151 20.7582 47.6869 20.8003 47.7965L20.6464 47.7211C20.6205 47.7087 20.6173 47.6923 20.6367 47.6717C20.6756 47.6307 20.7277 47.6005 20.793 47.581Z" fill="white"/>
<path d="M36.6079 10.697C36.7926 10.7521 36.9748 10.8145 37.1546 10.8841C40.4238 12.1563 43.3205 14.2732 45.5548 16.9116C46.8808 18.4778 47.9543 20.2589 48.7755 22.2548C48.6702 22.2785 48.5822 22.3196 48.5115 22.3779C48.1843 21.5708 47.7942 20.789 47.3413 20.0326C47.2231 19.8351 47.0878 19.5233 46.8765 19.2965C46.8198 19.2358 46.7963 19.0795 46.7339 18.9969C46.4381 18.6028 46.15 18.2035 45.8698 17.7992C45.2876 16.9594 44.5223 16.2581 43.8113 15.5317C41.7681 13.4448 39.1362 11.8923 36.3828 10.9278C36.466 10.9116 36.541 10.8347 36.6079 10.697Z" fill="white"/>
<path d="M45.0446 12.8633C45.0581 12.7845 45.0044 12.7526 44.8835 12.7677L45.0446 12.8633Z" fill="white"/>
<path d="M28.8564 26.4448C28.879 26.637 28.9311 26.8203 29.0127 26.9946C29.2888 27.8547 28.7972 28.9066 28.1704 29.4484C28.1463 29.4692 28.1306 29.4981 28.1262 29.5296C28.1219 29.561 28.1293 29.593 28.147 29.6193C28.3726 29.9551 28.6237 30.2742 28.9001 30.5765C28.8547 30.6753 28.7794 30.7789 28.9657 30.8259C28.5262 31.0024 28.0717 31.0804 27.602 31.0599C27.6222 30.9425 27.4343 30.9805 27.4149 30.8315C27.6036 30.6412 27.2529 30.1618 27.146 29.978C27.1338 29.957 27.1167 29.9394 27.096 29.9267C27.0754 29.914 27.052 29.9066 27.0278 29.9051C26.5273 29.8765 26.0485 29.7426 25.5912 29.5034C25.0788 29.2356 24.5425 29.0291 23.9821 28.8839C23.969 28.8804 23.9572 28.8737 23.9476 28.8643C23.9381 28.8549 23.9313 28.8433 23.9278 28.8305C23.6784 27.9445 23.4881 27.1987 23.9262 26.3208C24.7935 24.5846 27.0375 24.2275 28.3737 25.6738C28.5592 25.8746 28.8167 26.1751 28.8564 26.4448ZM26.411 29.1107C26.8356 29.0974 27.2374 28.9126 27.5281 28.597C27.8187 28.2814 27.9743 27.8608 27.9607 27.4278C27.9471 26.9948 27.7654 26.5849 27.4555 26.2881C27.1456 25.9914 26.733 25.8322 26.3084 25.8455C25.8838 25.8589 25.4819 26.0437 25.1913 26.3593C24.9007 26.6749 24.7451 27.0954 24.7587 27.5284C24.7723 27.9614 24.954 28.3714 25.2639 28.6681C25.5738 28.9649 25.9864 29.1241 26.411 29.1107Z" fill="white"/>
<path d="M38.7904 25.7005C38.7424 25.7005 38.7181 25.7246 38.7175 25.7726L38.6973 28.8564C38.6973 28.8684 38.6926 28.8799 38.6841 28.8885C38.6756 28.8971 38.6641 28.9021 38.6519 28.9026L37.5789 28.9268C37.5731 28.927 37.5674 28.9259 37.562 28.9238C37.5566 28.9216 37.5516 28.9184 37.5475 28.9143C37.5433 28.9103 37.54 28.9054 37.5378 28.9C37.5356 28.8947 37.5344 28.8889 37.5344 28.8831L37.5449 25.0033C37.5449 24.9676 37.5622 24.946 37.5968 24.9385C37.7198 24.9126 37.8402 24.8956 37.9579 24.8875C38.8763 24.8238 39.58 24.83 40.0691 24.9061C42.1925 25.2365 42.8954 28.33 41.0555 29.4937C41.031 29.5092 41.003 29.5187 40.974 29.5212C40.945 29.5237 40.9157 29.5193 40.8887 29.5083L39.7331 29.0329C39.7279 29.0308 39.7236 29.027 39.7208 29.0221C39.7179 29.0173 39.7168 29.0117 39.7174 29.0061C39.718 29.0006 39.7205 28.9953 39.7243 28.9913C39.7282 28.9872 39.7332 28.9845 39.7387 28.9835C40.9802 28.7754 41.2596 27.2667 40.6473 26.3273C40.2991 25.7937 39.4164 25.6973 38.7904 25.7005Z" fill="white"/>
<path d="M18.0526 29.3423C18.0429 29.336 18.0349 29.3274 18.0294 29.3172C18.0239 29.3071 18.021 29.2956 18.021 29.284L18.025 24.9466C18.0256 24.9072 18.0456 24.8869 18.085 24.8858L18.9239 24.8705C18.9612 24.8699 18.9847 24.8877 18.9944 24.9239C19.0155 25.0011 19.026 25.0789 19.026 25.1571C19.0314 26.3082 19.0344 27.4592 19.0349 28.6102C19.0349 28.7576 19.1269 28.8343 19.311 28.8402C19.8255 28.8569 20.377 28.8623 20.9655 28.8564C21.0362 28.8558 21.0789 28.8899 21.0934 28.9584C21.1364 29.1576 21.1963 29.7294 20.8772 29.7796C19.7945 29.9472 19.0146 29.9391 18.0526 29.3423Z" fill="white"/>
<path d="M30.753 24.8713L30.8817 24.9174C30.9109 24.9277 30.926 24.9482 30.9271 24.979C30.9619 26.0544 30.9198 27.0869 30.9733 28.5746C30.9765 28.6725 31.0146 28.7284 31.1174 28.7147C31.124 28.7138 31.1308 28.7142 31.1372 28.716C31.1436 28.7178 31.1496 28.7208 31.1549 28.725C31.1601 28.7291 31.1644 28.7343 31.1676 28.7402C31.1707 28.7461 31.1727 28.7525 31.1733 28.7592L31.1822 28.8458C31.1854 28.8788 31.1703 28.8963 31.1368 28.8985C30.7865 28.9168 30.4353 28.9258 30.0833 28.9252C30.0158 28.9252 29.9642 28.8963 29.9286 28.8386C29.8471 28.7058 29.8044 28.5432 29.8006 28.3511C29.778 27.2508 29.7742 26.1513 29.7893 25.0527L29.812 24.9579C29.8195 24.9277 29.839 24.9118 29.8703 24.9101L30.753 24.8713Z" fill="white"/>
<path d="M32.3637 29.0969C32.3549 29.0928 32.3475 29.0862 32.3424 29.0779C32.3373 29.0696 32.3347 29.0601 32.3349 29.0503C32.335 29.0405 32.338 29.031 32.3434 29.0227C32.3488 29.0145 32.3564 29.0079 32.3653 29.0038L32.6803 28.8621C32.7035 28.8513 32.7224 28.8356 32.737 28.8151C32.9297 28.5419 33.0293 28.2709 33.0358 28.002C33.0607 26.9919 33.0696 25.9842 33.0625 24.979C33.0623 24.9567 33.0709 24.9352 33.0863 24.9192C33.1018 24.9031 33.1229 24.8938 33.1452 24.8931L33.9728 24.8632C33.9833 24.8629 33.9938 24.8646 34.0036 24.8685C34.0134 24.8723 34.0224 24.878 34.0299 24.8853C34.0375 24.8926 34.0435 24.9014 34.0476 24.9111C34.0517 24.9208 34.0538 24.9312 34.0538 24.9417C34.0575 26.0463 34.057 27.1606 34.0521 28.2847C34.0497 28.794 33.955 29.2111 33.5622 29.5617C33.5363 29.5847 33.5042 29.5996 33.47 29.6043C33.4359 29.6091 33.4011 29.6036 33.3703 29.5885L32.3637 29.0969Z" fill="white"/>
<path d="M35.2807 28.7228C35.4402 27.8636 35.4345 27.1979 35.3463 26.2172C35.3068 25.7767 35.3033 25.3318 35.3357 24.8826C35.7207 24.8567 36.0489 24.8591 36.3205 24.8899C36.3323 24.8913 36.3433 24.8969 36.3512 24.9057C36.3591 24.9146 36.3634 24.9259 36.3634 24.9377V29.5423C36.3634 29.5639 36.3542 29.5804 36.3359 29.5917C36.0627 29.7682 35.7655 29.8606 35.4442 29.8687C35.4074 29.8695 35.3717 29.8565 35.3442 29.8323C35.3167 29.8081 35.2995 29.7745 35.296 29.7383C35.2615 29.4009 35.2564 29.0624 35.2807 28.7228Z" fill="white"/>
<path d="M21.7923 24.8842C21.7923 24.8797 21.7941 24.8754 21.7973 24.8722C21.8005 24.869 21.8048 24.8672 21.8093 24.8672L22.2734 24.868C22.4403 24.8683 22.6004 24.9048 22.7184 24.9693C22.8364 25.0338 22.9026 25.1212 22.9026 25.2122L22.8961 28.764C22.8961 28.8092 22.8798 28.8538 22.8481 28.8955C22.8163 28.9371 22.7699 28.9749 22.7113 29.0067C22.6527 29.0386 22.5831 29.0638 22.5066 29.0809C22.4301 29.098 22.3481 29.1068 22.2653 29.1066L21.8012 29.1058C21.799 29.1058 21.7968 29.1054 21.7947 29.1045C21.7927 29.1036 21.7908 29.1024 21.7892 29.1008C21.7876 29.0992 21.7864 29.0974 21.7855 29.0953C21.7847 29.0932 21.7842 29.091 21.7842 29.0888L21.7923 24.8842Z" fill="white"/>
<path d="M11.7028 43.6008C11.6763 43.4453 11.6034 43.3276 11.4841 43.2477C11.4939 43.3994 11.5667 43.5171 11.7028 43.6008Z" fill="white"/>
<path d="M12.4081 44.873C12.5334 44.8962 12.6003 44.9764 12.609 45.1135C12.5885 45.1178 12.5761 45.1111 12.5717 45.0933C12.5842 45.0382 12.5515 44.9991 12.4738 44.9758C12.4414 44.9548 12.4195 44.9205 12.4081 44.873Z" fill="white"/>
<path d="M15.2069 47.6215C15.093 47.4115 14.911 47.252 14.6611 47.1429C14.8182 47.3227 15.0001 47.4822 15.2069 47.6215Z" fill="white"/>
<defs>
<filter id="filter0_b_3037_357" x="-10" y="-10" width="80" height="80" filterUnits="userSpaceOnUse" color-interpolation-filters="sRGB">
<feFlood flood-opacity="0" result="BackgroundImageFix"/>
<feGaussianBlur in="BackgroundImageFix" stdDeviation="5"/>
<feComposite in2="SourceAlpha" operator="in" result="effect1_backgroundBlur_3037_357"/>
<feBlend mode="normal" in="SourceGraphic" in2="effect1_backgroundBlur_3037_357" result="shape"/>
</filter>
</defs>
</svg>
