<svg width="60" height="60" viewBox="0 0 60 60" fill="none" xmlns="http://www.w3.org/2000/svg">
<g clip-path="url(#clip0_2970_14)">
<g filter="url(#filter0_b_2970_14)">
<circle cx="30" cy="30" r="30" fill="white" fill-opacity="0.1"/>
</g>
<path d="M28.3503 10.0106C28.2659 10.0182 27.9971 10.0451 27.7553 10.0643C22.1772 10.5671 16.9524 13.5765 13.6432 18.2017C11.8005 20.7735 10.6219 23.6907 10.1766 26.7806C10.0192 27.8592 10 28.1778 10 29.6402C10 31.1026 10.0192 31.4212 10.1766 32.4998C11.2438 39.8734 16.4917 46.0686 23.6092 48.364C24.8837 48.7747 26.2274 49.0549 27.7553 49.2238C28.3503 49.289 30.9224 49.289 31.5175 49.2238C34.1548 48.9321 36.3891 48.2795 38.5927 47.1549C38.9305 46.9822 38.9958 46.9361 38.9497 46.8977C38.919 46.8747 37.4794 44.944 35.7519 42.6102L32.6116 38.3688L28.6766 32.5459C26.5114 29.3447 24.7302 26.7269 24.7148 26.7269C24.6994 26.723 24.6841 29.3101 24.6764 32.4691C24.6649 38.0003 24.6611 38.2229 24.5919 38.3534C24.4921 38.5415 24.4154 38.6183 24.2541 38.7027C24.1313 38.7641 24.0238 38.7756 23.4441 38.7756H22.78L22.6034 38.6643C22.4882 38.5914 22.4037 38.4954 22.3461 38.3841L22.2655 38.2114L22.2732 30.5154L22.2847 22.8155L22.4037 22.6658C22.4652 22.5852 22.5957 22.4816 22.6878 22.4317C22.8452 22.3549 22.9066 22.3472 23.5708 22.3472C24.3539 22.3472 24.4845 22.3779 24.6879 22.6006C24.7455 22.662 26.8761 25.8709 29.4252 29.7362C31.9743 33.6015 35.4601 38.8793 37.1723 41.4702L40.2818 46.1799L40.4392 46.0763C41.8328 45.1704 43.307 43.8807 44.474 42.5373C46.9578 39.6853 48.5587 36.2077 49.0961 32.4998C49.2535 31.4212 49.2727 31.1026 49.2727 29.6402C49.2727 28.1778 49.2535 27.8592 49.0961 26.7806C48.0289 19.407 42.781 13.2118 35.6636 10.9164C34.4082 10.5096 33.0722 10.2294 31.575 10.0605C31.2065 10.0221 28.6689 9.97986 28.3503 10.0106ZM36.3891 21.8866C36.5734 21.9787 36.7231 22.1553 36.7769 22.3395C36.8076 22.4393 36.8153 24.5735 36.8076 29.383L36.7961 36.2845L35.5791 34.419L34.3583 32.5536V27.5368C34.3583 24.2933 34.3737 22.4701 34.3967 22.3818C34.4581 22.1668 34.5925 21.9979 34.7768 21.8981C34.9342 21.8175 34.9917 21.8098 35.5945 21.8098C36.1626 21.8098 36.2624 21.8175 36.3891 21.8866Z" fill="white"/>
</g>
<defs>
<filter id="filter0_b_2970_14" x="-10" y="-10" width="80" height="80" filterUnits="userSpaceOnUse" color-interpolation-filters="sRGB">
<feFlood flood-opacity="0" result="BackgroundImageFix"/>
<feGaussianBlur in="BackgroundImageFix" stdDeviation="5"/>
<feComposite in2="SourceAlpha" operator="in" result="effect1_backgroundBlur_2970_14"/>
<feBlend mode="normal" in="SourceGraphic" in2="effect1_backgroundBlur_2970_14" result="shape"/>
</filter>
<clipPath id="clip0_2970_14">
<rect width="60" height="60" fill="white"/>
</clipPath>
</defs>
</svg>
