<svg width="60" height="60" viewBox="0 0 60 60" fill="none" xmlns="http://www.w3.org/2000/svg">
<g clip-path="url(#clip0_2970_213)">
<g filter="url(#filter0_b_2970_213)">
<circle cx="30" cy="30" r="30" fill="white" fill-opacity="0.1"/>
</g>
<path d="M48.0911 28.2588C47.9877 28.2588 47.8871 28.2802 47.798 28.3305L44.9806 29.9576C44.7983 30.0626 44.6875 30.261 44.6875 30.4721V33.7202C44.6875 33.9312 44.7983 34.1293 44.9806 34.2346L45.7164 34.6594C46.0739 34.8355 46.2057 34.8328 46.3684 34.8328C46.8977 34.8328 47.1999 34.5116 47.1999 33.9535V30.7472C47.1999 30.7019 47.1606 30.6695 47.1161 30.6695H46.7632C46.718 30.6695 46.6795 30.7019 46.6795 30.7472V33.9535C46.6795 34.2009 46.4218 34.4497 46.0036 34.2406L45.2379 33.792C45.2108 33.7773 45.19 33.7513 45.19 33.7202V30.472C45.19 30.4413 45.2105 30.4099 45.2379 30.3943L48.0493 28.7733C48.062 28.7659 48.0764 28.762 48.0911 28.762C48.1059 28.762 48.1203 28.7659 48.133 28.7733L50.9445 30.3944C50.9713 30.4105 50.9924 30.4403 50.9924 30.4722V33.7203C50.9924 33.7513 50.9768 33.7831 50.9505 33.7981L48.133 35.4191C48.1089 35.4335 48.0756 35.4335 48.0493 35.4191L47.3255 34.9884C47.3145 34.9825 47.3021 34.9793 47.2896 34.9793C47.2771 34.9793 47.2648 34.9825 47.2537 34.9884C47.054 35.1017 47.0164 35.1148 46.829 35.1798C46.7828 35.1959 46.7128 35.221 46.8529 35.2995L47.798 35.8557C47.8872 35.9071 47.9883 35.934 48.0912 35.9336C48.1941 35.9342 48.2952 35.9074 48.3843 35.8558L51.2017 34.2347C51.3841 34.1287 51.4948 33.9312 51.4948 33.7203V30.4721C51.4948 30.2611 51.3841 30.0631 51.2017 29.9577L48.3843 28.3307C48.296 28.2802 48.1947 28.2589 48.0912 28.2589L48.0911 28.2588Z" fill="white"/>
<path d="M48.845 30.5798C48.0427 30.5798 47.5649 30.9213 47.5649 31.4891C47.5649 32.105 48.0392 32.2743 48.8092 32.3504C49.7304 32.4406 49.8021 32.5759 49.8021 32.7572C49.8021 33.0717 49.5514 33.2058 48.9587 33.2058C48.2141 33.2058 48.0505 33.0199 47.9957 32.6496C47.9892 32.6098 47.9585 32.5777 47.9179 32.5777H47.553C47.5081 32.5777 47.4692 32.6165 47.4692 32.6615C47.4692 33.1357 47.7271 33.6964 48.9587 33.6964C49.8502 33.6964 50.3645 33.3464 50.3645 32.7333C50.3645 32.1255 49.9491 31.9623 49.0843 31.848C48.2105 31.7324 48.1272 31.6758 48.1272 31.4712C48.1272 31.3022 48.1979 31.0763 48.845 31.0763C49.4232 31.0763 49.6368 31.201 49.7244 31.5908C49.732 31.6274 49.7643 31.6566 49.8021 31.6566H50.1671C50.1895 31.6566 50.2113 31.6428 50.2269 31.6266C50.2422 31.6094 50.253 31.5901 50.2508 31.5669C50.1943 30.8956 49.7467 30.5798 48.845 30.5798Z" fill="white"/>
<path d="M31.5275 24C31.496 24.0001 31.4651 24.0083 31.4378 24.0239C31.4106 24.0398 31.388 24.0625 31.3723 24.0898C31.3565 24.1171 31.3482 24.148 31.348 24.1795V28.7556C31.348 28.8005 31.3272 28.8407 31.2883 28.8632C31.2692 28.8743 31.2475 28.8802 31.2255 28.8802C31.2034 28.8802 31.1817 28.8743 31.1626 28.8632L30.4149 28.4326C30.3604 28.401 30.2985 28.3844 30.2354 28.3844C30.1724 28.3844 30.1105 28.401 30.056 28.4326L27.0711 30.1553C26.9595 30.2197 26.8917 30.3435 26.8917 30.4724V33.9179C26.8917 34.0466 26.9596 34.1645 27.0711 34.2289L30.056 35.9517C30.1105 35.9833 30.1724 36 30.2354 36C30.2985 36 30.3604 35.9833 30.4149 35.9517L33.3998 34.2289C33.4545 34.1974 33.4998 34.1521 33.5314 34.0975C33.5629 34.0429 33.5794 33.9809 33.5793 33.9179V25.328C33.5792 25.2635 33.562 25.2001 33.5295 25.1444C33.4969 25.0887 33.4501 25.0426 33.3939 25.0109L31.6172 24.0179C31.5894 24.0024 31.5585 23.9996 31.5275 24ZM12.3259 28.301C12.269 28.3032 12.2155 28.3132 12.1644 28.3428L9.17941 30.0656C9.12474 30.097 9.07934 30.1423 9.04783 30.1969C9.01632 30.2515 8.99982 30.3135 9 30.3766L9.00599 35.0007C9.00599 35.0649 9.03916 35.1247 9.09569 35.1561C9.1228 35.1724 9.15382 35.181 9.18544 35.181C9.21706 35.181 9.24809 35.1724 9.27519 35.1561L11.0458 34.1393C11.1579 34.0726 11.2312 33.9567 11.2312 33.8282V31.6687C11.2312 31.5399 11.2989 31.4216 11.4107 31.3576L12.1643 30.921C12.2188 30.8893 12.2808 30.8728 12.3438 30.8731C12.4054 30.8731 12.4685 30.8885 12.5232 30.921L13.277 31.3576C13.3317 31.389 13.3771 31.4343 13.4087 31.489C13.4402 31.5436 13.4567 31.6056 13.4565 31.6687V33.8281C13.4565 33.9566 13.5305 34.0733 13.6419 34.1392L15.4125 35.1561C15.4396 35.1724 15.4706 35.181 15.5022 35.181C15.5338 35.181 15.5649 35.1724 15.592 35.1561C15.6193 35.1404 15.6419 35.1177 15.6577 35.0904C15.6734 35.0631 15.6817 35.0321 15.6818 35.0006L15.6876 30.3766C15.6879 30.3135 15.6715 30.2514 15.64 30.1968C15.6085 30.1421 15.563 30.0969 15.5082 30.0656L12.5232 28.3428C12.4728 28.3132 12.4191 28.3033 12.3618 28.301H12.3259ZM39.1483 28.3428C39.086 28.3428 39.0249 28.3586 38.9689 28.3907L35.984 30.1135C35.9294 30.1449 35.884 30.1902 35.8525 30.2448C35.8209 30.2995 35.8044 30.3614 35.8045 30.4245V33.87C35.8045 33.9996 35.8775 34.117 35.9899 34.1811L38.951 35.868C39.0603 35.9303 39.1938 35.9351 39.3039 35.8738L41.0984 34.8749C41.1554 34.8433 41.1939 34.7843 41.1941 34.7194C41.1944 34.6878 41.1863 34.6568 41.1705 34.6294C41.1547 34.602 41.1319 34.5794 41.1044 34.5639L38.1016 32.8411C38.0454 32.809 38.0059 32.744 38.0059 32.6795V31.6029C38.0059 31.5385 38.0458 31.4794 38.1016 31.4473L39.0347 30.9089C39.062 30.8931 39.0929 30.8848 39.1244 30.8848C39.156 30.8848 39.1869 30.8931 39.2142 30.9089L40.1473 31.4473C40.1746 31.463 40.1973 31.4857 40.2131 31.513C40.2288 31.5403 40.2371 31.5713 40.237 31.6028V32.4522C40.237 32.4838 40.2452 32.5147 40.261 32.542C40.2767 32.5693 40.2994 32.592 40.3268 32.6077C40.3827 32.64 40.4504 32.6401 40.5062 32.6077L42.2948 31.5671C42.3494 31.5355 42.3947 31.4901 42.4262 31.4355C42.4577 31.3809 42.4743 31.319 42.4743 31.2559V30.4246C42.4743 30.2961 42.4061 30.178 42.2948 30.1135L39.3278 28.3907C39.2733 28.3591 39.2114 28.3425 39.1483 28.3428ZM30.2234 30.915C30.2391 30.915 30.2574 30.9188 30.2713 30.9269L31.2943 31.5191C31.322 31.5351 31.3421 31.5648 31.3421 31.5968V32.7812C31.3421 32.8134 31.3222 32.843 31.2943 32.859L30.2713 33.4512C30.2577 33.459 30.2422 33.4631 30.2265 33.4631C30.2107 33.4631 30.1953 33.459 30.1816 33.4512L29.1588 32.859C29.1309 32.8429 29.1109 32.8134 29.1109 32.7812V31.5968C29.1109 31.5647 29.131 31.5353 29.1588 31.5191L30.1816 30.927C30.1942 30.9192 30.2087 30.915 30.2235 30.9151L30.2234 30.915Z" fill="white"/>
<path d="M21.2926 28.325C21.2304 28.325 21.1689 28.3407 21.1131 28.3728L18.1282 30.0896C18.0166 30.1539 17.9487 30.278 17.9487 30.4067V33.8522C17.9487 33.981 18.0167 34.0988 18.1282 34.1633L21.1131 35.886C21.1677 35.9176 21.2296 35.9343 21.2926 35.9343C21.3556 35.9343 21.4176 35.9176 21.4721 35.886L24.457 34.1633C24.5116 34.1318 24.557 34.0865 24.5885 34.0318C24.62 33.9772 24.6365 33.9152 24.6364 33.8522V30.4067C24.6364 30.2778 24.5686 30.1539 24.457 30.0896L21.4721 28.3728C21.4175 28.3413 21.3556 28.3248 21.2926 28.325ZM39.1423 31.3997C39.1304 31.3997 39.1172 31.3997 39.1065 31.4056L38.5322 31.7406C38.5215 31.7466 38.5126 31.7552 38.5063 31.7657C38.5 31.7762 38.4965 31.7882 38.4963 31.8005V32.4584C38.4963 32.4832 38.5106 32.5059 38.5322 32.5183L39.1065 32.8473C39.128 32.8597 39.151 32.8597 39.1722 32.8473L39.7465 32.5182C39.7571 32.5122 39.7661 32.5036 39.7724 32.4931C39.7787 32.4826 39.7821 32.4707 39.7824 32.4584V31.8004C39.7821 31.7882 39.7787 31.7762 39.7724 31.7657C39.7661 31.7553 39.7571 31.7466 39.7465 31.7406L39.1722 31.4056C39.1616 31.3993 39.1543 31.3997 39.1423 31.3997Z" fill="white"/>
</g>
<defs>
<filter id="filter0_b_2970_213" x="-10" y="-10" width="80" height="80" filterUnits="userSpaceOnUse" color-interpolation-filters="sRGB">
<feFlood flood-opacity="0" result="BackgroundImageFix"/>
<feGaussianBlur in="BackgroundImageFix" stdDeviation="5"/>
<feComposite in2="SourceAlpha" operator="in" result="effect1_backgroundBlur_2970_213"/>
<feBlend mode="normal" in="SourceGraphic" in2="effect1_backgroundBlur_2970_213" result="shape"/>
</filter>
<clipPath id="clip0_2970_213">
<rect width="60" height="60" fill="white"/>
</clipPath>
</defs>
</svg>
