<svg width="60" height="60" viewBox="0 0 60 60" fill="none" xmlns="http://www.w3.org/2000/svg">
<g filter="url(#filter0_b_2970_199)">
<circle cx="30" cy="30" r="30" fill="white" fill-opacity="0.1"/>
</g>
<g clip-path="url(#clip0_2970_199)">
<mask id="mask0_2970_199" style="mask-type:luminance" maskUnits="userSpaceOnUse" x="8" y="17" width="45" height="25">
<path d="M8.73401 17.3583H52.266V41.6416H8.73401V17.3583Z" fill="white"/>
</mask>
<g mask="url(#mask0_2970_199)">
<path d="M30.5 39.5911C41.5893 39.5911 50.5792 35.0731 50.5792 29.4999C50.5792 23.9269 41.5893 19.4088 30.5 19.4088C19.4108 19.4088 10.4209 23.9269 10.4209 29.4999C10.4209 35.0731 19.4108 39.5911 30.5 39.5911Z" fill="white"/>
</g>
<mask id="mask1_2970_199" style="mask-type:luminance" maskUnits="userSpaceOnUse" x="8" y="17" width="45" height="25">
<path d="M8.73401 17.3583H52.266V41.6416H8.73401V17.3583Z" fill="white"/>
</mask>
<g mask="url(#mask1_2970_199)">
<path d="M20.9572 30.7511C21.869 30.7511 22.5498 30.5843 22.9805 30.2556C23.4066 29.9303 23.7009 29.3666 23.8551 28.5803C23.9989 27.8454 23.9441 27.3322 23.6923 27.0553C23.4348 26.7724 22.8781 26.6289 22.0377 26.6289H20.5805L19.7727 30.7511H20.9572ZM16.1911 35.8289C16.1235 35.8289 16.0593 35.7989 16.0163 35.747C15.9732 35.6952 15.9557 35.627 15.9686 35.5611L18.1096 24.6373C18.1303 24.5317 18.2236 24.4554 18.3321 24.4554H22.9464C24.3965 24.4554 25.4759 24.8459 26.1544 25.6162C26.8365 26.3905 27.0471 27.4728 26.7804 28.833C26.6718 29.3872 26.4852 29.9019 26.2256 30.3626C25.9657 30.824 25.6222 31.2508 25.2045 31.6315C24.7044 32.0956 24.1385 32.4321 23.5239 32.6301C22.9191 32.8255 22.1423 32.9246 21.2152 32.9246H19.3468L18.8133 35.6469C18.7926 35.7526 18.6993 35.8289 18.5908 35.8289H16.1911Z" fill="#1A1A1A"/>
<path d="M20.7675 26.8538H22.0378C23.0521 26.8538 23.4044 27.0745 23.5241 27.2061C23.7228 27.4245 23.7603 27.8849 23.6326 28.5377C23.4892 29.2684 23.2233 29.7865 22.8422 30.0775C22.4521 30.3753 21.8179 30.5263 20.9573 30.5263H20.0478L20.7675 26.8538ZM22.9464 24.2306H18.3321C18.1151 24.2306 17.9285 24.3832 17.8871 24.5945L15.7461 35.5183C15.7203 35.6501 15.7552 35.7864 15.8413 35.8901C15.9274 35.9938 16.0558 36.0537 16.1912 36.0537H18.5908C18.8079 36.0537 18.9945 35.9011 19.0359 35.6898L19.5338 33.1495H21.2153C22.1662 33.1495 22.9667 33.0466 23.5944 32.8439C24.2399 32.6359 24.8337 32.2833 25.3594 31.7958C25.7941 31.3992 26.1522 30.954 26.4235 30.4725C26.6949 29.9908 26.8899 29.4536 27.003 28.8759C27.2838 27.4441 27.0557 26.2975 26.3252 25.4683C25.6017 24.647 24.4649 24.2306 22.9464 24.2306ZM19.4977 30.976H20.9573C21.9247 30.976 22.6453 30.7953 23.1188 30.4338C23.5924 30.0722 23.9118 29.4688 24.0777 28.6233C24.2365 27.8114 24.1642 27.2385 23.8608 26.9048C23.557 26.571 22.9494 26.4041 22.0378 26.4041H20.3937L19.4977 30.976ZM22.9464 24.6803C24.3346 24.6803 25.3472 25.0416 25.9837 25.7641C26.6201 26.4867 26.8118 27.4953 26.5579 28.7902C26.4533 29.3236 26.2766 29.8113 26.0277 30.2531C25.7785 30.6952 25.4532 31.0995 25.0511 31.466C24.5719 31.9107 24.0397 32.2276 23.4539 32.4163C22.8682 32.6056 22.1222 32.6998 21.2153 32.6998H19.1599L18.5908 35.604H16.1912L18.3321 24.6803H22.9464Z" fill="white"/>
<path d="M32.2822 32.9246C32.2145 32.9246 32.1504 32.8946 32.1074 32.8427C32.0642 32.7909 32.0468 32.7228 32.0597 32.6568L33.0067 27.8235C33.0968 27.3638 33.0746 27.0339 32.9442 26.8945C32.8644 26.8093 32.6247 26.6664 31.9159 26.6664H30.2001L29.0094 32.7426C28.9887 32.8483 28.8954 32.9246 28.7868 32.9246H26.4062C26.3385 32.9246 26.2743 32.8946 26.2312 32.8427C26.1881 32.7909 26.1707 32.7227 26.1836 32.6568L28.3245 21.733C28.3452 21.6274 28.4386 21.5511 28.5471 21.5511H30.9278C30.9955 21.5511 31.0596 21.5811 31.1027 21.6329C31.1458 21.6848 31.1633 21.7529 31.1503 21.8189L30.6337 24.4554H32.4794C33.8855 24.4554 34.839 24.7012 35.3943 25.207C35.9604 25.7229 36.137 26.5479 35.9194 27.6592L34.9233 32.7426C34.9026 32.8483 34.8093 32.9246 34.7007 32.9246H32.2822Z" fill="#1A1A1A"/>
<path d="M30.9278 21.3263H28.5472C28.33 21.3263 28.1434 21.4789 28.102 21.6902L25.9611 32.614C25.9353 32.7458 25.9702 32.8821 26.0563 32.9858C26.1425 33.0895 26.2708 33.1494 26.4062 33.1494H28.7869C29.004 33.1494 29.1906 32.9968 29.232 32.7855L30.3871 26.8912H31.9159C32.6235 26.8912 32.772 27.0411 32.778 27.0476C32.8209 27.0934 32.8774 27.3055 32.7842 27.7806L31.8372 32.614C31.8113 32.7458 31.8462 32.8821 31.9324 32.9858C32.0185 33.0895 32.1469 33.1494 32.2823 33.1494H34.7007C34.9178 33.1494 35.1045 32.9968 35.1459 32.7855L36.1419 27.7022C36.3757 26.5089 36.1757 25.6138 35.5478 25.0415C34.9486 24.4958 33.945 24.2306 32.4795 24.2306H30.9087L31.373 21.8618C31.3987 21.73 31.3639 21.5936 31.2777 21.49C31.1916 21.3863 31.0633 21.3263 30.9278 21.3263ZM30.9278 21.776L30.3587 24.6803H32.4795C33.8139 24.6803 34.7344 24.9112 35.241 25.3726C35.7476 25.8343 35.8993 26.5824 35.6968 27.6164L34.7007 32.6997H32.2823L33.2294 27.8665C33.3371 27.3166 33.2975 26.9416 33.1104 26.7416C32.9232 26.5417 32.525 26.4415 31.9159 26.4415H30.0132L28.7869 32.6997H26.4062L28.5472 21.776H30.9278Z" fill="white"/>
<path d="M39.6862 30.7511C40.598 30.7511 41.2788 30.5843 41.7095 30.2556C42.1356 29.9303 42.4299 29.3667 42.5842 28.5803C42.728 27.8454 42.6732 27.3322 42.4213 27.0553C42.1638 26.7724 41.6071 26.6289 40.7667 26.6289H39.3095L38.5017 30.7511H39.6862ZM34.9202 35.8289C34.8526 35.8289 34.7883 35.7989 34.7453 35.747C34.7023 35.6952 34.6847 35.627 34.6976 35.5611L36.8386 24.6373C36.8594 24.5317 36.9526 24.4554 37.0612 24.4554H41.6754C43.1256 24.4554 44.2049 24.8459 44.8834 25.6162C45.5655 26.3904 45.7761 27.4727 45.5094 28.833C45.4008 29.3872 45.2142 29.9019 44.9546 30.3626C44.6947 30.824 44.3512 31.2508 43.9335 31.6315C43.4334 32.0956 42.8675 32.4321 42.2529 32.6301C41.6481 32.8255 40.8713 32.9246 39.9442 32.9246H38.0758L37.5424 35.6469C37.5216 35.7526 37.4284 35.8289 37.3198 35.8289H34.9202Z" fill="#1A1A1A"/>
<path d="M39.4966 26.8538H40.7668C41.7812 26.8538 42.1335 27.0745 42.2532 27.2061C42.4519 27.4245 42.4894 27.8849 42.3617 28.5376C42.2182 29.2684 41.9523 29.7865 41.5713 30.0775C41.1811 30.3753 40.5469 30.5263 39.6863 30.5263H38.7769L39.4966 26.8538ZM41.6755 24.2306H37.0613C36.8442 24.2306 36.6576 24.3832 36.6162 24.5945L34.4753 35.5183C34.4494 35.6501 34.4843 35.7864 34.5704 35.8901C34.6566 35.9938 34.7849 36.0537 34.9203 36.0537H37.3199C37.5369 36.0537 37.7236 35.9011 37.765 35.6898L38.2628 33.1495H39.9443C40.8952 33.1495 41.6957 33.0466 42.3234 32.8439C42.9689 32.6359 43.5629 32.2832 44.0886 31.7957C44.5233 31.3991 44.8812 30.954 45.1525 30.4725C45.4239 29.9908 45.6189 29.4536 45.7321 28.8759C46.0128 27.444 45.7847 26.2975 45.0542 25.4682C44.3308 24.647 43.194 24.2306 41.6755 24.2306ZM38.2268 30.976H39.6863C40.6538 30.976 41.3744 30.7953 41.8479 30.4338C42.3215 30.0722 42.6408 29.4688 42.8068 28.6233C42.9657 27.8114 42.8933 27.2385 42.5898 26.9048C42.286 26.571 41.6784 26.4041 40.7668 26.4041H39.1228L38.2268 30.976ZM41.6755 24.6803C43.0636 24.6803 44.0763 25.0416 44.7128 25.7641C45.3493 26.4867 45.5408 27.4953 45.2869 28.7902C45.1824 29.3236 45.0056 29.8113 44.7567 30.2531C44.5076 30.6952 44.1822 31.0995 43.7801 31.466C43.301 31.9107 42.7687 32.2276 42.183 32.4163C41.5973 32.6056 40.8513 32.6998 39.9443 32.6998H37.889L37.3199 35.604H34.9203L37.0613 24.6803H41.6755Z" fill="white"/>
</g>
</g>
<defs>
<filter id="filter0_b_2970_199" x="-10" y="-10" width="80" height="80" filterUnits="userSpaceOnUse" color-interpolation-filters="sRGB">
<feFlood flood-opacity="0" result="BackgroundImageFix"/>
<feGaussianBlur in="BackgroundImageFix" stdDeviation="5"/>
<feComposite in2="SourceAlpha" operator="in" result="effect1_backgroundBlur_2970_199"/>
<feBlend mode="normal" in="SourceGraphic" in2="effect1_backgroundBlur_2970_199" result="shape"/>
</filter>
<clipPath id="clip0_2970_199">
<rect width="43" height="23" fill="white" transform="translate(9 18)"/>
</clipPath>
</defs>
</svg>
