<svg width="60" height="60" viewBox="0 0 60 60" fill="none" xmlns="http://www.w3.org/2000/svg">
<g clip-path="url(#clip0_2971_254)">
<g filter="url(#filter0_b_2971_254)">
<circle cx="30" cy="30" r="30" fill="white" fill-opacity="0.1"/>
</g>
<path fill-rule="evenodd" clip-rule="evenodd" d="M41.2117 39.9682L26.0306 44.4821C25.9249 44.514 25.8126 44.5181 25.7048 44.4939C25.5969 44.4697 25.4973 44.418 25.4155 44.3439C25.3337 44.2697 25.2725 44.1757 25.238 44.071C25.2036 43.9663 25.1969 43.8544 25.2187 43.7464L30.643 17.6311C30.666 17.5244 30.7218 17.4275 30.8028 17.3542C30.8838 17.2808 30.9857 17.2346 31.0944 17.222C31.2031 17.2094 31.313 17.2311 31.4086 17.284C31.5043 17.3369 31.581 17.4183 31.6278 17.5169L41.6694 38.9582C41.7144 39.0535 41.7382 39.1574 41.739 39.2628C41.7398 39.3682 41.7177 39.4725 41.6742 39.5685C41.6307 39.6645 41.5668 39.75 41.487 39.819C41.4071 39.888 41.3132 39.939 41.2117 39.9682ZM43.8155 38.9023L32.1914 14.0763C32.0486 13.7701 31.8247 13.5085 31.544 13.3197C31.2632 13.1308 30.9362 13.0218 30.598 13.0043C30.2598 12.9811 29.9217 13.0515 29.621 13.2076C29.3203 13.3638 29.0686 13.5997 28.8937 13.8894L16.2885 34.4298C16.0962 34.7407 15.9962 35.0996 16.0001 35.4649C16.004 35.8302 16.1116 36.1869 16.3104 36.4937L22.4749 46.0955C22.7072 46.4544 23.0497 46.7285 23.4513 46.8769C23.8529 47.0253 24.2919 47.0399 24.7026 46.9187L42.597 41.5975C42.8672 41.519 43.1172 41.383 43.3297 41.1989C43.5422 41.0147 43.7122 40.7868 43.8279 40.5309C43.9436 40.275 44.0023 39.9971 43.9999 39.7163C43.9976 39.4356 43.9343 39.1587 43.8143 38.9047L43.8155 38.9023Z" fill="white"/>
</g>
<defs>
<filter id="filter0_b_2971_254" x="-10" y="-10" width="80" height="80" filterUnits="userSpaceOnUse" color-interpolation-filters="sRGB">
<feFlood flood-opacity="0" result="BackgroundImageFix"/>
<feGaussianBlur in="BackgroundImageFix" stdDeviation="5"/>
<feComposite in2="SourceAlpha" operator="in" result="effect1_backgroundBlur_2971_254"/>
<feBlend mode="normal" in="SourceGraphic" in2="effect1_backgroundBlur_2971_254" result="shape"/>
</filter>
<clipPath id="clip0_2971_254">
<rect width="60" height="60" fill="white"/>
</clipPath>
</defs>
</svg>
