<svg width="60" height="60" viewBox="0 0 60 60" fill="none" xmlns="http://www.w3.org/2000/svg">
<g clip-path="url(#clip0_2970_18)">
<g filter="url(#filter0_b_2970_18)">
<circle cx="30" cy="30" r="30" fill="white" fill-opacity="0.1"/>
</g>
<path d="M10 29.9353C10 32.9592 12.9498 35.7821 17.6002 37.3733C16.6715 42.0531 17.4339 45.8253 19.9798 47.295C22.5966 48.8058 26.4952 47.76 30.1956 44.522C33.8025 47.6293 37.4479 48.8521 39.9916 47.3781C42.6061 45.863 43.4011 41.8352 42.4468 37.0091C47.2906 35.4061 50 32.9991 50 29.9353C50 26.9815 47.0448 24.4262 42.457 22.8452C43.4844 17.8198 42.6139 14.1393 39.9625 12.6088C37.4064 11.1332 33.7186 12.4193 30.0586 15.6077C26.2509 12.2235 22.5996 11.1904 19.951 12.7251C17.3972 14.2049 16.6686 18.0456 17.6002 22.812C13.1067 24.3803 10 26.9935 10 29.9353Z" fill="white"/>
<path d="M41.5994 24.3718C41.2162 24.2404 40.8298 24.1188 40.4404 24.0069C40.505 23.7448 40.5647 23.4816 40.6195 23.2173C41.4968 18.9628 40.9232 15.5355 38.9645 14.4073C37.0865 13.3252 34.0151 14.4534 30.9131 17.1503C30.6074 17.4167 30.3085 17.6907 30.0167 17.9721C29.8213 17.785 29.6224 17.6015 29.4202 17.4217C26.1692 14.5378 22.9106 13.3226 20.954 14.4542C19.0778 15.5393 18.522 18.7615 19.3118 22.7934C19.3904 23.1927 19.4791 23.5899 19.5779 23.9846C19.1168 24.1155 18.6715 24.2549 18.2455 24.4033C14.4341 25.7308 12 27.8115 12 29.9696C12 32.1987 14.6129 34.4345 18.5829 35.79C18.9048 35.8994 19.2294 36.0008 19.5564 36.094C19.4502 36.5193 19.3559 36.9475 19.2736 37.3781C18.5206 41.34 19.1087 44.4857 20.9799 45.5641C22.9127 46.6776 26.1565 45.5331 29.3152 42.7746C29.5649 42.5565 29.8155 42.3253 30.0664 42.0828C30.3825 42.3875 30.707 42.6833 31.0396 42.9699C34.0992 45.6003 37.1209 46.6624 38.9906 45.5812C40.9216 44.4644 41.549 41.085 40.7342 36.9733C40.6721 36.6593 40.5996 36.3385 40.5183 36.0119C40.7462 35.9447 40.9697 35.8753 41.1878 35.8031C45.3149 34.437 48 32.2285 48 29.9696C48 27.8037 45.4875 25.709 41.5994 24.3718Z" fill="#1A1A1A"/>
<path d="M40.4036 34.2048C40.2123 34.2678 40.016 34.3286 39.8159 34.3876C39.3731 32.9931 38.7753 31.5102 38.0441 29.9783C38.742 28.4826 39.3165 27.0187 39.747 25.6332C40.1049 25.7364 40.4524 25.845 40.7871 25.9597C44.025 27.0683 46 28.7078 46 29.9709C46 31.3164 43.8668 33.0632 40.4036 34.2048ZM38.9666 37.0374C39.3167 38.7968 39.3667 40.3876 39.1347 41.6311C38.9263 42.7485 38.5073 43.4934 37.9892 43.7918C36.8865 44.4268 34.5283 43.6014 31.9853 41.4245C31.6937 41.175 31.4 40.9085 31.1055 40.6266C32.0914 39.5539 33.0767 38.3068 34.0383 36.922C35.7299 36.7727 37.328 36.5286 38.7772 36.1954C38.8484 36.4819 38.9119 36.7627 38.9666 37.0374ZM24.4339 43.6821C23.3566 44.0606 22.4986 44.0714 21.98 43.7739C20.8763 43.1408 20.4176 40.6963 21.0433 37.4175C21.1177 37.0301 21.203 36.6447 21.2988 36.262C22.732 36.5773 24.3184 36.8042 26.014 36.941C26.982 38.296 27.9958 39.5416 29.0175 40.6323C28.8003 40.8413 28.5781 41.0449 28.3509 41.2429C26.9933 42.4235 25.6329 43.2608 24.4341 43.6821H24.4339ZM19.3869 34.1965C17.6808 33.6163 16.2718 32.8625 15.306 32.0399C14.4382 31.3005 14 30.5665 14 29.9709C14 28.7036 15.8995 27.087 19.0676 25.9882C19.4652 25.8509 19.8668 25.7252 20.2719 25.6113C20.7098 27.028 21.2841 28.5092 21.9772 30.0071C21.2751 31.5273 20.6926 33.0321 20.2507 34.4654C19.9606 34.3828 19.6726 34.2931 19.3869 34.1965ZM21.0788 22.7406C20.4212 19.3975 20.8578 16.8758 21.9568 16.243C23.1275 15.5689 25.7158 16.5301 28.4439 18.9397C28.6183 19.0938 28.7934 19.255 28.9689 19.4219C27.9524 20.5077 26.9479 21.7438 25.9883 23.0911C24.3427 23.2428 22.7674 23.4865 21.3193 23.8129C21.2301 23.4575 21.1499 23.1001 21.0788 22.7406ZM36.1715 26.4479C35.8295 25.8601 35.4747 25.2798 35.1076 24.7072C36.224 24.8474 37.2936 25.0338 38.2979 25.2619C37.9964 26.2233 37.6206 27.2285 37.1781 28.259C36.8547 27.6487 36.5191 27.0449 36.1715 26.4479ZM30.0167 20.4844C30.7061 21.2274 31.3966 22.057 32.0758 22.957C30.6981 22.8923 29.3181 22.892 27.9403 22.9561C28.6201 22.0644 29.3165 21.236 30.0167 20.4844ZM23.8224 26.458C23.4792 27.0503 23.1499 27.6504 22.8348 28.258C22.3995 27.231 22.0271 26.2213 21.723 25.2462C22.7213 25.0239 23.7859 24.8423 24.8951 24.7045C24.5238 25.2806 24.1661 25.8652 23.8224 26.458ZM24.927 35.3434C23.7811 35.2162 22.7004 35.0438 21.7024 34.8277C22.0113 33.8354 22.3919 32.8039 22.8365 31.7549C23.1529 32.3629 23.4837 32.9634 23.8285 33.556C24.1803 34.1604 24.5466 34.7564 24.927 35.3434ZM30.0581 39.5624C29.3496 38.8019 28.6431 37.9608 27.9529 37.0562C28.6228 37.0824 29.3058 37.0956 30 37.0956C30.7132 37.0956 31.4183 37.0797 32.1121 37.0489C31.4308 37.9701 30.7428 38.8124 30.0581 39.5624ZM37.1923 31.7015C37.66 32.7619 38.0542 33.7878 38.3673 34.7633C37.3527 34.9936 36.2575 35.1791 35.1034 35.3168C35.4732 34.7335 35.8314 34.143 36.1776 33.5456C36.5295 32.9385 36.8679 32.3236 37.1923 31.7015ZM34.8827 32.8029C34.3527 33.7188 33.7929 34.6173 33.2041 35.497C32.166 35.5708 31.0932 35.6088 30 35.6088C28.9113 35.6088 27.8521 35.5751 26.8321 35.5093C26.2281 34.6317 25.6577 33.7316 25.1221 32.811C24.589 31.8954 24.091 30.9599 23.6293 30.0066C24.0899 29.0531 24.5863 28.1171 25.1176 27.2007V27.201C25.6487 26.2843 26.2146 25.3881 26.8141 24.5142C27.8547 24.436 28.9216 24.395 30.0002 24.395C31.0835 24.395 32.1518 24.4363 33.1921 24.5151C33.7855 25.3877 34.3478 26.2808 34.8779 27.1928C35.411 28.1072 35.9141 29.0386 36.3863 29.9855C35.9189 30.9421 35.4173 31.8818 34.8827 32.8029ZM37.9662 16.1988C39.1378 16.871 39.5936 19.5816 38.8574 23.1364C38.8092 23.3679 38.7567 23.5986 38.7001 23.8283C37.2485 23.4951 35.6721 23.2471 34.0218 23.0931C33.0603 21.7312 32.0641 20.4929 31.0641 19.4211C31.3262 19.1698 31.5945 18.925 31.8687 18.687C34.4519 16.4506 36.8662 15.5677 37.9662 16.1988Z" fill="white"/>
<path d="M30 27C31.6569 27 33 28.3432 33 29.9999C33 31.6568 31.6569 33 30 33C28.3432 33 27 31.6568 27 29.9999C27 28.3432 28.3432 27 30 27Z" fill="#1A1A1A"/>
</g>
<defs>
<filter id="filter0_b_2970_18" x="-10" y="-10" width="80" height="80" filterUnits="userSpaceOnUse" color-interpolation-filters="sRGB">
<feFlood flood-opacity="0" result="BackgroundImageFix"/>
<feGaussianBlur in="BackgroundImageFix" stdDeviation="5"/>
<feComposite in2="SourceAlpha" operator="in" result="effect1_backgroundBlur_2970_18"/>
<feBlend mode="normal" in="SourceGraphic" in2="effect1_backgroundBlur_2970_18" result="shape"/>
</filter>
<clipPath id="clip0_2970_18">
<rect width="60" height="60" fill="white"/>
</clipPath>
</defs>
</svg>
