<svg width="60" height="60" viewBox="0 0 60 60" fill="none" xmlns="http://www.w3.org/2000/svg">
<g filter="url(#filter0_b_2971_262)">
<circle cx="30" cy="30" r="30" fill="white" fill-opacity="0.1"/>
</g>
<g clip-path="url(#clip0_2971_262)">
<path d="M36.9442 36.8445C38.2728 36.7057 39.2806 35.5496 39.2347 34.1622C39.189 32.7749 38.0436 31.6649 36.6693 31.6649H36.5776C35.1576 31.7112 34.0581 32.9136 34.1038 34.3471C34.1497 35.0409 34.4245 35.6421 34.8369 36.0584C33.2793 39.1569 30.8972 41.423 27.3239 43.3191C24.8958 44.6139 22.3761 45.0764 19.8565 44.7527C17.795 44.4752 16.1916 43.5502 15.1837 42.0241C13.7178 39.7581 13.5803 37.3069 14.8172 34.8559C15.6877 33.0985 17.062 31.8036 17.9324 31.1562C17.7492 30.555 17.4743 29.5375 17.3369 28.7976C10.6942 33.6535 11.3814 40.2206 13.3971 43.3191C14.9089 45.6314 17.9782 47.065 21.3683 47.065C22.2845 47.065 23.2007 46.9725 24.117 46.7414C29.9808 45.5852 34.4245 42.0703 36.9442 36.8445ZM45.007 31.1098C41.5254 26.994 36.3945 24.7279 30.5305 24.7279H29.7976C29.3853 23.8954 28.5148 23.3405 27.5529 23.3405H27.4612C26.041 23.3867 24.9416 24.5891 24.9874 26.0228C25.0332 27.4102 26.1785 28.5201 27.5529 28.5201H27.6444C28.6522 28.4739 29.5227 27.8263 29.8891 26.9477H30.7138C34.1955 26.9477 37.494 27.9651 40.4717 29.9538C42.7623 31.4799 44.4114 33.4684 45.3278 35.8732C46.1066 37.8157 46.0607 39.7118 45.2361 41.3304C43.9533 43.7816 41.8002 45.1227 38.96 45.1227C37.1274 45.1227 35.3866 44.5677 34.4704 44.1514C33.9664 44.6139 33.0502 45.3539 32.4088 45.8163C34.3788 46.7414 36.3945 47.25 38.3186 47.25C42.7164 47.25 45.969 44.799 47.2059 42.3478C48.5345 39.6655 48.4429 35.0409 45.007 31.1098ZM21.7348 37.6306C21.7806 39.0181 22.9259 40.128 24.3002 40.128H24.3918C25.812 40.0818 26.9115 38.8794 26.8657 37.4457C26.8199 36.0584 25.6746 34.9483 24.3002 34.9483H24.2086C24.117 34.9483 23.9795 34.9483 23.8879 34.9947C22.0097 31.8498 21.2309 28.4276 21.5057 24.7279C21.689 21.9531 22.6052 19.5483 24.2086 17.5596C25.5371 15.8485 28.1025 15.0161 29.8434 14.9698C34.6995 14.8773 36.7609 20.9819 36.8983 23.433C37.494 23.5717 38.5018 23.8954 39.189 24.1267C38.6392 16.6347 34.0581 12.75 29.6601 12.75C25.5371 12.75 21.7348 15.756 20.223 20.1957C18.1157 26.1153 19.49 31.8036 22.0555 36.2895C21.8264 36.6132 21.689 37.122 21.7348 37.6306Z" fill="white"/>
</g>
<defs>
<filter id="filter0_b_2971_262" x="-10" y="-10" width="80" height="80" filterUnits="userSpaceOnUse" color-interpolation-filters="sRGB">
<feFlood flood-opacity="0" result="BackgroundImageFix"/>
<feGaussianBlur in="BackgroundImageFix" stdDeviation="5"/>
<feComposite in2="SourceAlpha" operator="in" result="effect1_backgroundBlur_2971_262"/>
<feBlend mode="normal" in="SourceGraphic" in2="effect1_backgroundBlur_2971_262" result="shape"/>
</filter>
<clipPath id="clip0_2971_262">
<rect width="36" height="36" fill="white" transform="translate(12 12)"/>
</clipPath>
</defs>
</svg>
