<svg width="60" height="60" viewBox="0 0 60 60" fill="none" xmlns="http://www.w3.org/2000/svg">
<g filter="url(#filter0_b_2971_260)">
<circle cx="30" cy="30" r="30" fill="white" fill-opacity="0.1"/>
</g>
<path d="M44.4336 32.2457C44.4824 32.2445 44.5399 32.2432 44.5987 32.2432C45.6417 32.2432 46.6284 32.4857 47.5038 32.9182L47.4651 32.9007C48.2629 33.2895 48.9182 33.8645 49.3922 34.5696L49.4035 34.5871C49.7774 35.1321 50 35.8059 50 36.5309C50 36.5834 49.9988 36.6359 49.9963 36.6872V36.6797C49.9575 37.4034 49.6286 38.0422 49.1233 38.4897L49.1208 38.4922C48.8445 38.7635 48.5106 38.976 48.1391 39.111L48.1204 39.1173C47.9119 39.1589 47.7973 39.1277 47.7765 39.0235C47.7556 38.9193 47.8494 38.8047 48.0578 38.6797C48.6231 38.3372 49.032 37.7847 49.1809 37.1334L49.1846 37.1172C49.1884 37.0647 49.1909 37.0034 49.1909 36.9409C49.1909 36.5521 49.0983 36.1846 48.9345 35.8596L48.9408 35.8734C48.6694 35.3071 48.2642 34.8421 47.7652 34.5058L47.7527 34.4983C47.0061 34.0183 46.1107 33.7033 45.1477 33.6245L45.1277 33.6233C44.8001 33.5745 44.4224 33.547 44.0372 33.547C43.0355 33.547 42.0788 33.7358 41.1984 34.0795L41.2509 34.0608C41.4322 34.4846 41.546 34.9758 41.5623 35.4909V35.4971C41.5423 36.5534 40.9745 37.4722 40.1304 37.9847L40.1166 37.9922C39.7289 38.2672 39.2862 38.5085 38.8148 38.696L38.771 38.711C38.4846 38.851 38.1482 38.9322 37.793 38.9322C37.7518 38.9322 37.7117 38.931 37.6717 38.9285H37.678C36.8868 38.7627 36.6992 38.0751 37.1152 36.8659C37.2965 36.3396 37.5504 35.8834 37.8718 35.4821L37.8643 35.4909C38.2758 34.9533 38.7272 34.4821 39.2262 34.0645L39.24 34.0533L39.1174 33.8708C38.8885 33.4808 38.6784 33.027 38.5096 32.5532L38.4921 32.4957C38.367 32.079 38.2628 31.6836 38.1795 31.3094L38.1169 30.8719L37.4916 32.0582C36.9497 33.0583 36.4286 33.9329 35.9284 34.6821L35.7408 34.9946C35.9509 35.5046 36.106 36.0959 36.176 36.7134L36.1785 36.7447C36.1835 36.8034 36.186 36.8734 36.186 36.9434C36.186 37.891 35.7183 38.7285 35.0005 39.2398L34.9917 39.246C34.6491 39.4573 34.2401 39.676 33.8162 39.871L33.7411 39.9023C33.2997 40.0935 32.7882 40.2185 32.2517 40.2461H32.2404C32.1992 40.2486 32.1504 40.2511 32.1016 40.2511C31.789 40.2511 31.4926 40.1798 31.2275 40.0535L31.24 40.0585C31.0811 39.9223 30.9811 39.7223 30.9811 39.4985C30.9811 39.3848 31.0073 39.276 31.0536 39.1798L31.0511 39.1848C31.5514 38.4835 32.0441 37.8735 32.5681 37.2909L32.5518 37.3097L33.9275 35.5609L33.6786 34.9983C33.4785 34.6308 33.2872 34.197 33.1333 33.747L33.1158 33.687C32.9908 33.2703 32.8866 32.8749 32.8032 32.5007L32.7407 32.0632L32.1154 33.5633C31.616 34.7292 31.1574 35.7288 30.7397 36.5621C30.1169 37.8122 29.5959 38.7706 29.1765 39.4373L29.0514 39.6248C28.552 40.4156 28.0726 40.8111 27.6133 40.8111C27.1539 40.8111 26.8425 40.5194 26.6791 39.936C26.559 39.506 26.489 39.0123 26.489 38.5022C26.489 38.4572 26.489 38.4122 26.4902 38.3672V38.3735L26.6153 37.4984V37.5609C26.2818 38.3518 25.9483 39.0806 25.6148 39.7473C25.3935 40.1798 25.1659 40.5486 24.9107 40.8961L24.927 40.8723C24.6694 41.1423 24.3067 41.3098 23.9053 41.3098C23.9015 41.3098 23.899 41.3098 23.8953 41.3098C23.869 41.3123 23.839 41.3123 23.809 41.3123C23.4926 41.3123 23.2049 41.1923 22.9873 40.9961L22.9886 40.9973C22.5521 40.5498 22.2282 39.991 22.0607 39.3673L22.0544 39.341C21.8493 38.7722 21.7318 38.1147 21.7318 37.4297C21.7318 37.3409 21.7343 37.2534 21.738 37.1672V37.1797C21.8368 36.1846 22.0356 35.2733 22.327 34.4046L22.3008 34.4933L20.051 35.8059V35.8684C20.3774 36.5459 20.5687 37.3409 20.5687 38.181C20.5687 38.3347 20.5625 38.4872 20.5499 38.6372L20.5512 38.6172C20.4849 39.9048 20.0735 41.0836 19.4094 42.0799L19.4257 42.0549C18.7291 43.1599 17.7249 44.0137 16.5318 44.5075L16.4905 44.5225C15.819 44.8237 15.0336 45 14.2082 45C13.6855 45 13.1777 44.93 12.6975 44.7975L12.7375 44.8062C12.3398 44.6725 12.0147 44.4075 11.8083 44.065L11.8046 44.0575C11.5132 43.6349 11.3294 43.1187 11.3006 42.5624V42.5549C11.2869 42.4286 11.2793 42.2824 11.2793 42.1336C11.2793 41.4924 11.4257 40.8848 11.687 40.3436L11.6758 40.3686C12.3936 39.1448 13.3866 38.1535 14.5721 37.4559L14.6097 37.4359C15.4488 36.8547 16.413 36.2909 17.4197 35.7996L17.5523 35.7409L17.8649 35.5534C17.4898 35.2617 16.8019 34.7617 15.8015 34.0533C14.4646 33.1583 13.3028 32.2545 12.2073 31.2769L12.2385 31.3044C11.1793 30.3931 10.4077 29.1756 10.0613 27.7893L10.0513 27.7418C10.0188 27.5493 10 27.328 10 27.103C10 26.398 10.1813 25.7354 10.499 25.1592L10.489 25.1804C11.1893 23.6754 12.1598 22.4066 13.3503 21.3865L13.3653 21.374C14.6534 20.1577 16.1116 19.0989 17.6949 18.2414L17.8037 18.1876C19.2181 17.3713 20.8701 16.6126 22.5922 16.0038L22.8048 15.9388C24.4043 15.3538 26.2514 15.0113 28.1773 15.005H28.1798C28.2673 15.0025 28.3711 15 28.4749 15C30.0269 15 31.4951 15.3588 32.8007 15.9975L32.7432 15.9713C33.8687 16.4838 34.7116 17.4489 35.0492 18.6289L35.0567 18.6589C35.1605 19.0614 35.2193 19.5239 35.2193 20.0002C35.2193 20.7902 35.0555 21.5428 34.7616 22.2253L34.7754 22.189C34.2401 23.4854 33.4785 24.5891 32.5281 25.4979L32.5243 25.5017C31.5614 26.4555 30.4071 27.218 29.1252 27.7268L29.0564 27.7505C27.7133 28.3268 26.1538 28.6893 24.5168 28.7493L24.493 28.7506C24.2529 28.7781 23.9753 28.7931 23.6939 28.7931C22.9536 28.7931 22.2395 28.6868 21.5642 28.4881L21.6179 28.5018C21.0139 28.3093 20.4924 28.0105 20.0497 27.623L20.0547 27.6268C19.7446 27.3743 19.4919 27.063 19.3119 26.7092L19.3044 26.693C19.1793 26.3596 19.1689 26.1617 19.2731 26.0992C19.3773 26.0367 19.4503 26.0263 19.4919 26.068L19.8046 26.3805C20.1535 26.7042 20.57 26.9592 21.0302 27.1218L21.0552 27.1293C21.688 27.3493 22.4183 27.4768 23.1774 27.4768C23.4213 27.4768 23.6614 27.4643 23.8978 27.438L23.869 27.4405C25.8925 27.2018 27.7171 26.5117 29.2915 25.4742L29.2453 25.5029C30.5759 24.7117 31.6527 23.6241 32.4105 22.3278L32.433 22.2853C32.8094 21.7328 33.0345 21.0503 33.0345 20.3152C33.0345 19.864 32.9495 19.4314 32.7944 19.0339L32.8032 19.0577C32.3355 18.3189 31.5789 17.7989 30.696 17.6551L30.6784 17.6526C29.9931 17.4839 29.2053 17.3863 28.3961 17.3863C27.7446 17.3863 27.1068 17.4489 26.4902 17.5689L26.5528 17.5589C24.443 17.9389 22.5571 18.5901 20.8176 19.4852L20.9314 19.4314C15.8056 22.0149 13.159 24.6604 12.9914 27.368V27.4293C12.9914 28.5206 13.4204 29.5119 14.1194 30.2444L14.1182 30.2431C14.9148 31.1282 15.7952 31.9095 16.7569 32.5845L16.8057 32.617C17.6824 33.272 18.4577 33.9483 19.1793 34.6783L19.1806 34.6808L19.3056 34.8058L23.3075 32.6195C23.764 31.9595 24.313 31.4019 24.9433 30.9519L24.9633 30.9382C25.4635 30.5181 26.0988 30.2444 26.7954 30.1894L26.8066 30.1881C26.8316 30.1856 26.8604 30.1856 26.8904 30.1856C27.3569 30.1856 27.7571 30.4669 27.9297 30.8694L27.9322 30.8769C28.0635 31.1707 28.1398 31.5144 28.1398 31.8757C28.1398 31.9857 28.1323 32.0945 28.1185 32.202L28.1197 32.1895L27.9984 32.8057L28.186 32.6807C28.3161 32.582 28.4799 32.5232 28.6575 32.5232C28.7701 32.5232 28.8763 32.547 28.9726 32.5895L28.9676 32.587C29.2078 32.6495 29.3816 32.8645 29.3816 33.1195C29.3816 33.1633 29.3766 33.2058 29.3666 33.247L29.3678 33.2433L29.1802 33.9308C28.8051 35.43 28.5554 36.513 28.4311 37.1797C28.3686 37.3959 28.3336 37.6447 28.3336 37.9022C28.3336 37.956 28.3348 38.0085 28.3386 38.061V38.0535C28.3594 38.3035 28.3907 38.4285 28.4324 38.4285C28.4741 38.4285 28.557 38.3035 28.6813 38.0535L28.8688 37.6159C28.9105 37.6159 28.9105 37.6368 28.8688 37.6784L29.5567 36.2409C31.1824 32.6591 32.0574 30.659 32.1816 30.2406L32.5568 29.0543C32.5985 28.971 32.7653 28.8881 33.0571 28.8056C33.3534 28.7256 33.6924 28.6793 34.0425 28.6793C34.0713 28.6793 34.1 28.6793 34.1276 28.6806H34.1238C34.7074 28.6806 34.9992 28.8264 34.9992 29.1181L34.9367 29.4306C34.7966 29.8156 34.6578 30.2969 34.5503 30.7894L34.5365 30.8682C34.5115 31.0294 34.4965 31.2144 34.4965 31.4044C34.4965 31.6569 34.5215 31.9032 34.5703 32.142L34.5665 32.1182L34.629 32.367C34.7566 32.8882 34.9504 33.3458 35.2043 33.7633L35.1918 33.742C35.6912 32.9095 36.1706 32.0557 36.63 31.1807C36.9927 30.5769 37.3303 29.8769 37.6017 29.1443L37.6305 29.0568C37.7242 28.5856 37.8318 28.188 37.9631 27.8005L37.9431 27.8705C37.9848 27.7455 38.1628 27.6518 38.4771 27.5893C38.7747 27.5293 39.1161 27.4955 39.4651 27.4955H39.5101H39.5076C40.0912 27.4955 40.4026 27.6414 40.4418 27.933L40.3167 28.1818C40.1679 28.6018 40.0378 29.1068 39.9503 29.6256L39.9428 29.6819C39.9315 29.8031 39.924 29.9431 39.924 30.0856C39.924 30.3844 39.954 30.6769 40.0103 30.9594L40.0053 30.9307V31.1794C40.1491 31.7244 40.363 32.2032 40.6431 32.637L40.6306 32.617L40.8182 33.0545C41.8624 32.542 43.0905 32.242 44.3886 32.242H44.4374H44.4349L44.4336 32.2457ZM17.6223 41.3123C18.4915 40.4148 19.028 39.1898 19.028 37.8397C19.028 37.3184 18.9479 36.8159 18.8004 36.3434L18.8104 36.3784L17.8099 37.0034C16.7894 37.5847 15.9065 38.2335 15.1074 38.971L15.1174 38.9622C14.5109 39.5198 14.0632 40.2411 13.8431 41.0548L13.8355 41.0861C13.648 41.857 13.7418 42.357 14.1169 42.5862C14.3458 42.6912 14.6147 42.7524 14.896 42.7524C15.2037 42.7524 15.4951 42.6799 15.7514 42.5499L15.7402 42.5549C16.483 42.2849 17.1121 41.8561 17.6123 41.3073L17.6161 41.3036L17.6223 41.3123ZM25.9975 35.5571C26.2059 35.0154 26.4352 34.3696 26.6853 33.6195C27.0188 32.6195 27.1334 32.0365 27.0292 31.8707C26.925 31.7049 26.727 31.684 26.4352 31.8082C26.0875 31.977 25.7962 32.2082 25.5635 32.492L25.5598 32.497C25.2997 32.8257 25.0521 33.1933 24.832 33.5795L24.8094 33.622C24.5568 34.0358 24.343 34.5121 24.1942 35.0171L24.1829 35.0596C23.9415 35.7134 23.8015 36.4696 23.8015 37.2572C23.8015 37.3634 23.804 37.4684 23.809 37.5734V37.5584C23.8507 38.391 23.9841 38.8389 24.2092 38.9022C24.4343 38.9656 24.6948 38.6635 24.9908 37.996C25.2772 37.4797 25.5323 36.8797 25.7224 36.2509L25.7399 36.1834C25.8641 35.8884 25.9491 35.6796 25.995 35.5571H25.9975ZM32.9333 38.8697C33.7999 38.481 34.4102 37.6622 34.4952 36.6934L34.4965 36.6834V36.6209L33.8087 37.4959L32.5593 38.871C32.5406 38.886 32.5281 38.9085 32.5281 38.9335C32.5281 38.9585 32.5406 38.981 32.5581 38.996C32.5981 39.0368 32.7232 38.9952 32.9333 38.871V38.8697ZM38.3095 37.6822C39.255 37.4122 39.9353 36.5559 39.9353 35.5421C39.9353 35.5259 39.9353 35.5096 39.9353 35.4934V35.4959C39.9228 35.2458 39.8778 35.0108 39.804 34.7883L39.809 34.8071C39.3225 35.2396 38.9236 35.7571 38.6347 36.3409L38.6209 36.3696C38.2449 37.1188 38.1399 37.5555 38.3058 37.6797L38.3095 37.6822Z" fill="white"/>
<defs>
<filter id="filter0_b_2971_260" x="-10" y="-10" width="80" height="80" filterUnits="userSpaceOnUse" color-interpolation-filters="sRGB">
<feFlood flood-opacity="0" result="BackgroundImageFix"/>
<feGaussianBlur in="BackgroundImageFix" stdDeviation="5"/>
<feComposite in2="SourceAlpha" operator="in" result="effect1_backgroundBlur_2971_260"/>
<feBlend mode="normal" in="SourceGraphic" in2="effect1_backgroundBlur_2971_260" result="shape"/>
</filter>
</defs>
</svg>
