<svg width="60" height="60" viewBox="0 0 60 60" fill="none" xmlns="http://www.w3.org/2000/svg">
<g filter="url(#filter0_b_3036_41)">
<circle cx="30" cy="30" r="30" fill="white" fill-opacity="0.1"/>
</g>
<path fill-rule="evenodd" clip-rule="evenodd" d="M41.4376 18.7276C41.5641 18.7276 41.7329 18.812 41.754 19.0018C41.761 19.0653 42.2024 22.0582 42.7859 26.0148C43.9466 33.8848 45.6696 45.5677 45.6555 45.5958L34.5202 48L14 44.1617C14 44.1617 16.6362 23.768 16.7417 23.051C16.8682 22.1019 16.8893 22.0808 17.9016 21.7645C17.9816 21.7302 18.3962 21.603 19.0479 21.403C19.5986 21.234 20.3187 21.013 21.1494 20.7522C21.8453 17.7996 24.0808 12 28.7206 12C29.3111 12 30.0281 12.3374 30.5765 13.0545H30.7663C32.7698 13.0545 33.8875 14.7627 34.5413 16.6397C35.1951 16.4288 35.5958 16.3023 35.6169 16.3023C35.7856 16.2601 36.1863 16.1968 36.3972 16.4077C36.6292 16.5975 38.5483 18.5167 38.5483 18.5167C38.5483 18.5167 41.3111 18.7276 41.4376 18.7276ZM31.6731 17.4833C32.2847 17.2724 32.8963 17.0826 33.4025 16.935C32.9596 15.5852 32.3058 14.4253 31.2513 14.2988C31.5255 15.0369 31.6731 15.9649 31.6731 17.1037V17.4833ZM30.4288 17.652C30.4288 16.2601 30.239 15.2478 29.9649 14.5308C28.8682 15.0158 27.5395 16.3234 26.8436 18.9807C27.5898 18.7404 28.3208 18.5152 29.0321 18.2962C29.5069 18.15 29.9729 18.0064 30.4288 17.8629V17.652ZM29.2056 13.4341C29.0369 13.3076 28.826 13.2232 28.6151 13.2232C25.283 13.2232 23.3849 17.6098 22.6257 20.3093C23.1126 20.1508 23.6117 19.9983 24.123 19.8421C24.5639 19.7075 25.0138 19.57 25.4728 19.4236C26.1265 15.8805 27.7083 14.1301 29.2056 13.4341ZM29.4165 28.9137L30.7662 24.8434C30.7662 24.8434 29.8383 24.2951 28.0246 24.3162C23.1529 24.3162 20.7486 27.564 20.7486 30.9172C20.7486 33.1709 22.0028 34.1904 23.1004 35.0826C23.9544 35.7767 24.7135 36.3938 24.7135 37.455C24.7135 38.0455 24.2917 38.8469 23.2583 38.8469C21.6977 38.8469 19.8418 37.2441 19.8418 37.2441L18.8928 40.3654C18.8928 40.3654 20.6643 42.5587 24.2073 42.5587C27.1388 42.5587 29.311 40.3443 29.311 36.9067C29.311 34.2641 27.5337 32.9584 26.1307 31.9277C25.216 31.2557 24.4604 30.7007 24.4604 29.9682C24.4604 29.6307 24.5659 28.2599 26.7381 28.2599C28.1933 28.2599 29.4165 28.9137 29.4165 28.9137Z" fill="white"/>
<defs>
<filter id="filter0_b_3036_41" x="-10" y="-10" width="80" height="80" filterUnits="userSpaceOnUse" color-interpolation-filters="sRGB">
<feFlood flood-opacity="0" result="BackgroundImageFix"/>
<feGaussianBlur in="BackgroundImageFix" stdDeviation="5"/>
<feComposite in2="SourceAlpha" operator="in" result="effect1_backgroundBlur_3036_41"/>
<feBlend mode="normal" in="SourceGraphic" in2="effect1_backgroundBlur_3036_41" result="shape"/>
</filter>
</defs>
</svg>
