<svg width="60" height="60" viewBox="0 0 60 60" fill="none" xmlns="http://www.w3.org/2000/svg">
<g clip-path="url(#clip0_2970_117)">
<g filter="url(#filter0_b_2970_117)">
<circle cx="30" cy="30" r="30" fill="white" fill-opacity="0.1"/>
</g>
<path d="M35.1851 20.9926C34.4691 20.2818 33.3082 20.2818 32.5927 20.9926L20.9261 32.5739C19.4935 33.9948 17.1725 33.9948 15.741 32.5739C14.308 31.1524 14.308 28.8482 15.741 27.426L27.1831 16.0682C25.7513 14.6465 23.4294 14.6465 21.9976 16.0682L13.1475 24.8532C10.2842 27.6961 10.2842 32.3046 13.1475 35.1478C16.0116 37.9909 20.654 37.9909 23.5181 35.1478L35.1851 23.5664C35.9005 22.8557 35.9005 21.7033 35.1851 20.9926ZM39.0739 17.1325C36.2099 14.2892 31.5675 14.2892 28.7034 17.1325L17.037 28.7132C16.3215 29.4235 16.3215 30.5766 17.037 31.287C17.7529 31.9976 18.9132 31.9976 19.6293 31.287L31.2967 19.7063C32.7286 18.2845 35.0495 18.2845 36.4811 19.7063C37.1977 20.4165 38.3582 20.4165 39.0741 19.7063C39.79 18.9949 39.7899 17.8432 39.0739 17.1325ZM42.9631 28.7132C42.2472 28.0033 41.086 28.0033 40.3701 28.7132L28.7034 40.2944C27.2716 41.7157 24.9499 41.7157 23.5181 40.2944C22.8026 39.5842 21.642 39.5842 20.9261 40.2944C20.2091 41.0053 20.2091 42.1578 20.9261 42.8677C23.789 45.7108 28.4325 45.7108 31.2966 42.8677L42.9631 31.287C43.6786 30.5768 43.6786 29.4236 42.9631 28.7132ZM46.8525 24.8533C43.9884 22.0107 39.3453 22.0107 36.4819 24.8533L24.8145 36.4347C24.0986 37.1447 24.0986 38.2978 24.8145 39.008C25.5309 39.7191 26.6918 39.7191 27.4073 39.008L39.0739 27.4269C40.5053 26.0053 42.8275 26.0053 44.259 27.4269C45.6908 28.8484 45.6908 31.1526 44.259 32.5741L32.8169 43.9326C34.2487 45.3535 36.5694 45.3535 38.0024 43.9326L46.8525 35.1477C49.7158 32.3043 49.7158 27.6959 46.8525 24.8533Z" fill="white"/>
</g>
<defs>
<filter id="filter0_b_2970_117" x="-10" y="-10" width="80" height="80" filterUnits="userSpaceOnUse" color-interpolation-filters="sRGB">
<feFlood flood-opacity="0" result="BackgroundImageFix"/>
<feGaussianBlur in="BackgroundImageFix" stdDeviation="5"/>
<feComposite in2="SourceAlpha" operator="in" result="effect1_backgroundBlur_2970_117"/>
<feBlend mode="normal" in="SourceGraphic" in2="effect1_backgroundBlur_2970_117" result="shape"/>
</filter>
<clipPath id="clip0_2970_117">
<rect width="60" height="60" fill="white"/>
</clipPath>
</defs>
</svg>
