<svg width="60" height="60" viewBox="0 0 60 60" fill="none" xmlns="http://www.w3.org/2000/svg">
<g filter="url(#filter0_b_2970_236)">
<circle cx="30" cy="30" r="30" fill="white" fill-opacity="0.1"/>
</g>
<g clip-path="url(#clip0_2970_236)">
<path d="M16 30V44H44V16H16V30ZM38.5627 28.8835C39.2741 29.0611 39.8158 29.3805 40.3171 29.895C40.5726 30.168 40.955 30.6694 40.9874 30.7928C40.9961 30.8295 39.7799 31.645 39.0414 32.1009C39.0143 32.1192 38.9049 32.0055 38.7859 31.827C38.4263 31.3029 38.0474 31.0754 37.469 31.0342C36.6211 30.9791 36.0743 31.4219 36.0786 32.1648C36.0743 32.3468 36.1154 32.5296 36.1968 32.6889C36.384 33.0765 36.7349 33.3084 37.819 33.7783C39.8245 34.6393 40.6811 35.2089 41.214 36.0156C41.8107 36.9178 41.9429 38.358 41.5421 39.4334C41.0959 40.5954 39.9925 41.3881 38.4429 41.648C37.9643 41.7346 36.825 41.7206 36.3096 41.6252C35.1844 41.4249 34.1177 40.8684 33.4615 40.1395C33.2016 39.8569 32.7002 39.114 32.7326 39.0641C32.7466 39.0457 32.8604 38.9731 32.9881 38.8996C33.1159 38.8261 33.5849 38.5531 34.0276 38.2976L34.8344 37.8286L35.0033 38.0789C35.2404 38.4385 35.7549 38.9311 36.0655 39.0947C36.9589 39.569 38.1848 39.5008 38.7911 38.9583C39.037 38.7535 39.1744 38.4385 39.156 38.12C39.156 37.7963 39.1149 37.651 38.946 37.4086C38.7273 37.0989 38.2854 36.8346 37.0227 36.2878C35.5781 35.663 34.9534 35.2806 34.389 34.6655C34.0338 34.2595 33.7695 33.7817 33.619 33.2664C33.514 32.87 33.4869 31.876 33.5691 31.4796C33.8658 30.0805 34.9228 29.1101 36.44 28.8231C36.9326 28.7277 38.0806 28.7636 38.5636 28.8826L38.5627 28.8835ZM31.9915 30.0551L32.0002 31.1988H28.3541V41.5579H25.7746V31.1988H22.1338V30.0779C22.1338 29.4531 22.1478 28.9342 22.1653 28.9202C22.1793 28.9019 24.3939 28.8931 27.0828 28.8975L31.9775 28.9115L31.9915 30.0551Z" fill="white"/>
</g>
<defs>
<filter id="filter0_b_2970_236" x="-10" y="-10" width="80" height="80" filterUnits="userSpaceOnUse" color-interpolation-filters="sRGB">
<feFlood flood-opacity="0" result="BackgroundImageFix"/>
<feGaussianBlur in="BackgroundImageFix" stdDeviation="5"/>
<feComposite in2="SourceAlpha" operator="in" result="effect1_backgroundBlur_2970_236"/>
<feBlend mode="normal" in="SourceGraphic" in2="effect1_backgroundBlur_2970_236" result="shape"/>
</filter>
<clipPath id="clip0_2970_236">
<rect width="28" height="28" fill="white" transform="translate(16 16)"/>
</clipPath>
</defs>
</svg>
