<svg width="465" height="415" viewBox="0 0 465 415" fill="none" xmlns="http://www.w3.org/2000/svg">
<path d="M-122.387 656.183L-124.927 659.351C-124.992 659.433 -124.979 659.551 -124.898 659.616L-103.142 677.061C-103.06 677.126 -102.942 677.113 -102.877 677.032L-100.336 673.864C-100.271 673.783 -100.284 673.664 -100.366 673.599L-122.122 656.154C-122.203 656.089 -122.322 656.102 -122.387 656.183Z" fill="white"/>
<path d="M-81.3067 611.197L-84.1475 613.976C-84.2411 614.068 -84.2427 614.218 -84.1512 614.311L-64.7237 634.166C-64.6322 634.26 -64.4821 634.262 -64.3886 634.17L-61.5477 631.39C-61.4542 631.299 -61.4526 631.149 -61.5441 631.055L-80.9716 611.2C-81.0631 611.107 -81.2131 611.105 -81.3067 611.197Z" fill="white"/>
<path d="M-86.1648 648.516L-82.1457 652.125C-82.1039 652.162 -82.0784 652.215 -82.0746 652.271C-82.0709 652.327 -82.0893 652.382 -82.1258 652.425L-93.4764 665.46C-93.4948 665.482 -93.5172 665.499 -93.5424 665.512C-93.5676 665.525 -93.5951 665.533 -93.6233 665.535C-93.6516 665.537 -93.6799 665.534 -93.7069 665.525C-93.7338 665.516 -93.7587 665.502 -93.7802 665.484L-113.866 647.896C-113.888 647.877 -113.906 647.854 -113.919 647.828C-113.932 647.803 -113.939 647.775 -113.941 647.746C-113.943 647.717 -113.939 647.688 -113.93 647.661C-113.921 647.634 -113.906 647.609 -113.887 647.588L-111.009 644.287C-110.972 644.245 -110.919 644.219 -110.863 644.216C-110.807 644.212 -110.752 644.23 -110.709 644.267L-95.0923 657.958C-95.0498 657.996 -94.9939 658.016 -94.9368 658.013C-94.8798 658.009 -94.8263 657.984 -94.7881 657.941L-86.469 648.532C-86.4308 648.49 -86.3773 648.464 -86.3203 648.461C-86.2632 648.458 -86.2073 648.478 -86.1648 648.516Z" fill="white"/>
<path d="M-81.7433 628.245L-84.0572 625.921C-84.1809 625.795 -84.1825 625.671 -84.062 625.548L-81.4315 622.763C-81.404 622.735 -81.3713 622.712 -81.3351 622.696C-81.299 622.68 -81.2602 622.671 -81.2209 622.67C-81.1817 622.669 -81.1427 622.676 -81.1063 622.69C-81.07 622.704 -81.0368 622.725 -81.0088 622.752L-66.9925 636.186C-66.853 636.321 -66.8508 636.455 -66.986 636.59L-69.633 639.279C-69.7727 639.424 -69.9162 639.428 -70.0634 639.291L-72.3855 637.17C-72.701 636.881 -72.8069 636.946 -72.7031 637.362C-71.8603 640.744 -72.7147 643.557 -75.2661 645.802C-82.8149 652.443 -94.9262 643.377 -91.7616 634.138C-90.3303 629.973 -86.4996 627.666 -81.8747 628.496C-81.564 628.553 -81.5202 628.47 -81.7433 628.245ZM-77.094 632.729C-77.986 631.87 -79.2882 631.51 -80.7141 631.728C-82.14 631.946 -83.5728 632.725 -84.6975 633.893C-85.2543 634.471 -85.7187 635.127 -86.0641 635.824C-86.4096 636.521 -86.6293 637.245 -86.7108 637.955C-86.7922 638.664 -86.7338 639.346 -86.5389 639.96C-86.344 640.574 -86.0163 641.109 -85.5747 641.535C-84.6827 642.394 -83.3805 642.754 -81.9546 642.535C-80.5287 642.317 -79.0959 641.539 -77.9713 640.371C-77.4144 639.793 -76.95 639.136 -76.6046 638.44C-76.2591 637.743 -76.0394 637.019 -75.9579 636.309C-75.8765 635.599 -75.9349 634.918 -76.1298 634.304C-76.3247 633.69 -76.6524 633.154 -77.094 632.729Z" fill="white"/>
<path d="M-110.633 681.091C-109.397 685.077 -110.276 688.3 -113.271 690.76C-119.783 696.117 -129.45 690.592 -130.242 682.881C-130.768 677.776 -126.436 672.944 -120.923 673.487C-120.879 673.49 -120.835 673.479 -120.798 673.456C-120.761 673.432 -120.732 673.397 -120.716 673.356C-120.701 673.315 -120.699 673.27 -120.71 673.228C-120.722 673.185 -120.748 673.148 -120.782 673.121L-123.229 671.307C-123.284 671.267 -123.33 671.217 -123.364 671.159C-123.399 671.1 -123.422 671.036 -123.431 670.969C-123.44 670.902 -123.436 670.833 -123.418 670.768C-123.401 670.703 -123.37 670.641 -123.329 670.588L-121.075 667.675C-120.982 667.556 -120.875 667.541 -120.753 667.631L-105.142 679.313C-105.006 679.415 -104.99 679.533 -105.092 679.668L-107.454 682.839C-107.476 682.868 -107.504 682.893 -107.536 682.912C-107.568 682.93 -107.603 682.943 -107.639 682.948C-107.675 682.953 -107.712 682.951 -107.747 682.942C-107.782 682.932 -107.815 682.916 -107.844 682.894L-110.409 680.931C-110.648 680.75 -110.722 680.804 -110.633 681.091ZM-115.646 677.09C-116.136 676.721 -116.716 676.481 -117.354 676.384C-117.991 676.288 -118.674 676.337 -119.362 676.528C-120.05 676.72 -120.73 677.05 -121.364 677.5C-121.998 677.95 -122.572 678.511 -123.055 679.151C-123.538 679.792 -123.92 680.499 -124.179 681.232C-124.437 681.965 -124.568 682.71 -124.563 683.424C-124.557 684.138 -124.417 684.807 -124.149 685.394C-123.881 685.98 -123.491 686.473 -123.001 686.842C-122.51 687.212 -121.93 687.452 -121.292 687.548C-120.655 687.645 -119.972 687.596 -119.284 687.405C-118.596 687.213 -117.916 686.883 -117.282 686.433C-116.649 685.983 -116.074 685.422 -115.591 684.781C-115.108 684.141 -114.726 683.434 -114.468 682.701C-114.209 681.968 -114.079 681.223 -114.084 680.509C-114.089 679.795 -114.229 679.125 -114.497 678.539C-114.765 677.952 -115.156 677.46 -115.646 677.09Z" fill="white"/>
<path d="M-51.0508 607.857C-49.166 609.894 -48.1922 612.619 -48.3437 615.433C-48.4951 618.247 -49.7593 620.918 -51.8582 622.86C-53.9572 624.802 -56.7189 625.856 -59.5358 625.788C-62.3527 625.721 -64.9941 624.539 -66.8789 622.502C-68.7636 620.465 -69.7374 617.74 -69.586 614.926C-69.4345 612.112 -68.1703 609.441 -66.0713 607.499C-63.9724 605.557 -61.2108 604.503 -58.3938 604.571C-55.5769 604.638 -52.9356 605.82 -51.0508 607.857ZM-54.4676 611.079C-55.3022 610.164 -56.578 609.721 -58.0143 609.846C-59.4506 609.971 -60.9297 610.655 -62.1263 611.746C-63.3228 612.838 -64.1388 614.248 -64.3947 615.667C-64.6506 617.086 -64.3255 618.397 -63.4908 619.312C-62.6562 620.227 -61.3804 620.67 -59.9441 620.545C-58.5078 620.42 -57.0287 619.737 -55.8321 618.645C-54.6356 617.553 -53.8196 616.143 -53.5637 614.724C-53.3078 613.305 -53.6329 611.994 -54.4676 611.079Z" fill="white"/>
<path d="M-140.559 706.993C-147.575 698.709 -138.349 686.089 -128.303 690.225C-128.123 690.299 -128.09 690.416 -128.204 690.574L-130.587 693.994C-130.695 694.152 -130.847 694.24 -131.042 694.258C-134.892 694.637 -137.999 698.202 -137.58 702.168C-136.789 709.727 -125.562 704.608 -127.399 696.61C-127.428 696.487 -127.407 696.374 -127.333 696.271L-124.969 692.864C-124.879 692.732 -124.776 692.722 -124.658 692.832C-123.295 694.119 -122.44 695.591 -122.094 697.248C-119.883 707.884 -132.941 715.976 -140.559 706.993Z" fill="white"/>
<path d="M-41.7789 610.808C-47.3563 611.2 -52.554 606.38 -52.732 600.726C-53.0147 591.917 -42.7518 586.388 -35.5593 591.639C-35.4269 591.738 -35.4225 591.843 -35.5462 591.954L-38.6131 594.636C-38.6743 594.689 -38.7454 594.729 -38.8221 594.753C-38.8988 594.778 -38.9795 594.786 -39.0593 594.778C-48.501 593.943 -50.6815 607.019 -42.499 605.428C-39.3513 604.816 -36.0853 601.792 -36.385 598.273C-36.4002 598.086 -36.3385 597.931 -36.2002 597.809L-32.9993 594.994C-32.9684 594.967 -32.9316 594.947 -32.8917 594.936C-32.8519 594.925 -32.81 594.923 -32.7694 594.931C-32.7288 594.938 -32.6905 594.955 -32.6575 594.98C-32.6245 595.005 -32.5978 595.038 -32.5792 595.075C-29.0382 602.207 -34.0668 610.257 -41.7789 610.808Z" fill="white"/>
<path d="M-140.74 720.583L-135.6 712.626C-135.508 712.486 -135.392 712.462 -135.253 712.554L-131.047 715.31C-130.889 715.413 -130.861 715.544 -130.965 715.702L-139.932 729.646C-140.041 729.81 -140.185 729.852 -140.364 729.773C-141.9 729.081 -143.418 728.224 -143.847 726.428C-144.815 722.369 -145.827 718.324 -146.882 714.292C-146.946 714.057 -147.043 714.042 -147.175 714.247L-152.053 721.759C-152.097 721.826 -152.167 721.874 -152.246 721.89C-152.326 721.906 -152.41 721.891 -152.479 721.847L-156.652 719.142C-156.714 719.101 -156.758 719.037 -156.775 718.964C-156.791 718.891 -156.777 718.816 -156.737 718.754L-147.898 705.049C-147.877 705.017 -147.85 704.989 -147.819 704.967C-147.787 704.945 -147.752 704.93 -147.714 704.922C-147.677 704.914 -147.638 704.913 -147.6 704.92C-147.562 704.927 -147.526 704.942 -147.494 704.963L-144.64 706.846C-144.5 706.938 -144.4 707.08 -144.359 707.243C-143.267 711.664 -142.189 716.089 -141.125 720.52C-141.116 720.56 -141.094 720.598 -141.064 720.627C-141.033 720.655 -140.995 720.674 -140.954 720.681C-140.912 720.688 -140.87 720.682 -140.832 720.665C-140.794 720.647 -140.762 720.619 -140.74 720.583Z" fill="white"/>
<path d="M-17.6976 588.562C-17.7173 592.098 -18.2668 594.79 -21.719 596.619C-25.1329 598.427 -28.2337 597.619 -31.0212 594.194C-33.6019 591.022 -36.178 587.84 -38.7496 584.648C-38.8776 584.489 -38.8625 584.346 -38.7041 584.218L-35.6896 581.837C-35.5262 581.708 -35.3778 581.726 -35.2444 581.889C-33.1939 584.469 -31.1445 587.026 -29.0964 589.56C-27.5808 591.435 -26.3656 592.048 -24.0485 591.096C-21.4777 590.039 -18.9449 586.856 -21.0287 584.13C-23.1895 581.297 -25.3796 578.486 -27.599 575.697C-27.7027 575.565 -27.6887 575.447 -27.557 575.343L-24.4866 572.867C-24.3527 572.756 -24.2313 572.768 -24.1222 572.905L-11.9806 588.072C-11.8336 588.252 -11.8503 588.415 -12.0305 588.562L-14.9737 590.921C-15.1857 591.093 -15.3737 591.071 -15.5378 590.856L-17.4055 588.462C-17.5995 588.211 -17.6969 588.244 -17.6976 588.562Z" fill="white"/>
<path d="M-171.334 747.325L-163.552 758.713C-163.464 758.841 -163.457 758.973 -163.531 759.109L-165.569 762.83C-165.657 762.992 -165.794 763.07 -165.98 763.062L-179.599 762.348C-179.692 762.343 -179.786 762.358 -179.872 762.391C-179.959 762.425 -180.038 762.476 -180.102 762.542C-180.167 762.608 -180.216 762.687 -180.247 762.773C-180.277 762.859 -180.288 762.95 -180.279 763.041C-180.248 763.337 -166.254 771.032 -164.803 771.842C-164.756 771.869 -164.721 771.913 -164.706 771.965C-164.691 772.016 -164.697 772.071 -164.723 772.117L-166.809 775.89C-166.901 776.057 -167.033 776.094 -167.203 775.999L-190.323 763.054C-190.517 762.948 -190.561 762.798 -190.454 762.604L-187.35 757.067C-187.255 756.897 -187.109 756.815 -186.913 756.823L-172.585 757.326C-172.464 757.331 -172.345 757.302 -172.24 757.243C-172.134 757.184 -172.047 757.098 -171.988 756.994C-171.929 756.889 -171.899 756.771 -171.903 756.651C-171.907 756.531 -171.944 756.415 -172.01 756.315L-179.926 744.27C-180.026 744.118 -180.03 743.962 -179.94 743.802L-176.741 738.112C-176.691 738.022 -176.607 737.956 -176.509 737.928C-176.41 737.9 -176.305 737.912 -176.215 737.961L-153.154 750.882C-153.123 750.899 -153.096 750.923 -153.074 750.951C-153.052 750.979 -153.036 751.011 -153.027 751.046C-153.017 751.08 -153.015 751.117 -153.02 751.152C-153.024 751.188 -153.036 751.223 -153.053 751.254L-155.093 754.88C-155.207 755.082 -155.365 755.126 -155.567 755.012L-170.664 746.587C-170.765 746.531 -170.882 746.51 -170.996 746.529C-171.11 746.548 -171.214 746.605 -171.291 746.69C-171.369 746.776 -171.415 746.885 -171.423 747C-171.431 747.115 -171.399 747.23 -171.334 747.325Z" fill="white"/>
<path d="M-156.095 740.85C-152.114 741.422 -149.225 736.553 -148.808 733.251C-148.687 732.283 -148.475 731.523 -148.171 730.97C-147.613 729.956 -146.998 728.967 -146.325 728.003C-146.302 727.971 -146.272 727.945 -146.238 727.928C-146.203 727.911 -146.164 727.903 -146.125 727.905C-146.086 727.906 -146.048 727.918 -146.015 727.938C-145.982 727.958 -145.954 727.986 -145.935 728.02C-143.862 731.58 -143.55 735.05 -144.998 738.431C-148.069 745.575 -157.265 748.327 -162.806 741.939C-170.896 732.611 -158.619 718.439 -148.081 726.339C-147.94 726.446 -147.915 726.577 -148.006 726.732L-156.267 740.493C-156.388 740.698 -156.331 740.817 -156.095 740.85ZM-159.257 738.85L-153.242 728.806C-153.235 728.796 -153.231 728.785 -153.229 728.774C-153.228 728.762 -153.228 728.75 -153.231 728.739C-153.233 728.728 -153.238 728.717 -153.245 728.708C-153.252 728.699 -153.261 728.691 -153.271 728.685C-153.642 728.462 -154.088 728.373 -154.584 728.421C-155.079 728.47 -155.615 728.656 -156.159 728.968C-156.703 729.281 -157.246 729.714 -157.756 730.243C-158.265 730.772 -158.733 731.386 -159.131 732.051L-159.176 732.126C-159.575 732.791 -159.896 733.492 -160.121 734.191C-160.347 734.891 -160.472 735.573 -160.491 736.2C-160.51 736.828 -160.421 737.387 -160.23 737.847C-160.039 738.306 -159.75 738.657 -159.378 738.879C-159.368 738.885 -159.357 738.89 -159.346 738.892C-159.334 738.893 -159.323 738.893 -159.311 738.89C-159.3 738.887 -159.29 738.882 -159.28 738.876C-159.271 738.869 -159.263 738.86 -159.257 738.85Z" fill="white"/>
<path d="M-14.9533 571.36C-15.3125 568.366 -14.9453 565.547 -12.4993 563.517C-12.3385 563.386 -12.1965 563.403 -12.0733 563.566L-8.23361 568.592C-8.11896 568.739 -8.12815 568.875 -8.26118 569.002C-10.7864 571.475 -13.226 573.837 -10.5944 577.46C-9.08961 579.535 -7.55646 581.595 -5.99487 583.639C-5.88529 583.786 -5.90382 583.914 -6.05048 584.023L-9.13421 586.393C-9.27579 586.503 -9.40125 586.486 -9.51056 586.345L-21.2702 570.906C-21.4151 570.718 -21.3921 570.553 -21.2015 570.41L-18.1865 568.109C-18.0327 567.991 -17.897 568.009 -17.7794 568.163L-15.2182 571.469C-14.9969 571.755 -14.9086 571.718 -14.9533 571.36Z" fill="white"/>
<path d="M11.8843 566.268C11.8664 566.245 11.8417 566.228 11.8137 566.219C11.7857 566.211 11.7557 566.211 11.728 566.221C11.7004 566.23 11.6763 566.248 11.6594 566.272C11.6424 566.296 11.6333 566.324 11.6334 566.354C11.7724 569.934 10.4883 572.557 7.78114 574.222C0.840963 578.493 -6.79844 572.733 -7.73431 565.537C-8.55956 559.194 -2.19494 553.509 4.05954 556.136C4.10194 556.154 4.14892 556.157 4.19336 556.145C4.2378 556.134 4.2772 556.108 4.30555 556.072C4.33389 556.035 4.34964 555.991 4.35032 555.945C4.35101 555.899 4.33663 555.854 4.30938 555.817L2.47236 553.285C2.36224 553.128 2.38425 552.993 2.53837 552.881L5.6158 550.606C5.78459 550.483 5.93204 550.507 6.05819 550.678L17.4531 566.426C17.552 566.563 17.5343 566.682 17.3999 566.784L14.2508 569.073C14.0895 569.194 13.9498 569.172 13.8316 569.008L11.8843 566.268ZM8.06653 561.111C7.70158 560.618 7.21273 560.223 6.6279 559.95C6.04307 559.677 5.37371 559.531 4.65803 559.52C3.94235 559.51 3.19438 559.634 2.45681 559.888C1.71924 560.141 1.0065 560.517 0.359321 560.996C-0.287859 561.474 -0.856801 562.045 -1.31506 562.676C-1.77332 563.307 -2.11189 563.986 -2.31146 564.673C-2.51102 565.36 -2.56769 566.043 -2.47819 566.682C-2.38869 567.321 -2.15478 567.905 -1.78984 568.398C-1.42489 568.892 -0.936077 569.286 -0.351245 569.559C0.233586 569.832 0.902988 569.978 1.61867 569.989C2.33435 570 3.08232 569.875 3.81989 569.622C4.55746 569.369 5.2702 568.992 5.91738 568.514C6.56456 568.035 7.1335 567.464 7.59176 566.833C8.05002 566.202 8.38858 565.524 8.58815 564.836C8.78772 564.149 8.84439 563.466 8.75489 562.827C8.66539 562.188 8.43148 561.605 8.06653 561.111Z" fill="white"/>
<path d="M-189.485 807.132C-188.145 804.573 -188.976 801.496 -191.34 800.259C-193.704 799.022 -196.706 800.093 -198.045 802.652C-199.384 805.211 -198.553 808.288 -196.189 809.526C-193.826 810.763 -190.824 809.691 -189.485 807.132Z" fill="white"/>
<path d="M58.5773 532.297C61.0194 530.766 61.8519 527.695 60.4367 525.437C59.0214 523.178 55.8943 522.589 53.4521 524.119C51.01 525.65 50.1775 528.721 51.5928 530.979C53.008 533.237 56.1351 533.827 58.5773 532.297Z" fill="white"/>
<path d="M95.0767 509.874L107.585 502.41C107.626 502.386 107.675 502.379 107.721 502.391C107.767 502.403 107.807 502.432 107.832 502.473L110.682 507.254C110.706 507.296 110.713 507.345 110.701 507.391C110.689 507.437 110.66 507.477 110.619 507.502L93.9618 517.443C93.9205 517.467 93.8715 517.473 93.8253 517.462C93.7791 517.45 93.7392 517.421 93.7143 517.38L80.0213 494.422C79.9975 494.38 79.9908 494.331 80.0025 494.285C80.0143 494.239 80.0436 494.199 80.0843 494.174L96.5519 484.316C96.5727 484.303 96.5958 484.294 96.62 484.29C96.6442 484.286 96.6689 484.287 96.6927 484.293C96.7165 484.299 96.7388 484.309 96.7585 484.324C96.7781 484.339 96.7946 484.357 96.807 484.378L99.6421 489.161C99.6659 489.202 99.6726 489.251 99.6608 489.297C99.649 489.343 99.6197 489.383 99.5791 489.408L87.2526 496.775C87.2117 496.801 87.1825 496.841 87.1714 496.888C87.1604 496.935 87.1684 496.985 87.1936 497.026L89.4018 500.717C89.4267 500.758 89.4665 500.787 89.5127 500.799C89.5589 500.811 89.6079 500.804 89.6493 500.78L100.9 494.119C100.941 494.096 100.99 494.089 101.037 494.101C101.083 494.112 101.123 494.142 101.148 494.182L103.88 498.765C103.904 498.806 103.911 498.855 103.899 498.901C103.887 498.947 103.858 498.987 103.817 499.012L92.5878 505.713C92.5667 505.726 92.5482 505.742 92.5336 505.762C92.519 505.782 92.5084 505.804 92.5026 505.828C92.4968 505.852 92.4958 505.876 92.4997 505.9C92.5035 505.925 92.5122 505.948 92.5252 505.969L94.8292 509.811C94.8542 509.852 94.8939 509.881 94.9402 509.893C94.9864 509.904 95.0353 509.898 95.0767 509.874Z" fill="white"/>
<path d="M560.648 -39.263L558.972 -35.6234C558.922 -35.5153 558.97 -35.3873 559.078 -35.3376L584.379 -23.6878C584.487 -23.638 584.615 -23.6853 584.664 -23.7933L586.34 -27.4329C586.39 -27.541 586.343 -27.6689 586.235 -27.7187L560.934 -39.3685C560.826 -39.4183 560.698 -39.3711 560.648 -39.263Z" fill="white"/>
<path d="M101.932 479.828L98.3486 481.937C98.2794 481.978 98.2563 482.067 98.2971 482.136L112.484 506.244C112.525 506.313 112.614 506.336 112.683 506.296L116.267 504.187C116.336 504.146 116.359 504.057 116.318 503.988L102.131 479.88C102.09 479.811 102.001 479.788 101.932 479.828Z" fill="white"/>
<path d="M120.57 477.14L113.506 481.227C113.48 481.242 113.451 481.252 113.422 481.256C113.392 481.26 113.362 481.258 113.334 481.25C113.305 481.242 113.278 481.229 113.254 481.211C113.231 481.193 113.211 481.17 113.196 481.144L110.473 476.455C110.458 476.429 110.448 476.401 110.444 476.371C110.44 476.342 110.442 476.312 110.45 476.283C110.457 476.254 110.471 476.228 110.489 476.204C110.507 476.18 110.53 476.16 110.555 476.146L129.168 465.318C129.193 465.303 129.222 465.293 129.251 465.289C129.281 465.285 129.311 465.287 129.339 465.295C129.368 465.302 129.395 465.315 129.419 465.334C129.442 465.352 129.462 465.374 129.477 465.4L132.234 470.084C132.249 470.11 132.259 470.138 132.263 470.167C132.267 470.197 132.265 470.227 132.257 470.256C132.25 470.284 132.236 470.311 132.218 470.335C132.2 470.359 132.178 470.378 132.152 470.393L125.108 474.513C125.082 474.528 125.06 474.548 125.042 474.571C125.024 474.595 125.01 474.622 125.003 474.651C124.995 474.679 124.993 474.709 124.997 474.739C125.001 474.768 125.011 474.797 125.026 474.823L135.462 492.743C135.477 492.768 135.487 492.797 135.49 492.826C135.494 492.856 135.493 492.886 135.485 492.915C135.477 492.943 135.464 492.97 135.446 492.994C135.428 493.018 135.405 493.037 135.379 493.052L131.591 495.231C131.566 495.246 131.537 495.256 131.508 495.26C131.478 495.264 131.448 495.262 131.419 495.254C131.391 495.247 131.364 495.233 131.34 495.215C131.316 495.197 131.297 495.175 131.282 495.149L120.88 477.223C120.865 477.197 120.845 477.175 120.821 477.157C120.798 477.138 120.771 477.125 120.742 477.117C120.713 477.11 120.683 477.108 120.654 477.112C120.624 477.116 120.596 477.126 120.57 477.14Z" fill="white"/>
<path d="M566.341 -23.6491L563.564 -24.9339C563.358 -25.0321 563.302 -25.1841 563.395 -25.39L564.923 -28.7366C565.035 -28.9791 565.211 -29.0458 565.451 -28.9366L583.004 -20.9979C583.21 -20.9047 583.266 -20.7553 583.173 -20.5494L581.613 -17.0866C581.543 -16.9227 581.424 -16.8769 581.258 -16.9493L578.188 -18.2869C578.158 -18.2989 578.124 -18.301 578.093 -18.2929C578.061 -18.2848 578.032 -18.2668 578.011 -18.2416C577.99 -18.2164 577.978 -18.1853 577.975 -18.1526C577.973 -18.1199 577.981 -18.0873 577.999 -18.0594C582.14 -11.9666 577.282 -4.42901 570.337 -4.44094C558.993 -4.46441 553.558 -19.9494 566.317 -23.3809C566.573 -23.4506 566.581 -23.54 566.341 -23.6491ZM572.381 -20.869C571.254 -21.3881 569.903 -21.301 568.626 -20.6269C567.35 -19.9527 566.251 -18.7467 565.573 -17.2741C565.238 -16.545 565.015 -15.7723 564.919 -15.0003C564.822 -14.2283 564.853 -13.4721 565.011 -12.7747C565.168 -12.0774 565.448 -11.4525 565.836 -10.936C566.223 -10.4195 566.71 -10.0214 567.268 -9.76439C568.395 -9.24525 569.746 -9.33233 571.023 -10.0065C572.299 -10.6807 573.398 -11.8867 574.076 -13.3593C574.411 -14.0884 574.634 -14.861 574.73 -15.633C574.827 -16.405 574.796 -17.1613 574.638 -17.8586C574.481 -18.556 574.201 -19.1807 573.813 -19.6972C573.426 -20.2137 572.939 -20.6119 572.381 -20.869Z" fill="white"/>
<path d="M-227.949 864.594C-229.777 861.718 -230.011 858.894 -228.652 856.124C-226.896 852.547 -223.236 850.81 -219.46 852.312C-217.785 852.972 -213.743 854.787 -207.334 857.758C-207.154 857.842 -207.103 857.974 -207.183 858.154L-208.728 861.616C-208.81 861.798 -208.943 861.848 -209.128 861.763C-212.274 860.371 -215.414 858.983 -218.547 857.598C-222.586 855.809 -225.095 860.505 -225.121 863.717C-225.137 865.541 -224.07 866.594 -222.384 867.376C-219.432 868.748 -216.47 870.098 -213.498 871.426C-213.313 871.51 -213.261 871.643 -213.343 871.825L-214.925 875.32C-215.007 875.497 -215.137 875.545 -215.314 875.463L-233.019 867.475C-233.212 867.389 -233.264 867.248 -233.175 867.052L-231.579 863.622C-231.483 863.419 -231.332 863.363 -231.126 863.457L-228.129 864.802C-227.839 864.931 -227.78 864.862 -227.949 864.594Z" fill="white"/>
<path d="M554.681 8.75285C554.787 8.74602 554.889 8.71025 554.976 8.64958C555.063 8.58891 555.132 8.50558 555.175 8.40858C555.218 8.31159 555.234 8.20467 555.221 8.09938C555.207 7.99408 555.165 7.89445 555.1 7.81125L546.082 -3.44262C546.021 -3.51886 545.983 -3.61063 545.971 -3.70813C545.959 -3.80562 545.974 -3.90511 546.014 -3.99574L548.68 -10.0196C548.766 -10.2124 548.903 -10.2656 549.091 -10.1791L573.252 0.566032C573.471 0.661062 573.532 0.819221 573.434 1.04056L571.76 4.8069C571.678 4.98419 571.55 5.03301 571.375 4.95341L555.503 -2.06119C555.396 -2.10822 555.275 -2.11754 555.162 -2.08782C555.048 -2.05809 554.948 -1.99102 554.877 -1.89732C554.807 -1.80362 554.769 -1.68879 554.772 -1.5714C554.774 -1.454 554.816 -1.34086 554.891 -1.25024L563.67 9.3185C563.725 9.38541 563.761 9.46595 563.774 9.55135C563.786 9.63676 563.775 9.72377 563.742 9.80282L562.052 13.6348C561.973 13.8145 561.834 13.9097 561.636 13.9203L548.032 14.4569C547.846 14.4643 547.697 14.5423 547.583 14.6908L547.418 14.898C547.391 14.9353 547.372 14.9783 547.363 15.024C547.354 15.0696 547.355 15.1167 547.367 15.1618C547.378 15.2069 547.4 15.2488 547.429 15.2845C547.459 15.3202 547.497 15.3488 547.539 15.3682C552.869 17.7564 558.206 20.1264 563.549 22.4783C563.755 22.5715 563.814 22.7208 563.726 22.9264L562.105 26.6175C562.058 26.7231 561.971 26.8057 561.864 26.8473C561.756 26.8888 561.636 26.8859 561.53 26.8391L537.39 16.1424C537.356 16.127 537.325 16.1048 537.299 16.0771C537.273 16.0495 537.253 16.017 537.239 15.9815C537.226 15.946 537.22 15.9083 537.221 15.8704C537.223 15.8326 537.232 15.7954 537.248 15.761L539.842 9.9469C539.921 9.77228 540.057 9.67983 540.25 9.66948L554.681 8.75285Z" fill="white"/>
<path d="M-247.037 891.47C-246.227 889.678 -246.827 887.658 -248.378 886.957C-249.928 886.256 -251.841 887.141 -252.651 888.932C-253.461 890.724 -252.861 892.744 -251.31 893.445C-249.76 894.146 -247.847 893.261 -247.037 891.47Z" fill="white"/>
<path d="M135.005 466.977C136.715 466.018 137.424 464.034 136.589 462.545C135.755 461.056 133.692 460.625 131.982 461.584C130.272 462.542 129.563 464.527 130.398 466.016C131.233 467.505 133.296 467.935 135.005 466.977Z" fill="white"/>
<path d="M-229.914 889.278C-225.439 889.164 -223.253 883.36 -223.609 879.646C-223.627 879.446 -223.594 879.253 -223.51 879.068L-221.84 875.371C-221.818 875.322 -221.783 875.28 -221.74 875.248C-221.697 875.216 -221.646 875.197 -221.593 875.191C-221.54 875.185 -221.487 875.193 -221.438 875.214C-221.39 875.236 -221.348 875.269 -221.317 875.312C-218.132 879.557 -217.878 884.008 -220.554 888.665C-224.278 895.15 -233.499 895.382 -237.916 889.476C-244.572 880.582 -233.867 867.814 -223.754 873.899C-223.591 873.997 -223.549 874.133 -223.629 874.308L-230.125 888.966C-230.22 889.179 -230.15 889.284 -229.914 889.278ZM-233.255 887.711L-228.462 876.901C-228.458 876.892 -228.455 876.881 -228.455 876.87C-228.454 876.86 -228.456 876.849 -228.46 876.839C-228.463 876.829 -228.469 876.819 -228.476 876.812C-228.484 876.804 -228.493 876.797 -228.503 876.793L-228.507 876.789C-229.314 876.432 -230.342 876.662 -231.365 877.43C-232.388 878.197 -233.322 879.438 -233.961 880.881L-233.999 880.963C-234.639 882.405 -234.932 883.931 -234.814 885.204C-234.697 886.477 -234.177 887.394 -233.371 887.752L-233.363 887.752C-233.354 887.756 -233.343 887.759 -233.332 887.759C-233.322 887.76 -233.311 887.758 -233.301 887.754C-233.291 887.751 -233.281 887.745 -233.273 887.737C-233.266 887.73 -233.259 887.721 -233.255 887.711Z" fill="white"/>
<path d="M-242.313 902.24C-237.21 898.499 -229.696 901.627 -230.171 908.33C-230.26 909.616 -230.682 911.083 -231.437 912.731C-233.223 916.638 -235.003 920.548 -236.775 924.462C-236.85 924.632 -236.972 924.679 -237.141 924.604L-261.35 913.903C-261.516 913.831 -261.563 913.711 -261.491 913.545C-259.836 909.66 -258.14 905.82 -256.401 902.025C-255.514 900.086 -254.668 898.765 -253.864 898.063C-249.646 894.389 -243.911 896.846 -242.667 902.111C-242.617 902.334 -242.499 902.377 -242.313 902.24ZM-253.881 911.954L-250.404 913.491C-250.347 913.516 -250.287 913.53 -250.225 913.531C-250.163 913.533 -250.102 913.522 -250.044 913.5C-249.986 913.478 -249.934 913.444 -249.889 913.402C-249.844 913.359 -249.808 913.308 -249.784 913.251L-246.816 906.528C-246.611 906.065 -246.46 905.583 -246.373 905.11C-246.286 904.637 -246.264 904.181 -246.308 903.77C-246.352 903.359 -246.462 903 -246.63 902.713C-246.799 902.426 -247.023 902.218 -247.29 902.1L-247.556 901.984C-247.823 901.865 -248.128 901.839 -248.453 901.906C-248.778 901.974 -249.118 902.134 -249.452 902.378C-249.786 902.622 -250.108 902.945 -250.4 903.328C-250.691 903.711 -250.947 904.147 -251.152 904.611L-254.116 911.337C-254.166 911.45 -254.169 911.578 -254.125 911.694C-254.081 911.809 -253.993 911.903 -253.881 911.954ZM-245.046 915.834L-240.619 917.804C-240.543 917.837 -240.457 917.839 -240.38 917.809C-240.303 917.78 -240.241 917.72 -240.208 917.645L-236.866 910.151C-236.423 909.16 -236.248 908.098 -236.379 907.199C-236.509 906.3 -236.935 905.637 -237.562 905.356L-237.831 905.237C-238.459 904.958 -239.236 905.084 -239.992 905.587C-240.748 906.09 -241.421 906.93 -241.863 907.921L-245.201 915.419C-245.218 915.457 -245.228 915.497 -245.23 915.538C-245.231 915.579 -245.224 915.62 -245.21 915.659C-245.195 915.698 -245.173 915.733 -245.145 915.763C-245.117 915.793 -245.083 915.817 -245.046 915.834Z" fill="white"/>
<path d="M531.729 25.3742L530.15 28.951C530.091 29.0843 530.151 29.2401 530.285 29.2989L555.677 40.5108C555.81 40.5697 555.966 40.5093 556.025 40.376L557.604 36.7993C557.663 36.666 557.602 36.5101 557.469 36.4512L532.077 25.2395C531.944 25.1806 531.788 25.2409 531.729 25.3742Z" fill="white"/>
<path d="M-243.684 890.687L-245.362 894.468C-245.395 894.544 -245.361 894.633 -245.285 894.667L-227.267 902.66C-227.191 902.694 -227.102 902.659 -227.068 902.583L-225.391 898.802C-225.357 898.726 -225.392 898.637 -225.468 898.603L-243.485 890.61C-243.561 890.576 -243.651 890.611 -243.684 890.687Z" fill="white"/>
<path d="M138.124 468.322L134.635 470.335C134.534 470.393 134.5 470.522 134.558 470.622L144.352 487.603C144.41 487.704 144.539 487.738 144.639 487.68L148.129 485.667C148.229 485.61 148.264 485.481 148.206 485.381L138.411 468.399C138.353 468.299 138.225 468.264 138.124 468.322Z" fill="white"/>
<path d="M-267.028 923.046L-268.642 926.701C-268.693 926.815 -268.641 926.949 -268.527 926.999L-243.056 938.246C-242.942 938.297 -242.808 938.245 -242.758 938.131L-241.143 934.475C-241.093 934.361 -241.145 934.227 -241.259 934.177L-266.73 922.93C-266.844 922.88 -266.978 922.931 -267.028 923.046Z" fill="white"/>
<path d="M156.337 461.653L154.803 459.009C154.711 458.848 154.745 458.722 154.905 458.629L158.283 456.705C158.471 456.598 158.618 456.639 158.725 456.826C161.457 461.548 164.196 466.263 166.941 470.972C170.092 476.383 169.621 480.854 165.53 484.384C161.13 488.171 155.824 488.639 151.352 484.631C151.329 484.61 151.311 484.583 151.299 484.554C151.288 484.524 151.284 484.492 151.287 484.46C151.29 484.429 151.3 484.398 151.317 484.371C151.334 484.344 151.357 484.322 151.384 484.305L154.789 482.303C154.952 482.208 155.124 482.175 155.306 482.203C160.563 483.023 167.345 478.002 162.466 472.723C162.385 472.636 162.34 472.653 162.332 472.776C162.05 476.83 159.48 479.603 155.542 480.554C146.352 482.776 139.119 470.454 146.356 463.402C149.013 460.809 152.278 460.295 156.15 461.861C156.418 461.972 156.481 461.902 156.337 461.653ZM159.409 467.126C158.779 466.056 157.622 465.356 156.192 465.179C154.761 465.003 153.175 465.364 151.781 466.184C150.388 467.004 149.301 468.216 148.761 469.552C148.221 470.888 148.271 472.24 148.901 473.31C149.53 474.379 150.688 475.079 152.118 475.256C153.549 475.433 155.135 475.071 156.528 474.251C157.922 473.431 159.008 472.22 159.549 470.883C160.089 469.547 160.039 468.195 159.409 467.126Z" fill="white"/>
<path d="M537.849 40.7881L534.874 39.5064C534.677 39.4204 534.622 39.2772 534.71 39.0767L536.274 35.6023C536.363 35.4068 536.505 35.3534 536.7 35.4421L554.376 43.2369C554.419 43.2556 554.458 43.2826 554.49 43.3165C554.523 43.3505 554.548 43.3908 554.565 43.4349C554.582 43.479 554.59 43.5261 554.589 43.5736C554.587 43.621 554.577 43.6679 554.558 43.7115L553.034 47.1493C552.95 47.3344 552.814 47.3861 552.627 47.3047L549.632 46.0203C549.599 46.0043 549.561 45.9999 549.525 46.0077C549.489 46.0155 549.456 46.0352 549.433 46.0635C549.409 46.0919 549.395 46.1273 549.394 46.1643C549.392 46.2013 549.403 46.2377 549.425 46.2679C551.547 49.5301 551.598 52.6813 549.578 55.7214C543.633 64.6712 528.161 58.0736 530.734 47.3334C531.513 44.0906 533.88 41.9765 537.833 40.9911C538.034 40.9396 538.039 40.8719 537.849 40.7881ZM543.791 43.5093C543.232 43.2542 542.613 43.1452 541.969 43.1882C541.325 43.2313 540.669 43.4257 540.039 43.7603C539.409 44.095 538.816 44.5633 538.295 45.1386C537.774 45.7139 537.335 46.385 537.003 47.1134C536.332 48.5844 536.137 50.1998 536.461 51.6042C536.784 53.0087 537.601 54.0871 538.73 54.6023C539.289 54.8574 539.908 54.9665 540.552 54.9235C541.196 54.8804 541.852 54.6861 542.482 54.3514C543.112 54.0167 543.705 53.5483 544.226 52.973C544.747 52.3977 545.186 51.7267 545.518 50.9984C546.19 49.5273 546.385 47.9119 546.061 46.5075C545.737 45.103 544.92 44.0245 543.791 43.5093Z" fill="white"/>
<path d="M167.491 456.519C167.664 453.28 168.132 451.058 170.901 449.143C171.067 449.028 171.202 449.057 171.306 449.232L174.521 454.769C174.628 454.956 174.59 455.103 174.407 455.209C171.571 456.853 169.05 459.627 170.858 462.966C172.131 465.316 173.453 467.632 174.824 469.915C174.93 470.093 174.893 470.233 174.713 470.337L171.345 472.249C171.175 472.347 171.04 472.31 170.939 472.138L161.263 455.313C161.16 455.138 161.197 455 161.375 454.899L164.69 453.012C164.765 452.97 164.853 452.959 164.935 452.981C165.017 453.003 165.086 453.057 165.127 453.13L167.107 456.609C167.337 457.018 167.465 456.988 167.491 456.519Z" fill="white"/>
<path d="M-249.33 944.045C-245.67 949.416 -249.117 956.108 -255.024 957.382C-259.865 958.428 -265.253 955.732 -267.422 951.359C-270.03 946.115 -267.081 939.671 -261.032 938.763C-260.636 938.703 -260.621 938.592 -260.985 938.428L-263.916 937.114C-264.075 937.044 -264.12 936.93 -264.053 936.774L-262.485 933.231C-262.401 933.041 -262.263 932.989 -262.07 933.075L-244.39 940.954C-244.187 941.044 -244.13 941.191 -244.221 941.395L-245.737 944.847C-245.82 945.042 -245.959 945.098 -246.155 945.015L-249.072 943.734C-249.114 943.715 -249.161 943.711 -249.205 943.721C-249.25 943.732 -249.29 943.757 -249.319 943.792C-249.348 943.827 -249.365 943.871 -249.367 943.917C-249.369 943.962 -249.356 944.007 -249.33 944.045ZM-255.004 941.147C-255.563 940.893 -256.181 940.786 -256.825 940.831C-257.468 940.876 -258.124 941.073 -258.754 941.411C-259.383 941.748 -259.976 942.219 -260.496 942.797C-261.017 943.375 -261.455 944.049 -261.787 944.78C-262.119 945.511 -262.338 946.285 -262.431 947.057C-262.523 947.829 -262.488 948.585 -262.328 949.282C-262.167 949.978 -261.884 950.601 -261.495 951.115C-261.106 951.629 -260.617 952.025 -260.059 952.279C-259.5 952.532 -258.881 952.64 -258.237 952.595C-257.594 952.549 -256.938 952.353 -256.309 952.015C-255.679 951.678 -255.086 951.207 -254.566 950.629C-254.045 950.05 -253.607 949.377 -253.275 948.646C-252.943 947.915 -252.724 947.141 -252.631 946.369C-252.539 945.596 -252.574 944.841 -252.734 944.144C-252.895 943.448 -253.178 942.825 -253.567 942.311C-253.957 941.796 -254.445 941.401 -255.004 941.147Z" fill="white"/>
<path d="M-272.696 970.654C-272.582 970.649 -272.471 970.612 -272.376 970.548C-272.28 970.484 -272.205 970.395 -272.157 970.291C-272.109 970.187 -272.09 970.072 -272.104 969.958C-272.117 969.844 -272.161 969.736 -272.232 969.645L-281.158 958.257C-281.275 958.108 -281.295 957.948 -281.218 957.776L-278.513 951.772C-278.424 951.577 -278.281 951.525 -278.082 951.616L-254.005 962.583C-253.809 962.671 -253.755 962.812 -253.841 963.005L-255.534 966.761C-255.628 966.967 -255.778 967.022 -255.987 966.926L-271.751 959.784C-271.855 959.735 -271.973 959.723 -272.085 959.749C-272.197 959.776 -272.296 959.84 -272.367 959.931C-272.438 960.022 -272.475 960.134 -272.473 960.249C-272.472 960.364 -272.431 960.475 -272.358 960.564L-263.717 971.197C-263.578 971.37 -263.555 971.557 -263.648 971.758L-265.334 975.521C-265.42 975.714 -265.567 975.813 -265.775 975.82L-279.38 976.219C-279.537 976.222 -279.689 976.285 -279.806 976.394C-280.113 976.688 -280.058 976.933 -279.64 977.129C-274.376 979.574 -269.11 982.02 -263.842 984.468C-263.694 984.539 -263.655 984.649 -263.726 984.797L-265.468 988.64C-265.554 988.833 -265.692 988.884 -265.883 988.796L-289.941 977.831C-290.163 977.729 -290.222 977.567 -290.12 977.345L-287.487 971.552C-287.424 971.406 -287.312 971.33 -287.152 971.324L-272.696 970.654Z" fill="white"/>
<path d="M181.77 457.037C184.644 459.632 190.04 456.284 191.787 453.886C193.07 452.136 194.592 451.425 196.414 450.499C196.598 450.408 196.696 450.465 196.71 450.67C197.057 455.818 194.853 459.537 190.098 461.829C183.35 465.079 175.726 460.592 175.089 453.209C174.109 441.847 190.464 437.063 195.732 448.099C195.771 448.182 195.778 448.277 195.752 448.364C195.725 448.451 195.668 448.525 195.59 448.572L181.81 456.638C181.776 456.658 181.748 456.685 181.727 456.718C181.706 456.751 181.692 456.789 181.689 456.828C181.685 456.866 181.69 456.906 181.704 456.942C181.719 456.978 181.741 457.011 181.77 457.037ZM179.894 453.767L190.105 447.852C190.122 447.842 190.133 447.825 190.138 447.807C190.143 447.788 190.14 447.768 190.13 447.752C189.689 446.99 188.726 446.573 187.451 446.593C186.177 446.612 184.697 447.065 183.336 447.854L183.262 447.896C182.588 448.286 181.963 448.747 181.424 449.252C180.884 449.757 180.441 450.297 180.118 450.84C179.796 451.383 179.602 451.918 179.546 452.416C179.49 452.914 179.574 453.364 179.793 453.741C179.804 453.758 179.82 453.769 179.838 453.774C179.857 453.779 179.877 453.776 179.894 453.767Z" fill="white"/>
<path d="M527.533 69.0183C526.767 72.8617 530.067 76.9976 533.863 74.3261C537.27 71.9286 538.197 68.777 536.642 64.8715C536.571 64.6973 536.576 64.5229 536.656 64.3482L538.324 60.6204C538.344 60.5772 538.373 60.539 538.41 60.5087C538.446 60.4784 538.489 60.4569 538.535 60.4456C538.58 60.4343 538.628 60.4336 538.673 60.4436C538.719 60.4537 538.762 60.4741 538.798 60.5034C543.158 63.9187 544.028 69.6802 541.33 74.4016C537.537 81.0352 528.748 81.6907 523.978 75.8223C517.886 68.3469 525.005 56.8246 534.536 58.6082C534.573 58.6148 534.608 58.6297 534.638 58.6519C534.668 58.6741 534.693 58.703 534.711 58.7362C534.728 58.7694 534.738 58.8062 534.74 58.8438C534.741 58.8814 534.734 58.9187 534.718 58.953L533.028 62.6974C532.948 62.872 532.817 62.9884 532.635 63.0465C529.846 63.9489 528.145 65.9395 527.533 69.0183Z" fill="white"/>
<path d="M520.323 85.0267L516.539 93.3187C516.53 93.34 516.517 93.3594 516.5 93.3754C516.484 93.3915 516.464 93.404 516.443 93.4123C516.421 93.4206 516.398 93.4244 516.375 93.4236C516.351 93.4228 516.329 93.4172 516.308 93.4074L511.554 91.2375C511.533 91.2287 511.513 91.2158 511.497 91.1996C511.481 91.1834 511.468 91.1642 511.46 91.143C511.451 91.1218 511.447 91.099 511.447 91.0762C511.448 91.0533 511.452 91.0308 511.461 91.0098L518.304 75.9748C518.313 75.9535 518.326 75.9342 518.343 75.9181C518.359 75.902 518.379 75.8894 518.401 75.8811C518.422 75.8729 518.445 75.8691 518.468 75.8699C518.492 75.8708 518.514 75.8762 518.535 75.886L521.886 77.4106C521.924 77.4293 521.955 77.4616 521.971 77.5014L527.239 90.4555C527.251 90.4879 527.273 90.5159 527.301 90.5359C527.329 90.5559 527.363 90.5669 527.398 90.5675C527.432 90.5682 527.466 90.5583 527.495 90.5394C527.524 90.5204 527.547 90.4931 527.56 90.4611L531.555 81.7077C531.574 81.6666 531.607 81.6344 531.649 81.6179C531.691 81.6014 531.738 81.6019 531.779 81.6193L536.536 83.7701C536.557 83.7792 536.577 83.7925 536.593 83.8091C536.609 83.8258 536.621 83.8455 536.63 83.8671C536.638 83.8887 536.642 83.9118 536.641 83.935C536.64 83.9581 536.635 83.9808 536.625 84.0018L529.613 99.4349C529.604 99.4563 529.591 99.4756 529.574 99.4916C529.558 99.5077 529.538 99.5202 529.516 99.5285C529.495 99.5368 529.472 99.5406 529.449 99.5398C529.425 99.539 529.403 99.5334 529.382 99.5236L526.003 97.9662C525.964 97.9493 525.932 97.9183 525.914 97.8794L520.64 85.0363C520.628 85.0048 520.607 84.9775 520.579 84.958C520.551 84.9385 520.519 84.9276 520.485 84.9266C520.451 84.9256 520.418 84.9344 520.389 84.9522C520.36 84.97 520.337 84.996 520.323 85.0267Z" fill="white"/>
<path d="M-295.739 986.475L-297.456 990.119C-297.504 990.221 -297.46 990.343 -297.358 990.391L-272.14 1002.27C-272.038 1002.32 -271.916 1002.27 -271.868 1002.17L-270.151 998.528C-270.103 998.426 -270.147 998.304 -270.249 998.256L-295.467 986.377C-295.569 986.328 -295.691 986.372 -295.739 986.475Z" fill="white"/>
<path d="M500.508 128.389L491.863 116.76C491.813 116.692 491.782 116.611 491.775 116.528C491.767 116.444 491.782 116.361 491.818 116.286L494.716 110.391C494.819 110.184 494.974 110.133 495.181 110.236L518.943 121.796C519.126 121.883 519.172 122.016 519.083 122.196L517.264 125.963C517.182 126.14 517.052 126.185 516.875 126.098L501.248 118.529C501.142 118.48 501.023 118.467 500.909 118.494C500.796 118.52 500.694 118.584 500.621 118.675C500.548 118.766 500.507 118.878 500.505 118.995C500.504 119.111 500.541 119.225 500.611 119.318L509.048 130.195C509.16 130.339 509.176 130.493 509.096 130.658L507.268 134.402C507.172 134.6 507.012 134.701 506.789 134.702L493.266 134.785C493.166 134.785 493.068 134.808 492.978 134.852C492.889 134.896 492.811 134.959 492.75 135.037C492.498 135.366 492.557 135.62 492.928 135.798C498.128 138.325 503.328 140.853 508.529 143.38C508.683 143.456 508.723 143.572 508.65 143.728L506.782 147.566C506.751 147.631 506.696 147.68 506.628 147.704C506.561 147.727 506.487 147.723 506.423 147.692L482.633 136.13C482.585 136.107 482.542 136.074 482.507 136.034C482.472 135.994 482.445 135.948 482.427 135.897C482.41 135.847 482.403 135.793 482.407 135.74C482.41 135.687 482.424 135.635 482.448 135.587L485.204 129.963C485.291 129.785 485.431 129.694 485.624 129.688L500.044 129.333C500.152 129.331 500.258 129.299 500.349 129.24C500.441 129.182 500.515 129.099 500.563 129.002C500.61 128.905 500.631 128.796 500.621 128.688C500.611 128.58 500.572 128.476 500.508 128.389Z" fill="white"/>
<path d="M514.783 112.153C518.82 112.196 521.363 107.349 521.356 103.826C521.356 101.698 522.236 100.186 523.226 98.4472C523.244 98.4136 523.27 98.3848 523.302 98.3634C523.333 98.342 523.37 98.3286 523.408 98.3244C523.446 98.3201 523.484 98.325 523.52 98.3388C523.556 98.3526 523.587 98.3748 523.612 98.4036C528.106 103.524 526.331 111.586 520.911 115.051C515.524 118.494 508.383 116.193 505.856 110.398C503.185 104.265 507.308 96.2632 514.119 95.3938C516.278 95.1176 518.54 95.4841 520.905 96.4935C521.415 96.7102 521.554 97.0713 521.322 97.5771L514.662 111.958C514.651 111.978 514.646 112.001 514.647 112.024C514.648 112.048 514.655 112.07 514.667 112.09C514.68 112.109 514.697 112.125 514.717 112.137C514.737 112.148 514.76 112.154 514.783 112.153ZM511.597 110.567L516.518 99.8718C516.528 99.8489 516.53 99.8227 516.521 99.799C516.513 99.7752 516.495 99.7557 516.473 99.7445L516.461 99.7413C515.657 99.372 514.624 99.5854 513.59 100.335C512.556 101.084 511.606 102.308 510.948 103.737L510.907 103.823C510.248 105.253 509.936 106.771 510.038 108.044C510.141 109.317 510.651 110.241 511.455 110.612L511.466 110.616C511.478 110.621 511.491 110.624 511.504 110.625C511.517 110.626 511.53 110.623 511.542 110.619C511.554 110.614 511.565 110.607 511.575 110.598C511.584 110.589 511.592 110.579 511.597 110.567Z" fill="white"/>
<path d="M-290.096 1001.91L-292.846 1000.56C-292.933 1000.52 -292.999 1000.45 -293.031 1000.35C-293.063 1000.26 -293.058 1000.16 -293.017 1000.08L-291.375 996.637C-291.297 996.475 -291.178 996.433 -291.016 996.511L-273.514 1004.98C-273.334 1005.06 -273.286 1005.2 -273.37 1005.38L-275.023 1008.82C-275.108 1009 -275.24 1009.05 -275.42 1008.97L-278.41 1007.54C-278.436 1007.53 -278.466 1007.52 -278.495 1007.53C-278.523 1007.53 -278.55 1007.55 -278.57 1007.57C-278.59 1007.59 -278.602 1007.62 -278.605 1007.65C-278.608 1007.68 -278.601 1007.71 -278.586 1007.74C-276.633 1010.93 -276.685 1014.1 -278.743 1017.24C-282.525 1023.01 -290.966 1021.93 -295.179 1017.25C-299.976 1011.94 -297.667 1003.33 -290.147 1002.25C-290.108 1002.24 -290.073 1002.23 -290.045 1002.2C-290.017 1002.17 -289.999 1002.14 -289.994 1002.1C-289.988 1002.06 -289.995 1002.02 -290.013 1001.99C-290.032 1001.95 -290.061 1001.93 -290.096 1001.91ZM-284.147 1004.82C-284.698 1004.55 -285.313 1004.43 -285.958 1004.45C-286.603 1004.48 -287.264 1004.65 -287.905 1004.97C-288.546 1005.29 -289.153 1005.74 -289.692 1006.31C-290.231 1006.87 -290.691 1007.53 -291.047 1008.25C-291.402 1008.97 -291.645 1009.74 -291.763 1010.51C-291.88 1011.28 -291.87 1012.04 -291.732 1012.74C-291.593 1013.44 -291.33 1014.08 -290.958 1014.6C-290.585 1015.13 -290.11 1015.54 -289.559 1015.81C-289.008 1016.08 -288.393 1016.21 -287.748 1016.18C-287.103 1016.16 -286.442 1015.98 -285.801 1015.66C-285.16 1015.34 -284.553 1014.89 -284.014 1014.33C-283.475 1013.77 -283.015 1013.1 -282.659 1012.38C-282.304 1011.66 -282.061 1010.89 -281.943 1010.12C-281.826 1009.35 -281.836 1008.6 -281.974 1007.89C-282.113 1007.19 -282.376 1006.56 -282.748 1006.03C-283.121 1005.51 -283.597 1005.1 -284.147 1004.82Z" fill="white"/>
<path d="M241.363 424.016C243.807 422.484 244.642 419.412 243.227 417.153C241.811 414.895 238.682 414.307 236.238 415.839C233.793 417.371 232.958 420.444 234.374 422.702C235.789 424.96 238.918 425.549 241.363 424.016Z" fill="white"/>
<path d="M274.311 410.022L267.868 382.181C267.859 382.141 267.862 382.1 267.877 382.061C267.892 382.023 267.918 381.99 267.952 381.967L273.662 378.155C273.697 378.133 273.738 378.121 273.78 378.122C273.821 378.124 273.862 378.137 273.895 378.162L297.173 394.679C297.2 394.698 297.223 394.723 297.239 394.753C297.255 394.782 297.263 394.815 297.263 394.849C297.263 394.882 297.254 394.915 297.238 394.945C297.223 394.974 297.2 395 297.172 395.018L293.314 397.605C293.28 397.628 293.24 397.639 293.199 397.639C293.158 397.638 293.119 397.626 293.085 397.602L289.072 394.817C289.039 394.793 288.999 394.781 288.958 394.78C288.917 394.78 288.877 394.791 288.843 394.814L277.964 402.149C277.93 402.172 277.904 402.205 277.889 402.243C277.875 402.281 277.871 402.323 277.88 402.363L278.948 407.115C278.956 407.154 278.952 407.196 278.936 407.233C278.921 407.271 278.894 407.303 278.86 407.325L274.626 410.146C274.599 410.165 274.567 410.177 274.534 410.181C274.5 410.184 274.467 410.18 274.435 410.168C274.404 410.156 274.377 410.136 274.355 410.11C274.333 410.085 274.318 410.055 274.311 410.022ZM274.246 385.976L276.407 395.741C276.414 395.77 276.428 395.796 276.447 395.818C276.466 395.84 276.49 395.857 276.517 395.868C276.544 395.879 276.573 395.883 276.602 395.881C276.631 395.878 276.659 395.868 276.684 395.852L283.415 391.307C283.446 391.286 283.471 391.258 283.489 391.225C283.507 391.191 283.516 391.155 283.516 391.117C283.517 391.079 283.508 391.042 283.49 391.009C283.473 390.976 283.448 390.947 283.417 390.926L275.259 385.3C275.15 385.226 275.021 385.186 274.89 385.185C274.758 385.184 274.629 385.223 274.52 385.296C274.411 385.369 274.326 385.473 274.277 385.594C274.229 385.715 274.218 385.849 274.246 385.976Z" fill="white"/>
<path d="M-301.413 1029.78C-302.258 1033.64 -298.724 1037.73 -295.043 1035.05C-291.723 1032.63 -290.703 1029.53 -291.985 1025.74C-292.043 1025.56 -292.03 1025.39 -291.948 1025.23L-290.308 1022.04C-290.255 1021.94 -290.177 1021.85 -290.082 1021.78C-289.986 1021.71 -289.876 1021.67 -289.76 1021.66C-289.645 1021.64 -289.527 1021.66 -289.419 1021.7C-289.31 1021.74 -289.213 1021.81 -289.137 1021.9C-279.322 1033.29 -294.925 1047.53 -304.493 1037.11C-311.322 1029.68 -303.788 1017.02 -293.806 1019.53C-293.618 1019.58 -293.568 1019.69 -293.655 1019.86L-295.519 1023.56C-295.59 1023.71 -295.703 1023.8 -295.859 1023.84C-298.871 1024.66 -300.722 1026.64 -301.413 1029.78Z" fill="white"/>
<path d="M-309.278 1045.08L-313.519 1053.1C-313.541 1053.14 -313.578 1053.18 -313.623 1053.19C-313.668 1053.2 -313.717 1053.2 -313.759 1053.18L-318.374 1050.75C-318.416 1050.73 -318.447 1050.69 -318.461 1050.64C-318.475 1050.6 -318.47 1050.55 -318.448 1050.51L-310.772 1035.88C-310.749 1035.84 -310.712 1035.81 -310.667 1035.79C-310.622 1035.78 -310.573 1035.79 -310.531 1035.81L-307.237 1037.56C-307.197 1037.58 -307.167 1037.62 -307.152 1037.66L-302.636 1050.81C-302.624 1050.84 -302.604 1050.87 -302.576 1050.89C-302.549 1050.91 -302.516 1050.93 -302.481 1050.93C-302.446 1050.93 -302.412 1050.92 -302.381 1050.91C-302.351 1050.89 -302.326 1050.86 -302.31 1050.83L-297.849 1042.37C-297.827 1042.33 -297.79 1042.29 -297.745 1042.28C-297.7 1042.27 -297.651 1042.27 -297.609 1042.29L-292.998 1044.72C-292.956 1044.74 -292.925 1044.78 -292.911 1044.82C-292.897 1044.87 -292.902 1044.92 -292.924 1044.96L-300.816 1059.97C-300.838 1060.01 -300.876 1060.04 -300.921 1060.06C-300.966 1060.07 -301.015 1060.07 -301.056 1060.04L-304.31 1058.32C-304.35 1058.3 -304.381 1058.27 -304.396 1058.23L-308.953 1045.1C-308.964 1045.07 -308.985 1045.04 -309.012 1045.02C-309.04 1045 -309.073 1044.98 -309.107 1044.98C-309.142 1044.98 -309.177 1044.99 -309.207 1045C-309.237 1045.02 -309.262 1045.04 -309.278 1045.08Z" fill="white"/>
<path d="M-330.45 1076.68C-330.544 1076.63 -330.654 1076.6 -330.762 1076.62C-330.87 1076.63 -330.97 1076.68 -331.046 1076.76C-331.121 1076.84 -331.168 1076.94 -331.179 1077.05C-331.19 1077.15 -331.163 1077.26 -331.104 1077.35L-323.593 1089.03C-323.493 1089.18 -323.491 1089.34 -323.587 1089.5L-325.737 1093.14C-325.78 1093.21 -325.843 1093.27 -325.917 1093.31C-325.992 1093.35 -326.076 1093.37 -326.16 1093.36L-339.961 1092.23C-340.016 1092.22 -340.071 1092.23 -340.122 1092.25C-340.174 1092.27 -340.221 1092.3 -340.261 1092.33C-340.3 1092.37 -340.331 1092.42 -340.352 1092.47C-340.372 1092.52 -340.381 1092.57 -340.378 1092.63L-340.366 1092.85C-340.358 1093.01 -340.282 1093.13 -340.141 1093.22L-325.243 1102.12C-325.085 1102.21 -325.053 1102.33 -325.146 1102.49L-327.352 1106.17C-327.388 1106.22 -327.446 1106.27 -327.514 1106.28C-327.582 1106.3 -327.653 1106.29 -327.713 1106.25L-350.568 1092.57C-350.616 1092.54 -350.651 1092.49 -350.665 1092.44C-350.678 1092.38 -350.67 1092.32 -350.641 1092.27L-347.334 1086.74C-347.227 1086.57 -347.071 1086.48 -346.867 1086.5L-332.574 1087.41C-332.453 1087.42 -332.333 1087.39 -332.226 1087.34C-332.119 1087.28 -332.029 1087.2 -331.967 1087.1C-331.905 1086.99 -331.873 1086.87 -331.873 1086.75C-331.874 1086.63 -331.908 1086.51 -331.971 1086.41L-339.492 1074.21C-339.543 1074.13 -339.571 1074.03 -339.572 1073.94C-339.573 1073.84 -339.547 1073.75 -339.498 1073.67L-336.11 1068.02C-336.007 1067.85 -335.87 1067.82 -335.699 1067.92L-312.931 1081.56C-312.787 1081.65 -312.757 1081.76 -312.844 1081.91L-315.022 1085.52C-315.043 1085.55 -315.071 1085.59 -315.104 1085.61C-315.137 1085.63 -315.174 1085.65 -315.214 1085.66C-315.254 1085.67 -315.295 1085.67 -315.336 1085.67C-315.377 1085.66 -315.416 1085.65 -315.451 1085.63L-330.45 1076.68Z" fill="white"/>
<path d="M-316.335 1071.58C-311.949 1072.3 -309.218 1065.99 -309.247 1062.55C-309.25 1062.4 -309.214 1062.26 -309.14 1062.13L-307.121 1058.46C-307.097 1058.41 -307.063 1058.38 -307.02 1058.35C-306.978 1058.32 -306.93 1058.31 -306.88 1058.31C-306.83 1058.31 -306.781 1058.32 -306.737 1058.34C-306.694 1058.37 -306.657 1058.4 -306.63 1058.44C-304.21 1062.23 -303.962 1066.11 -305.886 1070.09C-310.567 1079.78 -324.979 1077.37 -325.816 1066.47C-326.005 1064 -325.374 1061.71 -323.923 1059.62C-320.317 1054.41 -314.216 1053.26 -308.829 1056.84C-308.697 1056.93 -308.668 1057.05 -308.742 1057.19L-316.49 1071.26C-316.59 1071.44 -316.538 1071.55 -316.335 1071.58ZM-319.557 1069.83L-313.859 1059.48C-313.847 1059.46 -313.844 1059.43 -313.85 1059.41C-313.856 1059.39 -313.871 1059.37 -313.892 1059.35C-314.279 1059.14 -314.737 1059.06 -315.239 1059.13C-315.741 1059.19 -316.278 1059.4 -316.818 1059.73C-317.359 1060.06 -317.893 1060.52 -318.39 1061.07C-318.886 1061.62 -319.336 1062.26 -319.713 1062.94L-319.762 1063.03C-320.139 1063.71 -320.436 1064.44 -320.635 1065.15C-320.835 1065.86 -320.934 1066.56 -320.926 1067.19C-320.918 1067.83 -320.804 1068.39 -320.589 1068.85C-320.375 1069.31 -320.065 1069.65 -319.677 1069.87C-319.656 1069.88 -319.632 1069.88 -319.609 1069.87C-319.587 1069.86 -319.568 1069.85 -319.557 1069.83Z" fill="white"/>
<path d="M301.657 371.533L299.859 369.006C299.751 368.852 299.773 368.72 299.925 368.61L303.048 366.341C303.22 366.219 303.367 366.243 303.491 366.412C308.017 372.711 311.465 377.614 313.835 381.122C320.378 390.82 307.346 401.817 298.712 394.722C298.59 394.622 298.592 394.528 298.72 394.44L301.9 392.228C302.054 392.121 302.224 392.071 302.41 392.079C307.627 392.348 313.98 386.949 308.804 381.896C308.673 381.768 308.604 381.796 308.599 381.98C308.132 394.944 289.904 392.835 289.467 380.666C289.231 374.135 295.218 369.515 301.508 371.732C301.534 371.742 301.563 371.743 301.59 371.736C301.617 371.728 301.64 371.712 301.657 371.689C301.674 371.667 301.683 371.639 301.683 371.611C301.683 371.583 301.674 371.556 301.657 371.533ZM305.195 376.631C304.839 376.132 304.358 375.73 303.778 375.447C303.198 375.164 302.532 375.007 301.817 374.984C301.102 374.962 300.352 375.074 299.61 375.314C298.869 375.554 298.149 375.919 297.494 376.386C296.17 377.329 295.186 378.634 294.759 380.015C294.331 381.395 294.494 382.737 295.213 383.745C295.569 384.244 296.05 384.647 296.63 384.93C297.209 385.212 297.876 385.369 298.591 385.392C299.306 385.415 300.056 385.303 300.798 385.062C301.539 384.822 302.258 384.458 302.914 383.991C304.238 383.047 305.221 381.742 305.649 380.362C306.077 378.982 305.914 377.64 305.195 376.631Z" fill="white"/>
<path d="M484.017 178.463C485.436 175.958 484.708 172.863 482.392 171.552C480.076 170.24 477.048 171.207 475.629 173.713C474.21 176.218 474.938 179.312 477.254 180.624C479.57 181.936 482.598 180.969 484.017 178.463Z" fill="white"/>
<path d="M327.544 368.54C327.781 372.489 326.213 375.293 322.84 376.954C315.413 380.614 307.443 373.183 308.153 365.605C308.675 360.116 314.311 356.201 319.796 358.347C319.835 358.364 319.878 358.367 319.919 358.355C319.96 358.344 319.996 358.32 320.021 358.285C320.047 358.251 320.061 358.209 320.062 358.166C320.062 358.122 320.049 358.08 320.023 358.045L318.172 355.521C318.032 355.327 318.057 355.16 318.247 355.017L321.24 352.789C321.418 352.655 321.576 352.678 321.713 352.859L333.376 368.357C333.42 368.415 333.438 368.488 333.428 368.56C333.418 368.632 333.379 368.697 333.321 368.741L330.407 370.938C330.294 371.023 330.152 371.06 330.012 371.041C329.871 371.022 329.744 370.949 329.658 370.837L327.832 368.437C327.811 368.411 327.782 368.391 327.749 368.382C327.717 368.373 327.682 368.374 327.651 368.386C327.619 368.397 327.591 368.418 327.572 368.446C327.553 368.473 327.543 368.507 327.544 368.54ZM323.895 363.245C323.523 362.756 323.028 362.368 322.439 362.103C321.851 361.837 321.179 361.7 320.464 361.698C319.748 361.697 319.002 361.832 318.268 362.094C317.535 362.357 316.828 362.743 316.188 363.23C314.896 364.214 313.955 365.549 313.573 366.943C313.191 368.337 313.398 369.675 314.15 370.663C314.522 371.152 315.017 371.54 315.606 371.806C316.194 372.071 316.866 372.208 317.581 372.21C318.297 372.211 319.043 372.077 319.777 371.814C320.51 371.551 321.217 371.165 321.857 370.678C323.149 369.695 324.09 368.359 324.472 366.965C324.854 365.571 324.647 364.233 323.895 363.245Z" fill="white"/>
<path d="M338.084 356.674C338.191 356.614 338.274 356.521 338.32 356.409C338.366 356.298 338.372 356.175 338.337 356.062L334.214 342.79C334.163 342.633 334.201 342.501 334.33 342.395L337.884 339.542C338.069 339.395 338.197 339.433 338.267 339.655L344.718 359.338C344.744 359.419 344.745 359.507 344.721 359.589C344.696 359.672 344.646 359.745 344.579 359.799L340.226 363.252C340.158 363.306 340.076 363.338 339.991 363.344C339.905 363.35 339.82 363.33 339.747 363.285L321.919 352.589C321.754 352.488 321.746 352.378 321.898 352.258L325.11 349.729C325.274 349.6 325.446 349.589 325.627 349.693C326.835 350.395 337.732 356.872 338.084 356.674Z" fill="white"/>
<path d="M373.836 335.021C373.821 335.036 373.802 335.048 373.782 335.056C373.761 335.065 373.739 335.069 373.717 335.069C373.695 335.068 373.674 335.064 373.653 335.055C373.633 335.046 373.615 335.034 373.6 335.018L355.07 315.874C354.927 315.727 354.928 315.583 355.073 315.443L359.651 310.998C359.709 310.941 359.782 310.902 359.861 310.884C359.941 310.866 360.025 310.871 360.103 310.897L373.679 315.488C373.796 315.528 373.923 315.535 374.044 315.508C374.166 315.481 374.277 315.421 374.367 315.334C374.457 315.248 374.521 315.138 374.553 315.017C374.585 314.896 374.584 314.768 374.549 314.648L370.435 300.907C370.38 300.727 370.42 300.572 370.555 300.443L375.278 295.861C375.309 295.831 375.346 295.807 375.386 295.79C375.426 295.774 375.469 295.766 375.512 295.767C375.556 295.767 375.598 295.776 375.638 295.793C375.678 295.811 375.714 295.835 375.744 295.866L394.176 314.894C394.308 315.031 394.305 315.169 394.167 315.306L391.165 318.198C391.134 318.229 391.097 318.253 391.056 318.269C391.015 318.286 390.971 318.294 390.926 318.293C390.882 318.292 390.838 318.282 390.797 318.265C390.756 318.247 390.719 318.221 390.688 318.189L378.596 305.716C378.543 305.662 378.475 305.624 378.4 305.607C378.326 305.59 378.247 305.595 378.175 305.621C377.796 305.758 377.674 306.039 377.808 306.464C379.177 310.733 380.546 314.988 381.915 319.229C382.01 319.516 381.947 319.764 381.726 319.971L378.776 322.757C378.635 322.887 378.477 322.921 378.301 322.859L365.442 318.268C365.33 318.23 365.209 318.23 365.097 318.268C364.986 318.307 364.89 318.382 364.826 318.481C364.762 318.58 364.733 318.698 364.744 318.816C364.755 318.933 364.805 319.044 364.886 319.13L376.899 331.546C377.052 331.708 377.049 331.867 376.89 332.023L373.836 335.021Z" fill="white"/>
<path d="M381.676 295.222C383.04 293.801 383.148 291.693 381.919 290.513C380.689 289.333 378.587 289.528 377.224 290.948C375.86 292.369 375.752 294.477 376.981 295.657C378.211 296.838 380.313 296.643 381.676 295.222Z" fill="white"/>
<path d="M447.432 235.743C451.552 236.193 454.494 231.885 455.051 228.355C455.384 226.243 456.475 224.907 457.657 223.268C457.759 223.123 457.859 223.124 457.959 223.271C463.726 231.671 454.581 243.589 444.955 239.606C434.612 235.334 437.459 219.903 448.187 219.056C450.607 218.865 453.064 219.527 455.558 221.043C456.053 221.347 456.143 221.741 455.828 222.226L447.303 235.46C447.197 235.626 447.24 235.72 447.432 235.743ZM450.551 223.524C445.971 222.683 441.88 229.65 444.141 233.548C444.225 233.696 444.313 233.697 444.405 233.553L450.7 223.875C450.824 223.682 450.774 223.566 450.551 223.524Z" fill="white"/>
<path d="M401.174 277.212L398.079 274.621C398.004 274.558 397.953 274.473 397.932 274.378C397.911 274.283 397.922 274.185 397.963 274.097L399.602 270.466C399.686 270.276 399.807 270.247 399.964 270.378L404.052 273.709C404.111 273.759 404.189 273.783 404.267 273.776C404.345 273.769 404.418 273.731 404.469 273.671L407.812 269.667C407.932 269.523 408.063 269.511 408.207 269.63L411.956 272.758C412.003 272.797 412.041 272.845 412.069 272.898C412.097 272.952 412.114 273.011 412.119 273.071C412.124 273.132 412.117 273.193 412.098 273.25C412.079 273.308 412.049 273.361 412.01 273.407L408.812 277.202C408.754 277.271 408.726 277.359 408.732 277.448C408.738 277.538 408.779 277.621 408.845 277.681C411.385 279.942 413.169 281.421 414.198 282.118C415.742 283.164 417.736 280.185 418.629 279.207C418.759 279.063 418.898 279.053 419.047 279.177L422.902 282.421C422.949 282.462 422.979 282.52 422.984 282.582C422.99 282.645 422.971 282.709 422.931 282.759C420.005 286.566 417.056 289.737 412.473 286.425C410.209 284.792 408.065 283.048 406.04 281.191C406.002 281.155 405.956 281.128 405.906 281.11C405.855 281.093 405.802 281.085 405.749 281.089C405.696 281.093 405.644 281.107 405.596 281.131C405.548 281.155 405.505 281.189 405.47 281.23L403.4 283.713C403.287 283.849 403.162 283.862 403.024 283.752L400.666 281.881C400.39 281.662 400.293 281.724 400.375 282.068L402.57 291.191C402.609 291.351 402.71 291.442 402.874 291.464L414.113 292.95C414.407 292.988 414.455 293.117 414.256 293.339L411.283 296.649C411.225 296.713 411.153 296.764 411.072 296.795C410.991 296.827 410.903 296.839 410.816 296.83L403.49 296.114C403.377 296.103 403.264 296.119 403.158 296.16C403.053 296.201 402.958 296.266 402.882 296.35C402.807 296.434 402.752 296.535 402.723 296.645C402.693 296.754 402.69 296.869 402.713 296.98L404.217 304.179C404.235 304.264 404.232 304.353 404.209 304.438C404.185 304.523 404.142 304.601 404.083 304.667L400.794 308.322C400.768 308.351 400.734 308.373 400.696 308.385C400.658 308.396 400.618 308.397 400.58 308.388C400.541 308.378 400.506 308.358 400.479 308.329C400.451 308.301 400.432 308.266 400.423 308.227L397.728 296.832C397.682 296.641 397.562 296.533 397.367 296.508L386.269 295.003C386.228 294.999 386.189 294.983 386.157 294.958C386.125 294.933 386.1 294.899 386.085 294.861C386.071 294.822 386.068 294.781 386.076 294.74C386.084 294.7 386.103 294.663 386.131 294.633L389.157 291.263C389.216 291.197 389.29 291.147 389.373 291.115C389.455 291.084 389.544 291.072 389.632 291.081L396.694 291.857C397.403 291.933 397.681 291.624 397.529 290.927L396.032 284.01C395.992 283.829 396.033 283.668 396.155 283.527L401.206 277.603C401.323 277.462 401.313 277.332 401.174 277.212Z" fill="white"/>
<path d="M348.852 346.004C352.715 347.41 356.644 344.316 358.241 341.038C359.186 339.099 360.562 338.091 362.187 336.886C362.346 336.768 362.453 336.804 362.509 336.995C364.342 343.353 360.009 349.596 353.936 350.982C346.925 352.583 340.325 346.215 341.546 339.132C343.21 329.501 355.416 326.644 361.091 334.672C361.21 334.841 361.191 334.993 361.036 335.129L348.782 345.63C348.754 345.656 348.732 345.688 348.719 345.724C348.706 345.761 348.704 345.8 348.711 345.837C348.718 345.875 348.734 345.91 348.759 345.94C348.784 345.969 348.816 345.991 348.852 346.004ZM346.515 343.109L355.524 335.391C355.536 335.38 355.543 335.364 355.545 335.348C355.546 335.332 355.541 335.316 355.531 335.303C355.245 334.97 354.846 334.74 354.355 334.627C353.864 334.514 353.292 334.519 352.67 334.643C352.048 334.767 351.39 335.007 350.732 335.35C350.075 335.692 349.431 336.13 348.837 336.639L348.771 336.696C347.574 337.722 346.654 338.972 346.213 340.173C345.773 341.374 345.848 342.426 346.423 343.099C346.428 343.106 346.435 343.112 346.442 343.116C346.45 343.12 346.458 343.123 346.467 343.124C346.475 343.125 346.484 343.124 346.492 343.121C346.501 343.119 346.508 343.115 346.515 343.109Z" fill="white"/>
<path d="M428.15 249.082C426.975 246.049 427.19 243.362 428.793 241.024C435.077 231.857 449.626 239.523 447.422 249.747C446.537 253.853 442.658 256.681 438.514 256.282C438.476 256.279 438.437 256.289 438.405 256.31C438.373 256.33 438.348 256.361 438.334 256.397C438.321 256.433 438.319 256.472 438.33 256.509C438.341 256.546 438.363 256.578 438.394 256.601L447.15 262.77C447.345 262.907 447.373 263.072 447.233 263.265L445.092 266.287C445.062 266.329 445.023 266.366 444.978 266.394C444.933 266.422 444.884 266.44 444.832 266.449C444.78 266.457 444.726 266.455 444.675 266.443C444.624 266.431 444.575 266.409 444.533 266.378L422.667 250.94C422.633 250.917 422.604 250.887 422.582 250.852C422.56 250.816 422.545 250.777 422.538 250.736C422.531 250.695 422.533 250.653 422.542 250.612C422.552 250.571 422.569 250.532 422.594 250.498L424.693 247.556C424.89 247.283 425.126 247.242 425.404 247.433L427.971 249.225C428.185 249.374 428.245 249.326 428.15 249.082ZM440.317 242.859C439.309 242.137 437.965 241.971 436.582 242.397C435.198 242.823 433.887 243.806 432.938 245.131C432.468 245.787 432.101 246.507 431.857 247.25C431.614 247.993 431.499 248.744 431.52 249.461C431.54 250.177 431.696 250.845 431.977 251.427C432.258 252.008 432.659 252.491 433.158 252.849C434.166 253.571 435.51 253.737 436.894 253.311C438.277 252.885 439.588 251.902 440.537 250.577C441.007 249.921 441.375 249.201 441.618 248.458C441.861 247.715 441.976 246.964 441.955 246.247C441.935 245.531 441.78 244.863 441.498 244.281C441.217 243.7 440.816 243.217 440.317 242.859Z" fill="white"/>
<path d="M421.21 258.181L418.641 256.206C418.484 256.085 418.468 255.947 418.592 255.793L421.014 252.757C421.128 252.613 421.259 252.598 421.404 252.709L436.806 264.593C436.938 264.697 436.954 264.817 436.852 264.952L434.47 268.032C434.358 268.178 434.229 268.195 434.083 268.083L431.405 266.076C431.389 266.062 431.368 266.054 431.347 266.053C431.325 266.051 431.304 266.057 431.286 266.07C431.268 266.082 431.255 266.1 431.249 266.121C431.242 266.141 431.243 266.164 431.251 266.184C432.315 269.75 431.752 272.681 429.565 274.977C422.179 282.742 408.916 274.024 412.262 264.188C413.566 260.35 416.524 258.421 421.134 258.402C421.376 258.402 421.401 258.328 421.21 258.181ZM426.326 262.197C425.84 261.823 425.263 261.577 424.627 261.474C423.991 261.372 423.308 261.414 422.619 261.598C421.929 261.783 421.246 262.106 420.608 262.55C419.969 262.993 419.389 263.548 418.899 264.184C418.41 264.819 418.021 265.522 417.754 266.252C417.488 266.982 417.349 267.725 417.346 268.439C417.343 269.153 417.476 269.823 417.738 270.412C417.999 271.001 418.384 271.497 418.869 271.871C419.355 272.246 419.932 272.491 420.568 272.594C421.204 272.697 421.887 272.655 422.576 272.47C423.266 272.286 423.949 271.962 424.587 271.519C425.226 271.075 425.806 270.52 426.296 269.885C426.785 269.249 427.174 268.547 427.441 267.816C427.707 267.086 427.846 266.343 427.849 265.629C427.852 264.915 427.719 264.245 427.457 263.656C427.196 263.067 426.811 262.571 426.326 262.197Z" fill="white"/>
<path d="M385.042 295.666L382.228 298.609C382.16 298.68 382.163 298.792 382.234 298.86L396.439 312.447C396.51 312.515 396.623 312.512 396.691 312.441L399.505 309.499C399.573 309.428 399.57 309.315 399.499 309.248L385.293 295.661C385.222 295.593 385.11 295.595 385.042 295.666Z" fill="white"/>
</svg>
