<svg width="99" height="85" viewBox="0 0 99 85" fill="none" xmlns="http://www.w3.org/2000/svg">
<path d="M78.7506 0H20C8.95431 0 0 8.91451 0 19.9111V64.8073C0 75.8039 8.95431 84.7184 20 84.7184H78.7506C89.7963 84.7184 98.7506 75.8039 98.7506 64.8073V19.9111C98.7506 8.91451 89.7963 0 78.7506 0Z" fill="#D95043"/>
<path d="M65.3257 26.3181L58.0456 38.7472L85.4742 42.3596L58.0456 45.9721L65.3257 58.4011L52.9685 51.081L49.3771 78.6675L45.7828 51.081L33.4257 58.4011L40.7056 45.9721L13.2771 42.3596L40.7056 38.7472L33.4257 26.3181L45.7828 33.6383L49.3771 6.05176L52.9685 33.6383L65.3257 26.3181Z" fill="white"/>
</svg>
