<svg width="138" height="32" viewBox="0 0 138 32" fill="none" xmlns="http://www.w3.org/2000/svg">
<path fill-rule="evenodd" clip-rule="evenodd" d="M0 7.73487L13.2698 1.22517C14.2713 0.807879 17.1255 0.173599 20.5306 0.974794C23.9357 1.77599 22.9509 4.81386 22.0329 6.23264C21.8659 6.64993 22.0329 7.08391 24.0358 5.48152C26.5396 3.47853 31.2967 0.724428 33.2997 0.474055C35.3026 0.223682 38.5575 0.223666 39.8094 0.974794C40.8109 1.5757 40.8943 2.89434 40.8109 3.47855C38.0567 10.4055 32.6988 24.3096 33.2997 24.5099C34.0508 24.7603 42.0627 22.5069 43.8153 20.0032C44.5483 18.9562 45.5877 15.676 46.7139 12.1221C48.2807 7.17762 50.0155 1.70313 51.3265 0.974794C53.1292 -0.0266829 56.7513 0.223686 58.337 0.474055C59.0881 0.640971 60.1397 1.87615 58.337 5.48152C57.9364 6.48301 59.1716 5.89881 59.8392 5.48152C62.0091 4.06274 66.8998 1.07495 69.103 0.474055C71.3063 -0.126841 74.6947 0.223682 76.1135 0.474055C76.8646 0.807884 78.0163 2.27674 76.6142 5.48152C76.2136 6.48302 77.6157 5.89881 78.3669 5.48152C80.3698 3.97928 84.9767 0.874646 87.3803 0.474055C90.3848 -0.0266841 93.6396 -0.026684 94.3907 0.474055C95.1419 0.974794 96.1434 1.72593 94.6411 5.7319C94.2561 6.75864 93.4928 8.54195 92.6041 10.6181C90.0255 16.6425 86.3914 25.1327 87.881 24.7603C89.884 24.2595 96.8945 22.0062 98.6471 19.0017C99.355 17.7882 100.308 14.6141 101.324 11.2281C102.825 6.23104 104.464 0.772545 105.658 0.474055C107.661 -0.0266859 111.667 -0.277071 112.668 0.474055C113.329 0.969588 113.227 2.88173 113.153 4.26946C113.114 4.98524 113.084 5.56151 113.169 5.7319C113.264 5.92314 114.127 5.38404 115.421 4.57482C117.517 3.26511 120.744 1.24783 123.684 0.474055C127.49 -0.52743 130.445 0.557523 131.446 1.22519C132.447 1.05827 133.098 3.72892 127.69 15.7468C123.684 24.7603 124.185 25.261 125.437 24.7603C125.794 24.6173 126.478 24.2498 127.32 23.7977C129.426 22.6663 132.519 21.0047 133.95 21.0047C134.732 21.0047 135.361 20.9283 135.883 20.865C136.697 20.7663 137.248 20.6995 137.705 21.0047C138.456 21.5054 137.705 22.7573 136.203 23.5084C135.828 23.6958 134.908 24.2728 133.695 25.0332C130.046 27.3211 123.748 31.27 121.681 31.27C121.257 31.27 120.761 31.2878 120.228 31.307C117.301 31.4123 113.246 31.5582 113.669 29.0166C114.17 26.0121 114.17 25.7618 113.669 26.0121C113.579 26.0575 113.274 26.259 112.822 26.5585C110.777 27.9124 105.705 31.27 103.655 31.27C103.276 31.27 102.828 31.2872 102.339 31.306C99.5978 31.4113 95.5668 31.5663 95.1419 29.0166C95.1419 28.1403 95.7678 27.1388 96.2372 26.3877C96.7067 25.6366 97.0197 25.1358 96.3937 25.261C96.0578 25.3282 95.3071 25.8282 94.2772 26.5141C91.4693 28.3841 86.586 31.6363 82.3728 31.27C76.6142 30.7692 76.6142 29.0166 77.115 27.5144C77.2365 27.15 77.8882 25.7398 78.7772 23.8161C81.5536 17.8088 86.6441 6.79413 85.1269 6.98377C84.9327 7.00805 84.715 7.02761 84.476 7.04909C82.2501 7.24914 78.1803 7.61489 74.1105 13.4935C72.0985 17.5175 70.7181 21.9837 69.652 25.4327C68.5955 28.8508 67.8478 31.27 67.1001 31.27C66.8392 31.27 66.4349 31.3153 65.9422 31.3705C63.5977 31.6332 59.2515 32.1201 58.8377 29.0166C58.5508 26.8647 61.6342 20.1093 64.1314 14.6384C65.9923 10.5613 67.5277 7.19759 67.1001 6.98377C66.0986 6.48303 57.8362 7.48452 55.3325 13.4935C54.1735 16.2751 53.1218 20.2907 52.2022 23.8018C51.1353 27.8755 50.2463 31.27 49.5739 31.27C49.1878 31.27 48.7232 31.2907 48.2118 31.3134C44.7441 31.4677 39.1296 31.7175 41.3116 26.2625C42.1128 24.8604 38.641 27.0136 36.8049 28.2655C35.3861 29.267 31.9977 31.27 29.7944 31.27C29.3497 31.27 28.8333 31.3026 28.284 31.3373C25.4313 31.5176 21.6938 31.7538 22.5336 27.7648C22.9653 25.7143 24.839 21.5705 26.671 17.519C29.0892 12.171 31.4348 6.98377 30.2952 6.98377C28.2922 6.98377 21.7825 7.98527 18.778 13.4935C17.4059 16.009 16.3993 19.9344 15.496 23.4572C14.4212 27.6485 13.4926 31.27 12.2683 31.27C11.8305 31.27 11.2416 31.3267 10.5786 31.3905C7.82864 31.6552 3.80424 32.0426 4.00597 29.0166C4.15353 26.8033 7.17082 19.6331 9.47031 14.1687C11.0726 10.3611 12.3264 7.38171 12.0179 7.48452C11.8384 7.54436 11.3728 7.77584 10.7476 8.08666C8.75717 9.07626 5.14915 10.8701 4.00597 10.489C3.65094 10.3707 3.26793 10.3082 2.8834 10.2456C1.64088 10.0431 0.382401 9.83807 0 7.73487ZM106.659 24.2595C105.911 23.1377 111.416 8.18555 119.428 6.98375C120.012 6.9003 121.131 7.0839 120.93 8.48599C120.68 10.2386 117.926 19.0017 114.671 21.5054C113.669 22.2758 107.407 25.3814 106.659 24.2595Z" fill="white"/>
</svg>
