<svg width="1365" height="1365" viewBox="0 0 1365 1365" fill="none" xmlns="http://www.w3.org/2000/svg">
<path d="M638.004 1.06629C635.071 1.33293 625.739 2.26618 617.34 2.93278C423.625 20.3977 242.176 124.921 127.254 285.572C63.2605 374.896 22.3312 476.22 6.86601 583.543C1.39988 621.006 0.733276 632.071 0.733276 682.866C0.733276 733.661 1.39988 744.727 6.86601 782.19C43.9291 1038.3 226.178 1253.48 473.354 1333.2C517.616 1347.47 564.278 1357.2 617.34 1363.07C638.004 1365.33 727.329 1365.33 747.994 1363.07C839.585 1352.93 917.177 1330.27 993.703 1291.21C1005.44 1285.21 1007.7 1283.61 1006.1 1282.27C1005.04 1281.47 955.04 1214.41 895.046 1133.36L785.99 986.037L649.337 783.79C574.144 672.601 512.283 581.676 511.75 581.676C511.217 581.543 510.683 671.401 510.417 781.124C510.017 973.238 509.884 980.971 507.484 985.504C504.017 992.036 501.351 994.703 495.752 997.636C491.485 999.769 487.752 1000.17 467.621 1000.17H444.557L438.424 996.302C434.424 993.769 431.491 990.436 429.491 986.57L426.692 980.571L426.958 713.263L427.358 445.823L431.491 440.623C433.624 437.824 438.157 434.224 441.357 432.491C446.823 429.824 448.956 429.558 472.021 429.558C499.218 429.558 503.751 430.624 510.817 438.357C512.817 440.49 586.809 551.946 675.334 686.199C763.859 820.453 884.914 1003.77 944.375 1093.76L1052.36 1257.34L1057.83 1253.74C1106.23 1222.28 1157.42 1177.48 1197.95 1130.82C1284.21 1031.77 1339.8 910.977 1358.47 782.19C1363.93 744.727 1364.6 733.661 1364.6 682.866C1364.6 632.071 1363.93 621.006 1358.47 583.543C1321.4 327.434 1139.16 112.255 891.98 32.5299C848.384 18.3979 801.988 8.66555 749.993 2.79946C737.195 1.46626 649.07 -0.0002684 638.004 1.06629ZM917.177 413.559C923.577 416.759 928.776 422.892 930.643 429.291C931.709 432.757 931.976 506.884 931.709 673.934L931.309 913.644L889.047 848.85L846.651 784.057V609.807C846.651 497.151 847.184 433.824 847.984 430.758C850.117 423.292 854.783 417.426 861.183 413.959C866.649 411.16 868.649 410.893 889.58 410.893C909.311 410.893 912.778 411.16 917.177 413.559Z" fill="black"/>
</svg>
